<svg width="20" height="19" viewBox="0 0 20 19" fill="none" xmlns="http://www.w3.org/2000/svg">
<path fill-rule="evenodd" clip-rule="evenodd" d="M16.3631 1.81812H16.8176C17.3896 1.81812 17.9405 1.96966 18.4238 2.2528C18.895 2.52882 19.2887 2.92244 19.5647 3.39363C19.8478 3.87699 19.9993 4.42788 19.9993 4.99984C19.9875 6.52712 19.9875 8.34597 19.9993 10.4598C20.0075 11.9038 19.9403 13.4177 19.7979 15.0017C19.658 16.5592 18.4069 17.7841 16.8468 17.8911C13.8707 18.0953 11.5972 18.1975 10.0229 18.1975C8.44721 18.1975 6.16093 18.0951 3.16067 17.8906C1.59778 17.784 0.345008 16.5556 0.20767 14.9952C0.0692482 13.4223 0 11.9114 0 10.4623V4.99984C0 4.42788 0.151535 3.87699 0.434677 3.39363C0.710697 2.92244 1.10431 2.52882 1.57551 2.2528C2.05886 1.96966 2.60976 1.81812 3.18171 1.81812H3.63625V1.36359C3.63625 0.610501 4.24675 0 4.99984 0C5.75293 0 6.36343 0.610501 6.36343 1.36359V1.81812H13.6359V1.36359C13.6359 0.610501 14.2464 0 14.9995 0C15.7526 0 16.3631 0.610501 16.3631 1.36359V1.81812ZM16.2855 2.72718C16.0983 3.2568 15.5932 3.63625 14.9995 3.63625C14.4058 3.63625 13.9007 3.2568 13.7135 2.72718H6.28584C6.09865 3.2568 5.59355 3.63625 4.99984 3.63625C4.40612 3.63625 3.90103 3.2568 3.71384 2.72718H3.18171C2.77238 2.72718 2.37991 2.83514 2.035 3.03719C1.69814 3.23452 1.41639 3.51626 1.21907 3.85312C1.01702 4.19803 0.909061 4.59051 0.909061 4.99984V10.4623C0.909061 11.8842 0.977093 13.3686 1.11323 14.9155C1.21133 16.0301 2.10617 16.9075 3.22252 16.9836C6.20394 17.1869 8.47186 17.2885 10.0229 17.2885C11.5724 17.2885 13.8274 17.1871 16.7846 16.9842C17.899 16.9077 18.7926 16.0328 18.8925 14.9203C19.0324 13.3644 19.0983 11.8793 19.0903 10.4649C19.0784 8.3481 19.0784 6.52588 19.0903 4.99806C19.09 4.58937 18.982 4.19754 18.7803 3.85312C18.583 3.51626 18.3012 3.23452 17.9644 3.03719C17.6194 2.83514 17.227 2.72718 16.8176 2.72718H16.2855ZM14.545 1.36359C14.545 1.11256 14.7485 0.909061 14.9995 0.909061C15.2505 0.909061 15.454 1.11256 15.454 1.36359V2.27265C15.454 2.52368 15.2505 2.72718 14.9995 2.72718C14.7485 2.72718 14.545 2.52368 14.545 2.27265V1.36359ZM4.99984 0.909061C4.74881 0.909061 4.54531 1.11256 4.54531 1.36359V2.27265C4.54531 2.52368 4.74881 2.72718 4.99984 2.72718C5.25087 2.72718 5.45437 2.52368 5.45437 2.27265V1.36359C5.45437 1.11256 5.25087 0.909061 4.99984 0.909061ZM7.72702 5.72425C7.47599 5.72425 7.27249 5.92775 7.27249 6.17878V6.36343H4.09078C3.83975 6.36343 3.63625 6.56693 3.63625 6.81796V9.99967C3.38522 9.99967 3.18171 10.2032 3.18171 10.4542C3.18171 10.7052 3.38522 10.9087 3.63625 10.9087V14.0905C3.63625 14.3415 3.83975 14.545 4.09078 14.545H7.27249V14.6954C7.27249 14.9464 7.47599 15.1499 7.72702 15.1499C7.97805 15.1499 8.18155 14.9464 8.18155 14.6954V14.545H11.8178V14.6954C11.8178 14.9464 12.0213 15.1499 12.2723 15.1499C12.5234 15.1499 12.7269 14.9464 12.7269 14.6954V14.545H15.9086C16.1596 14.545 16.3631 14.3415 16.3631 14.0905V10.9087C16.6141 10.9087 16.8176 10.7052 16.8176 10.4542C16.8176 10.2032 16.6141 9.99967 16.3631 9.99967V6.81796C16.3631 6.56693 16.1596 6.36343 15.9086 6.36343H12.7269V6.17878C12.7269 5.92775 12.5234 5.72425 12.2723 5.72425C12.0213 5.72425 11.8178 5.92775 11.8178 6.17878V6.36343H8.18155V6.17878C8.18155 5.92775 7.97805 5.72425 7.72702 5.72425ZM8.18155 9.99967V6.36343H7.27249V9.99967H3.63625V10.9087H7.27249V14.545H8.18155V10.9087H11.8178V14.545H12.7269V10.9087H16.3631V9.99967H12.7269V6.36343H11.8178V9.99967H8.18155ZM11.8178 9.99967V10.9087H12.7269V9.99967H11.8178ZM8.18155 10.9087V9.99967H7.27249V10.9087H8.18155ZM4.09078 5.45437H15.9086C16.6617 5.45437 17.2722 6.06487 17.2722 6.81796V14.0905C17.2722 14.8435 16.6617 15.454 15.9086 15.454H4.09078C3.33769 15.454 2.72718 14.8435 2.72718 14.0905V6.81796C2.72718 6.06487 3.33769 5.45437 4.09078 5.45437Z" fill="#5964D1"/>
</svg>
