<svg width="20" height="20" viewBox="0 0 20 20" fill="none" xmlns="http://www.w3.org/2000/svg">
<path fill-rule="evenodd" clip-rule="evenodd" d="M18.1051 1.8853C17.8049 1.59159 17.3226 1.59425 17.0257 1.89127L13.972 4.94661C12.756 4.2955 11.4048 3.93948 10.0003 3.93948C6.47899 3.93948 3.29288 6.1774 1.73217 9.69267C1.64527 9.8884 1.64527 10.1118 1.73217 10.3075C2.43713 11.8953 3.47371 13.2225 4.72302 14.2006L1.88954 17.0356C1.59046 17.3348 1.59318 17.819 1.89558 18.1149C2.19573 18.4086 2.67807 18.4059 2.97494 18.1089L6.02863 15.0536C7.24462 15.7047 8.59581 16.0607 10.0003 16.0607C13.5217 16.0607 16.7078 13.8228 18.2685 10.3075C18.3554 10.1118 18.3554 9.8884 18.2685 9.69267C17.5635 8.10485 16.5269 6.77765 15.2776 5.79957L18.1111 2.96457C18.4102 2.66533 18.4075 2.18119 18.1051 1.8853ZM12.8418 6.07744C11.9521 5.67226 10.9906 5.45463 10.0003 5.45463C7.19833 5.45463 4.62655 7.19711 3.26008 10.0001C3.88616 11.2843 4.76528 12.346 5.80364 13.1194L7.38704 11.5351C7.12203 11.085 6.97002 10.5603 6.97002 10.0001C6.97002 8.32649 8.32674 6.96978 10.0003 6.96978C10.5599 6.96978 11.0841 7.12147 11.534 7.38597L12.8418 6.07744ZM12.6136 8.46503L14.197 6.88077C15.2354 7.65419 16.1145 8.71582 16.7406 10.0001C15.3741 12.8031 12.8023 14.5455 10.0003 14.5455C9.01007 14.5455 8.04856 14.3279 7.15885 13.9227L8.46668 12.6142C8.91655 12.8787 9.44072 13.0304 10.0003 13.0304C11.6739 13.0304 13.0306 11.6737 13.0306 10.0001C13.0306 9.4399 12.8786 8.91521 12.6136 8.46503ZM10.3861 8.53448C10.2629 8.50215 10.1336 8.48493 10.0003 8.48493C9.16353 8.48493 8.48517 9.16329 8.48517 10.0001C8.48517 10.1337 8.50246 10.2632 8.53493 10.3866L10.3861 8.53448ZM9.61457 11.4657L11.4657 9.61353C11.4982 9.73694 11.5155 9.86649 11.5155 10.0001C11.5155 10.8369 10.8371 11.5152 10.0003 11.5152C9.86702 11.5152 9.73773 11.498 9.61457 11.4657Z" fill="#F7F9FE"/>
</svg>
