<svg width="12" height="12" viewBox="0 0 12 12" fill="none" xmlns="http://www.w3.org/2000/svg">
<path fill-rule="evenodd" clip-rule="evenodd" d="M1.14835 4.02156C1.12734 4.40646 1.11211 4.71917 1.10266 4.95994C0.869477 4.82441 0.784456 4.52722 0.913386 4.2881C0.910315 4.29379 0.917027 4.2838 0.924002 4.27342L0.924006 4.27341L0.924029 4.27338L0.924032 4.27337L0.928832 4.26624C0.944998 4.24247 0.955451 4.22698 0.962154 4.21639C1.01745 4.14569 1.07978 4.08038 1.14835 4.02156ZM1.3051 1.44012C1.25779 2.174 1.21834 2.80946 1.18673 3.3469C0.608147 3.63433 0.21342 4.19555 0.139569 4.83885C0.0464387 5.65007 0 6.58214 0 7.63554C0 8.52507 0.0331168 9.34435 0.0994468 10.0935C0.182152 11.0276 0.931062 11.7634 1.8665 11.8295C3.46671 11.9426 4.85026 11.9992 6.01765 11.9992C7.18197 11.9992 8.55406 11.9429 10.1344 11.8304C11.0694 11.7638 11.8177 11.0283 11.9005 10.0946C11.9669 9.34512 12 8.52549 12 7.63554C12 6.58277 11.9536 5.65118 11.8606 4.8403C11.7873 4.20138 11.3975 3.64346 10.8255 3.35425C10.8011 2.97957 10.7587 2.34373 10.6976 1.4366C10.6528 0.771721 10.134 0.236612 9.47079 0.171232C8.31291 0.0570791 7.15499 0 5.99705 0C4.84063 0 3.68559 0.0569306 2.53198 0.170789C1.86736 0.236383 1.34805 0.773665 1.3051 1.44012ZM10.8881 4.96512C10.8792 4.65297 10.8697 4.3411 10.8595 4.02948C10.9264 4.08774 10.9872 4.15221 11.0413 4.22186C11.048 4.23218 11.0576 4.24645 11.0715 4.26695L11.0761 4.27369C11.0828 4.28373 11.0896 4.29381 11.0865 4.2881C11.2171 4.53031 11.1282 4.83211 10.8881 4.96512ZM10.3052 3.77405C10.322 4.26705 10.3371 4.76071 10.3505 5.25504L6.4086 7.38044C6.27788 7.45092 6.14838 7.48236 6.00863 7.47807L5.99995 7.47794L5.99127 7.47807C5.85152 7.48236 5.72202 7.45092 5.5913 7.38044L1.63881 5.24932C1.65209 4.70698 1.72238 3.44625 1.84942 1.47521C1.8752 1.07533 2.18678 0.752963 2.58555 0.713606C3.72137 0.601504 4.85853 0.545455 5.99705 0.545455C7.13709 0.545455 8.27716 0.601653 9.41728 0.714055C9.81518 0.753283 10.1265 1.07435 10.1533 1.47328C10.2515 2.92955 10.303 3.71139 10.3052 3.77405ZM5.99995 8.02349C5.76598 8.02929 5.54425 7.97477 5.33243 7.86055L0.858049 5.44804C0.777583 5.40465 0.705083 5.35225 0.641127 5.29276C0.577395 5.98764 0.545455 6.76865 0.545455 7.63554C0.545455 8.50963 0.577927 9.31297 0.642776 10.0454C0.701851 10.7126 1.23679 11.2382 1.90496 11.2854C3.49319 11.3976 4.86425 11.4537 6.01765 11.4537C7.16791 11.4537 8.5274 11.3979 10.0956 11.2863C10.7635 11.2388 11.2981 10.7134 11.3571 10.0464C11.422 9.31372 11.4545 8.51004 11.4545 7.63554C11.4545 6.76861 11.4226 5.98757 11.3589 5.29267C11.2949 5.35219 11.2224 5.40463 11.1418 5.44804L6.66747 7.86055C6.45564 7.97477 6.23392 8.02929 5.99995 8.02349ZM3.27246 5.7278C3.27246 5.87843 3.39456 6.00053 3.54519 6.00053H8.45428C8.6049 6.00053 8.72701 5.87843 8.72701 5.7278C8.72701 5.57718 8.6049 5.45508 8.45428 5.45508H3.54519C3.39456 5.45508 3.27246 5.57718 3.27246 5.7278ZM3.54519 4.3643C3.39456 4.3643 3.27246 4.2422 3.27246 4.09157C3.27246 3.94095 3.39456 3.81885 3.54519 3.81885H8.45428C8.6049 3.81885 8.72701 3.94095 8.72701 4.09157C8.72701 4.2422 8.6049 4.3643 8.45428 4.3643H3.54519ZM3.27246 2.45388C3.27246 2.6045 3.39456 2.72661 3.54519 2.72661H5.4539C5.60452 2.72661 5.72662 2.6045 5.72662 2.45388C5.72662 2.30326 5.60452 2.18115 5.4539 2.18115H3.54519C3.39456 2.18115 3.27246 2.30326 3.27246 2.45388Z" fill="#171717"/>
</svg>
