<svg width="20" height="20" viewBox="0 0 20 20" fill="none" xmlns="http://www.w3.org/2000/svg">
<path fill-rule="evenodd" clip-rule="evenodd" d="M3.90226 3.90226C0.921253 6.88326 0.921253 11.7164 3.90226 14.6974C6.88326 17.6784 11.7164 17.6784 14.6974 14.6974C17.6784 11.7164 17.6784 6.88326 14.6974 3.90226C11.7164 0.921253 6.88326 0.921253 3.90226 3.90226ZM5.08077 5.08077C7.4109 2.75064 11.1888 2.75064 13.5189 5.08077C15.849 7.41089 15.849 11.1888 13.5189 13.5189C11.1888 15.849 7.4109 15.849 5.08077 13.5189C2.75064 11.1888 2.75064 7.41089 5.08077 5.08077Z" fill="#BBBBBB"/>
<path d="M18.4118 16.9019L14.9706 13.4607C14.1849 12.675 13.0064 13.8535 13.792 14.6392L17.2333 18.0804C18.0189 18.8661 19.1975 17.6876 18.4118 16.9019Z" fill="#BBBBBB"/>
</svg>
