<svg width="33" height="32" viewBox="0 0 33 32" fill="none" xmlns="http://www.w3.org/2000/svg">
<g filter="url(#filter0_d_782_7064)">
<rect x="8.10986" y="7.11084" width="17.7778" height="17.7778" rx="8.88889" fill="#FF9900"/>
</g>
<rect x="29.4429" y="15.1108" width="3.55555" height="1.77778" rx="0.888889" fill="#FF9900"/>
<rect x="29.4429" y="15.1108" width="3.55555" height="1.77778" rx="0.888889" fill="#FF9900"/>
<rect x="0.998535" y="15.1108" width="3.55555" height="1.77778" rx="0.888889" fill="#FF9900"/>
<rect x="0.998535" y="15.1108" width="3.55555" height="1.77778" rx="0.888889" fill="#FF9900"/>
<rect x="16.1099" y="3.55518" width="3.55555" height="1.77778" rx="0.888889" transform="rotate(-90 16.1099 3.55518)" fill="#FF9900"/>
<rect x="16.1099" y="3.55518" width="3.55555" height="1.77778" rx="0.888889" transform="rotate(-90 16.1099 3.55518)" fill="#FF9900"/>
<rect x="16.1099" y="31.9995" width="3.55555" height="1.77778" rx="0.888889" transform="rotate(-90 16.1099 31.9995)" fill="#FF9900"/>
<rect x="16.1099" y="31.9995" width="3.55555" height="1.77778" rx="0.888889" transform="rotate(-90 16.1099 31.9995)" fill="#FF9900"/>
<rect x="25.1699" y="6.57129" width="3.55555" height="1.77778" rx="0.888889" transform="rotate(-45 25.1699 6.57129)" fill="#FF9900"/>
<rect x="25.1699" y="6.57129" width="3.55555" height="1.77778" rx="0.888889" transform="rotate(-45 25.1699 6.57129)" fill="#FF9900"/>
<rect x="5.05664" y="26.6846" width="3.55555" height="1.77778" rx="0.888889" transform="rotate(-45 5.05664 26.6846)" fill="#FF9900"/>
<rect x="5.05664" y="26.6846" width="3.55555" height="1.77778" rx="0.888889" transform="rotate(-45 5.05664 26.6846)" fill="#FF9900"/>
<rect x="26.3687" y="24.1128" width="3.55555" height="1.77778" rx="0.888889" transform="rotate(45 26.3687 24.1128)" fill="#FF9900"/>
<rect x="26.3687" y="24.1128" width="3.55555" height="1.77778" rx="0.888889" transform="rotate(45 26.3687 24.1128)" fill="#FF9900"/>
<rect x="6.25537" y="3.99951" width="3.55555" height="1.77778" rx="0.888889" transform="rotate(45 6.25537 3.99951)" fill="#FF9900"/>
<rect x="6.25537" y="3.99951" width="3.55555" height="1.77778" rx="0.888889" transform="rotate(45 6.25537 3.99951)" fill="#FF9900"/>
<defs>
<filter id="filter0_d_782_7064" x="4.10986" y="3.11084" width="25.7778" height="25.7778" filterUnits="userSpaceOnUse" color-interpolation-filters="sRGB">
<feFlood flood-opacity="0" result="BackgroundImageFix"/>
<feColorMatrix in="SourceAlpha" type="matrix" values="0 0 0 0 0 0 0 0 0 0 0 0 0 0 0 0 0 0 127 0" result="hardAlpha"/>
<feOffset/>
<feGaussianBlur stdDeviation="2"/>
<feComposite in2="hardAlpha" operator="out"/>
<feColorMatrix type="matrix" values="0 0 0 0 1 0 0 0 0 0.6 0 0 0 0 0 0 0 0 0.5 0"/>
<feBlend mode="normal" in2="BackgroundImageFix" result="effect1_dropShadow_782_7064"/>
<feBlend mode="normal" in="SourceGraphic" in2="effect1_dropShadow_782_7064" result="shape"/>
</filter>
</defs>
</svg>
