<svg width="12" height="11" viewBox="0 0 12 11" fill="none" xmlns="http://www.w3.org/2000/svg">
<path fill-rule="evenodd" clip-rule="evenodd" d="M0.60969 1.92784C0.551088 2.61246 0.521739 3.3612 0.521739 4.17391C0.521739 5.01 0.5528 5.77842 0.614829 6.479C0.671336 7.11722 1.18301 7.6199 1.82213 7.66507C3.22088 7.76393 4.44355 7.81725 5.4898 7.82508C5.63387 7.82615 5.74979 7.94382 5.74871 8.08789C5.74764 8.23196 5.62997 8.34788 5.4859 8.3468C4.42779 8.33888 3.19439 8.2851 1.78535 8.18551C0.890581 8.12227 0.174233 7.41852 0.095123 6.52502C0.0316769 5.80843 0 5.02477 0 4.17391C0 3.13121 0.0475708 2.18939 0.142902 1.34817C0.213398 0.726078 0.715957 0.24182 1.34024 0.194438C3.04763 0.0648463 4.51091 0 5.73065 0C6.95133 0 8.42013 0.0649464 10.1376 0.194738C10.7621 0.241926 11.2649 0.726261 11.3354 1.34853C11.4307 2.18965 11.4783 3.13136 11.4783 4.17391C11.4783 4.27025 11.4779 4.36572 11.477 4.46033C11.4758 4.6044 11.358 4.72019 11.2139 4.71895C11.0699 4.71772 10.9541 4.59992 10.9553 4.45585C10.9561 4.36274 10.9565 4.26876 10.9565 4.17391C10.9565 3.3612 10.9272 2.61246 10.8686 1.92784C10.8064 1.98626 10.7358 2.03764 10.6572 2.08002L6.37732 4.38765C6.1748 4.49685 5.96281 4.54901 5.73913 4.54351C5.51545 4.54901 5.30346 4.49685 5.10094 4.38765L0.821098 2.08002C0.742482 2.03764 0.671818 1.98626 0.60969 1.92784ZM0.909481 0.918L0.888284 0.94936L0.883688 0.956188C0.877007 0.966134 0.870568 0.97572 0.873509 0.970266C0.747703 1.20359 0.834866 1.49473 1.06819 1.62053L5.34803 3.92816C5.47244 3.99524 5.59569 4.02534 5.72859 4.0216C5.73455 4.02138 5.74056 4.02136 5.74661 4.02154L5.74863 4.0216C5.88153 4.02534 6.00478 3.99524 6.12919 3.92816L10.409 1.62053C10.6424 1.49473 10.7295 1.20359 10.6037 0.970266C10.6067 0.975734 10.6002 0.966085 10.5937 0.956473L10.5894 0.950032L10.5683 0.918772C10.4424 0.803136 10.2786 0.728401 10.0978 0.714739C8.39248 0.585869 6.9364 0.521484 5.73013 0.521484C4.52485 0.521484 3.07435 0.585764 1.3792 0.714426C1.19873 0.728123 1.03522 0.802671 0.909481 0.918ZM7.2964 9.03216C6.97464 8.63036 6.78223 8.12049 6.78223 7.5656C6.78223 6.26882 7.83318 5.21777 9.13005 5.21777C9.68492 5.21777 10.1948 5.41019 10.5966 5.73195L7.2964 9.03216ZM7.66553 9.40088L7.49007 9.57633C7.24412 9.82228 6.8752 9.45335 7.12115 9.20741L7.2964 9.03216C7.40541 9.16829 7.52927 9.29201 7.66553 9.40088ZM7.66553 9.40088L10.9653 6.10107C11.2861 6.50255 11.4779 7.01164 11.4779 7.5656C11.4779 8.86238 10.4269 9.91343 9.13005 9.91343C8.57612 9.91343 8.06702 9.72166 7.66553 9.40088ZM10.9653 6.10107C10.8565 5.96482 10.7327 5.84096 10.5966 5.73195L10.7733 5.55523C11.0193 5.30928 11.3882 5.67821 11.1422 5.92416L10.9653 6.10107ZM6.26074 7.56585C6.26074 5.98093 7.54528 4.69629 9.13031 4.69629C10.7152 4.69629 11.9999 5.98082 11.9999 7.56585C11.9999 9.15078 10.7153 10.4354 9.13031 10.4354C7.54539 10.4354 6.26074 9.15088 6.26074 7.56585Z" fill="#171717"/>
</svg>
