<svg width="20" height="20" viewBox="0 0 20 20" fill="none" xmlns="http://www.w3.org/2000/svg">
<path fill-rule="evenodd" clip-rule="evenodd" d="M1.75865 9.53116C3.29552 5.75674 6.46635 3.33325 10.0003 3.33325C13.5343 3.33325 16.7051 5.75674 18.242 9.53116C18.3642 9.83129 18.3642 10.1685 18.242 10.4687C16.7051 14.2431 13.5343 16.6666 10.0003 16.6666C6.46635 16.6666 3.29552 14.2431 1.75865 10.4687C1.63644 10.1685 1.63644 9.83129 1.75865 9.53116ZM10.0003 15.1246C12.8495 15.1246 15.4618 13.1555 16.7919 9.99992C15.4618 6.84429 12.8495 4.8752 10.0003 4.8752C7.15112 4.8752 4.53887 6.84429 3.20873 9.99992C4.53887 13.1555 7.15112 15.1246 10.0003 15.1246ZM10.0003 13.0385C8.35135 13.0385 7.01459 11.6781 7.01459 9.99992C7.01459 8.32177 8.35135 6.96137 10.0003 6.96137C11.6493 6.96137 12.9861 8.32177 12.9861 9.99992C12.9861 11.6781 11.6493 13.0385 10.0003 13.0385ZM10.0003 11.4965C10.8125 11.4965 11.4709 10.8265 11.4709 9.99992C11.4709 9.17337 10.8125 8.50332 10.0003 8.50332C9.18814 8.50332 8.52974 9.17337 8.52974 9.99992C8.52974 10.8265 9.18814 11.4965 10.0003 11.4965Z" fill="#F7F9FE"/>
</svg>
