<svg width="375" height="440" viewBox="0 0 375 440" fill="none" xmlns="http://www.w3.org/2000/svg">
<path d="M375 200.523C375 200.523 306.42 249 179 249C51.5801 249 0 220.523 0 220.523L0 0L375 0L375 200.523Z" fill="#5964D1"/>
<g clip-path="url(#clip0_889_13588)">
<path d="M7.21804 380.053C20.4106 380.64 33.6031 380.933 46.7956 380.907C47.3051 380.907 47.3051 380.107 46.7956 380.107C33.6031 380.133 20.4106 379.84 7.21804 379.253C6.70857 379.227 6.70857 380.027 7.21804 380.053Z" fill="#E8E8E8"/>
<path d="M47.599 360.214C49.6637 367.921 51.5943 375.681 53.364 383.467C53.4712 383.974 54.2489 383.761 54.1416 383.254C52.3451 375.467 50.4413 367.707 48.3766 360.001C48.2425 359.521 47.4649 359.734 47.599 360.214Z" fill="#E8E8E8"/>
<path d="M83.5296 360.8C82.7791 368.134 82.0285 375.493 81.3048 382.827C81.2512 383.333 82.0553 383.333 82.109 382.827C82.8595 375.493 83.61 368.134 84.3338 360.8C84.3606 360.293 83.5564 360.293 83.5296 360.8Z" fill="#E8E8E8"/>
<path d="M53.5789 384.187C58.2714 385.014 63.0175 385.387 67.7904 385.254C72.3488 385.121 77.3362 384.774 81.6801 383.334C82.1627 383.174 81.9482 382.4 81.4655 382.56C77.1485 383.974 72.2951 384.32 67.7904 384.454C63.0979 384.587 58.4054 384.214 53.7934 383.414C53.284 383.307 53.0694 384.08 53.5789 384.187Z" fill="#E8E8E8"/>
<path d="M47.9207 360.48C53.4712 362.027 59.5044 362.054 65.2426 362.08C71.4098 362.134 77.5771 361.787 83.6907 361.094C84.2001 361.04 84.2001 360.24 83.6907 360.294C77.738 360.987 71.7584 361.307 65.7789 361.28C59.9602 361.254 53.793 361.254 48.1352 359.707C47.6257 359.574 47.4112 360.347 47.9207 360.48Z" fill="#E8E8E8"/>
<path d="M45.6134 357.734C45.667 358.24 45.7206 358.774 45.7742 359.28C45.801 359.6 45.801 360 45.9351 360.294C46.2567 360.987 47.3289 360.747 47.9454 360.747C48.4547 360.747 48.4547 359.947 47.9454 359.947C47.6506 359.947 47.3557 359.947 47.0341 359.947C46.632 359.947 46.632 359.867 46.6052 359.467C46.5516 358.88 46.498 358.32 46.4444 357.734C46.3639 357.227 45.5598 357.2 45.6134 357.734Z" fill="#E8E8E8"/>
<path d="M46.1518 358.16C52.8553 358.934 59.5856 359.307 66.3428 359.36C69.6677 359.387 72.9927 359.334 76.3445 359.227C78.0069 359.174 79.6694 359.094 81.3319 359.014C82.1095 358.987 83.182 358.72 83.9596 358.88C84.8981 359.04 84.8445 359.84 84.9518 360.667C85.0322 360.507 85.1395 360.347 85.2199 360.187C84.8713 360.187 84.5228 360.187 84.1742 360.187C83.6647 360.08 83.4502 360.854 83.9596 360.96C84.4959 361.067 84.8981 361.067 85.4076 360.96C85.6489 360.907 85.7294 360.667 85.6758 360.48C85.5417 359.547 85.6489 358.374 84.5228 358.134C83.8524 357.974 83.0212 358.16 82.324 358.187C81.4391 358.24 80.5811 358.267 79.6962 358.32C75.9422 358.48 72.1615 358.587 68.3807 358.587C60.9263 358.587 53.4988 358.24 46.0981 357.36C45.6423 357.307 45.6423 358.107 46.1518 358.16Z" fill="#E8E8E8"/>
<path d="M51.9707 377.547C54.1158 380.347 56.6363 382.774 59.4786 384.854C59.9077 385.147 60.3099 384.454 59.8808 384.161C57.1458 382.161 54.7057 379.814 52.6411 377.121C52.3461 376.721 51.6489 377.121 51.9707 377.547Z" fill="#E8E8E8"/>
<path d="M50.1723 369.413C54.3553 375.413 59.5036 380.667 65.4564 384.96C65.8854 385.253 66.2876 384.56 65.8586 384.267C60.0399 380.053 54.9721 374.88 50.8695 369.013C50.5746 368.587 49.8774 368.987 50.1723 369.413Z" fill="#E8E8E8"/>
<path d="M48.5399 362.267C55.7797 370.8 63.8239 378.774 73.4234 384.694C73.8524 384.96 74.2814 384.267 73.8256 384C64.2798 378.134 56.2892 370.214 49.103 361.707C48.7813 361.307 48.2182 361.894 48.5399 362.267Z" fill="#E8E8E8"/>
<path d="M56.2327 361.814C63.124 369.787 70.766 377.36 79.2929 383.6C79.7219 383.894 80.1241 383.2 79.6951 382.907C71.2218 376.72 63.6334 369.147 56.7958 361.254C56.4472 360.854 55.8841 361.414 56.2327 361.814Z" fill="#E8E8E8"/>
<path d="M65.0292 362.373C69.6948 368.053 75.0577 373.12 81.0104 377.467C81.4394 377.76 81.8416 377.067 81.4126 376.773C75.5135 372.48 70.2043 367.44 65.5923 361.813C65.2705 361.413 64.7074 361.973 65.0292 362.373Z" fill="#E8E8E8"/>
<path d="M72.2147 362.081C75.2178 365.441 78.6501 368.321 82.4577 370.748C82.8867 371.014 83.2889 370.321 82.8599 370.054C79.1059 367.681 75.7273 364.801 72.7778 361.521C72.4292 361.121 71.8661 361.681 72.2147 362.081Z" fill="#E8E8E8"/>
<path d="M35.1037 318.133C36.8466 321.787 38.0265 325.627 38.6968 329.627C38.7236 329.813 38.9113 329.92 39.0722 329.92C39.2331 329.92 40.0912 329.893 40.1448 330.16C40.1716 330.267 39.6353 330.88 39.5817 331.013C39.4208 331.44 39.4208 331.947 39.5817 332.373C39.7962 332.88 40.1984 333.227 40.6811 333.413C40.842 333.493 41.0296 333.52 41.2173 333.547C41.3782 333.573 41.5391 333.573 41.7 333.547C41.9145 333.52 41.8877 333.547 41.6464 333.653C41.3782 334.053 41.0028 334.107 40.8956 334.693C40.8151 335.253 41.0833 335.787 41.2978 336.267C42.1827 338.133 42.6921 340.107 43.4161 342.053C45.9098 348.667 50.6827 354.133 56.0723 358.64C56.4746 358.96 57.0377 358.4 56.6354 358.08C51.0849 353.44 46.1511 347.76 43.8183 340.8C43.5234 339.893 43.2552 338.987 42.9334 338.107C42.6653 337.333 42.1558 336.533 41.9145 335.76C41.6464 335.333 41.6732 334.853 42.0218 334.373C42.129 334.293 42.2363 334.213 42.3435 334.133C42.424 334 42.5849 333.92 42.6653 333.76C42.7726 333.467 42.6921 333.2 42.4776 332.987C42.129 332.64 41.5927 332.827 41.1369 332.693C39.394 332.187 40.8151 331.013 40.9492 330.16C41.1369 329.04 39.7426 329.173 38.9918 329.12C39.1258 329.227 39.2599 329.307 39.3672 329.413C38.6968 325.36 37.4634 321.44 35.6936 317.733C35.5864 317.253 34.8892 317.653 35.1037 318.133Z" fill="#E8E8E8"/>
<path d="M35.3985 317.947C44.1131 320.267 51.7551 326.16 57.3056 333.147C63.2047 340.56 66.8782 349.467 68.8625 358.667C68.9697 359.174 69.7474 358.96 69.6401 358.454C67.629 349.12 63.8751 340.107 57.8955 332.587C52.2646 325.52 44.4885 319.547 35.6398 317.2C35.1036 317.04 34.8891 317.814 35.3985 317.947Z" fill="#E8E8E8"/>
<path d="M38.5624 321.253C49.2344 331.573 57.4664 344.24 62.5342 358.187C62.7219 358.667 63.4995 358.453 63.3118 357.973C58.1903 343.92 49.9048 331.12 39.1255 320.693C38.7769 320.32 38.187 320.88 38.5624 321.253Z" fill="#E8E8E8"/>
<path d="M43.3089 338.026C45.5612 338.266 47.76 338.773 49.8515 339.6C51.8894 340.4 54.115 341.413 55.402 343.253C55.697 343.68 56.3942 343.28 56.0992 342.853C54.8121 341.013 52.8011 339.973 50.7632 339.12C48.3767 338.106 45.883 337.493 43.282 337.226C42.7994 337.173 42.7994 337.973 43.3089 338.026Z" fill="#E8E8E8"/>
<path d="M47.3042 323.414C47.2774 326.481 47.7867 329.494 48.7785 332.401C48.9393 332.881 49.7167 332.668 49.5558 332.188C48.5909 329.361 48.1084 326.428 48.1084 323.414C48.1084 322.908 47.3042 322.908 47.3042 323.414Z" fill="#E8E8E8"/>
<path d="M62.0265 337.92C63.3404 333.04 67.7111 330.133 71.4383 327.147C75.4067 323.973 79.2412 320.587 82.8879 317.067C82.6734 316.933 82.432 316.8 82.2175 316.667C81.0109 319.893 80.7696 323.28 80.8232 326.693C80.8768 330.107 81.6544 334.027 80.555 337.333C80.6891 337.227 80.8232 337.147 80.9304 337.04C80.0724 337.093 79.2143 337.173 78.3563 337.227C78.0882 337.253 77.82 337.573 78.0077 337.84C78.6244 338.667 79.3484 338.933 79.3216 340.16C79.3216 341.013 79.1071 342 78.8121 342.8C78.5172 343.627 77.7396 344.187 77.4714 344.96C77.2569 345.653 77.7932 346.24 77.7932 346.933C77.82 348.08 76.9888 349.04 76.3989 349.947C75.8358 350.8 75.3263 351.68 74.8705 352.587C73.9588 354.373 73.2348 356.213 72.6985 358.133C72.5644 358.64 73.3421 358.853 73.4761 358.347C74.1465 355.973 75.1118 353.68 76.372 351.547C77.2301 350.107 78.8389 348.427 78.6512 346.613C78.5708 345.893 78.1954 345.68 78.5172 344.853C78.544 344.827 79.0266 344.187 79.0535 344.133C79.5629 343.307 79.8043 342.373 79.9651 341.44C80.0724 340.747 80.2869 339.893 80.1796 339.2C80.0188 338.213 79.268 338.133 78.7049 337.387C78.5976 337.6 78.4635 337.787 78.3563 338C79.2143 337.947 80.0724 337.867 80.9304 337.813C81.1181 337.787 81.2522 337.707 81.3058 337.52C82.3248 334.427 81.708 330.827 81.6008 327.627C81.4935 323.973 81.6276 320.293 82.9415 316.827C83.1024 316.427 82.5393 316.187 82.2711 316.427C78.3831 320.187 74.3074 323.787 70.0439 327.147C66.3972 330.027 62.4555 332.96 61.1953 337.653C61.1148 338.213 61.8924 338.427 62.0265 337.92Z" fill="#E8E8E8"/>
<path d="M79.911 320.534C77.2832 325.094 74.6018 329.6 72.0813 334.214C69.7217 338.48 67.6302 342.907 66.6381 347.68C66.5308 348.187 67.3084 348.4 67.4157 347.894C68.4346 343.014 70.6065 338.534 73.0198 334.187C75.4867 329.734 78.0877 325.36 80.6082 320.934C80.8495 320.507 80.1524 320.08 79.911 320.534Z" fill="#E8E8E8"/>
<path d="M72.0012 327.947C72.3496 329.467 72.5105 330.987 72.4569 332.534C72.43 333.041 73.2342 333.041 73.261 332.534C73.3146 330.907 73.1538 329.334 72.7785 327.734C72.6445 327.227 71.8939 327.44 72.0012 327.947Z" fill="#E8E8E8"/>
<path d="M76.3709 322.854C76.6658 324.001 76.7194 325.121 76.5854 326.268C76.5318 326.774 77.3359 326.774 77.3895 326.268C77.5504 325.041 77.4699 323.841 77.1483 322.641C77.0143 322.161 76.2369 322.374 76.3709 322.854Z" fill="#E8E8E8"/>
<path d="M76.56 328.161C78.142 327.227 79.7776 326.401 81.4669 325.707C81.9496 325.521 81.7351 324.747 81.2524 324.934C79.4827 325.654 77.7934 326.507 76.1309 327.467C75.7019 327.734 76.1041 328.427 76.56 328.161Z" fill="#E8E8E8"/>
<path d="M69.6409 341.547C70.6599 340.694 71.6788 339.867 72.7245 339.067C73.8239 338.214 75.0305 337.067 76.3712 336.534C76.8539 336.347 76.6394 335.574 76.1567 335.76C74.9501 336.214 73.958 337.094 72.939 337.894C71.6252 338.907 70.3381 339.92 69.0778 340.987C68.6756 341.307 69.2387 341.867 69.6409 341.547Z" fill="#E8E8E8"/>
<path d="M38.5906 326.587C40.4676 326.773 42.3446 326.96 44.2216 327.12C44.731 327.173 44.731 326.373 44.2216 326.32C42.3446 326.133 40.4676 325.947 38.5906 325.787C38.0811 325.733 38.0811 326.533 38.5906 326.587Z" fill="#E8E8E8"/>
<path d="M87.7938 379.788C121.392 379.788 154.963 379.788 188.561 379.788C198.027 379.788 207.492 379.788 216.957 379.788C217.467 379.788 217.467 378.987 216.957 378.987C183.359 378.987 149.788 378.987 116.19 378.987C106.725 378.987 97.2592 378.987 87.7938 378.987C87.2575 378.987 87.2575 379.788 87.7938 379.788Z" fill="#E8E8E8"/>
<path d="M201.431 314.454C201.431 318.348 201.431 322.241 201.431 326.134C201.431 326.641 202.235 326.641 202.235 326.134C202.235 322.241 202.235 318.348 202.235 314.454C202.235 313.948 201.431 313.948 201.431 314.454Z" fill="#E8E8E8"/>
<path d="M182.929 327.921C195.934 327.921 208.938 327.921 221.943 327.921C222.453 327.921 222.453 327.12 221.943 327.12C208.938 327.12 195.934 327.12 182.929 327.12C182.419 327.12 182.393 327.921 182.929 327.921Z" fill="#E8E8E8"/>
<path d="M191.672 328.134C191.672 331.494 191.672 334.854 191.672 338.24C191.672 338.747 192.476 338.747 192.476 338.24C192.476 334.88 192.476 331.52 192.476 328.134C192.476 327.6 191.672 327.6 191.672 328.134Z" fill="#E8E8E8"/>
<path d="M211.783 327.92C211.783 330.88 211.783 333.867 211.783 336.827C211.783 337.334 212.587 337.334 212.587 336.827C212.587 333.867 212.587 330.88 212.587 327.92C212.587 327.414 211.783 327.414 211.783 327.92Z" fill="#E8E8E8"/>
<path d="M199.045 339.014C208.993 339.014 218.941 339.014 228.889 339.014C229.398 339.014 229.398 338.214 228.889 338.214C218.941 338.214 208.993 338.214 199.045 338.214C198.535 338.214 198.535 339.014 199.045 339.014Z" fill="#E8E8E8"/>
<path d="M176.549 387.521C198.51 387.521 220.471 387.521 242.431 387.521C242.941 387.521 242.941 386.72 242.431 386.72C220.471 386.72 198.51 386.72 176.549 386.72C176.04 386.72 176.04 387.521 176.549 387.521Z" fill="#E8E8E8"/>
<path d="M267.368 380.614C288.927 380.614 310.512 380.614 332.071 380.614C338.131 380.614 344.191 380.614 350.251 380.614C350.76 380.614 350.76 379.813 350.251 379.813C328.692 379.813 307.107 379.813 285.548 379.813C279.488 379.813 273.428 379.813 267.368 379.813C266.859 379.813 266.859 380.614 267.368 380.614Z" fill="#E8E8E8"/>
<path d="M0.057882 394.268C22.1527 394.268 44.2743 394.268 66.3691 394.268C66.8786 394.268 66.8786 393.467 66.3691 393.467C44.2743 393.467 22.1527 393.467 0.057882 393.467C-0.451586 393.467 -0.451586 394.268 0.057882 394.268Z" fill="#E8E8E8"/>
<path d="M44.6229 402.268C62.6688 402.268 80.7147 402.268 98.7605 402.268C99.27 402.268 99.27 401.468 98.7605 401.468C80.7147 401.468 62.6688 401.468 44.6229 401.468C44.0866 401.468 44.0866 402.268 44.6229 402.268Z" fill="#E8E8E8"/>
<path d="M318.957 174.267C318.957 166.827 318.957 159.414 318.957 151.974C318.957 151.467 318.153 151.467 318.153 151.974C318.153 159.414 318.153 166.827 318.153 174.267C318.153 174.774 318.957 174.774 318.957 174.267Z" fill="#E8E8E8"/>
<path d="M318.823 151.815C328.502 151.815 338.182 151.815 347.862 151.815C348.372 151.815 348.372 151.014 347.862 151.014C338.182 151.014 328.502 151.014 318.823 151.014C318.313 151.014 318.313 151.815 318.823 151.815Z" fill="#E8E8E8"/>
<path d="M347.461 151.467C347.407 159.014 347.354 166.561 347.273 174.107C347.273 174.614 348.078 174.614 348.078 174.107C348.131 166.561 348.185 159.014 348.265 151.467C348.265 150.961 347.461 150.961 347.461 151.467Z" fill="#E8E8E8"/>
<path d="M318.958 174.668C328.504 174.668 338.05 174.668 347.596 174.668C348.105 174.668 348.105 173.867 347.596 173.867C338.05 173.867 328.504 173.867 318.958 173.867C318.449 173.867 318.449 174.668 318.958 174.668Z" fill="#E8E8E8"/>
<path d="M319.737 153.52C319.737 159.787 319.737 166.027 319.737 172.294C319.737 172.8 320.541 172.8 320.541 172.294C320.541 166.027 320.541 159.787 320.541 153.52C320.541 153.014 319.737 153.014 319.737 153.52Z" fill="#E8E8E8"/>
<path d="M320.327 153.921C328.8 153.921 337.246 153.921 345.72 153.921C346.229 153.921 346.229 153.121 345.72 153.121C337.246 153.121 328.8 153.121 320.327 153.121C319.79 153.121 319.79 153.921 320.327 153.921Z" fill="#E8E8E8"/>
<path d="M345.289 153.707C345.263 159.84 345.236 165.974 345.209 172.134C345.209 172.64 346.013 172.64 346.013 172.134C346.04 166 346.067 159.867 346.094 153.707C346.094 153.2 345.289 153.2 345.289 153.707Z" fill="#E8E8E8"/>
<path d="M320.488 172.801C328.827 172.801 337.166 172.801 345.505 172.801C346.015 172.801 346.015 172 345.505 172C337.166 172 328.827 172 320.488 172C319.978 172 319.978 172.801 320.488 172.801Z" fill="#E8E8E8"/>
<path d="M320.325 167.28C323.409 166.214 326.653 167.174 329.656 168.054C332.713 168.934 335.716 170 338.639 171.227C339.122 171.414 339.336 170.64 338.853 170.454C335.609 169.094 332.284 167.947 328.905 167.014C326.036 166.24 323.006 165.494 320.11 166.507C319.628 166.667 319.842 167.44 320.325 167.28Z" fill="#E8E8E8"/>
<path d="M330.515 168.187C335.582 167.894 340.328 165.867 345.343 165.307C345.852 165.254 345.852 164.454 345.343 164.507C340.328 165.067 335.582 167.067 330.515 167.387C329.978 167.44 329.978 168.24 330.515 168.187Z" fill="#E8E8E8"/>
<path d="M340.112 158.426C338.987 157.786 340.005 155.68 341.211 156.186C341.855 156.453 341.989 157.226 341.64 157.786C341.265 158.4 340.488 158.506 339.844 158.32C339.335 158.186 339.121 158.96 339.63 159.093C340.702 159.386 341.908 159.066 342.444 158.026C342.927 157.093 342.552 155.866 341.533 155.44C339.442 154.56 337.727 158.026 339.71 159.12C340.139 159.36 340.568 158.666 340.112 158.426Z" fill="#E8E8E8"/>
<path d="M331.908 151.28C331.935 150.827 331.962 150.374 332.096 149.947C332.203 149.6 332.471 148.774 332.873 148.614C333.597 148.347 333.865 150.88 333.919 151.36C333.972 151.867 334.777 151.867 334.723 151.36C334.643 150.427 334.428 147.494 332.927 147.707C332.284 147.787 331.828 148.507 331.587 149.04C331.265 149.734 331.158 150.507 331.131 151.254C331.104 151.787 331.908 151.787 331.908 151.28Z" fill="#E8E8E8"/>
<path d="M336.415 275.681C336.415 278.881 336.415 282.107 336.415 285.307C336.415 285.814 337.219 285.814 337.219 285.307C337.219 282.107 337.219 278.881 337.219 275.681C337.219 275.174 336.415 275.174 336.415 275.681Z" fill="#E8E8E8"/>
<path d="M326.679 286.481C333.973 286.481 341.293 286.481 348.587 286.481C349.096 286.481 349.096 285.68 348.587 285.68C341.293 285.68 333.973 285.68 326.679 285.68C326.17 285.68 326.17 286.481 326.679 286.481Z" fill="#E8E8E8"/>
<path d="M329.765 286.72C329.765 288.24 329.765 289.734 329.765 291.254C329.765 291.76 330.569 291.76 330.569 291.254C330.569 289.734 330.569 288.24 330.569 286.72C330.569 286.214 329.765 286.214 329.765 286.72Z" fill="#E8E8E8"/>
<path d="M341.481 286.961C341.481 288.747 341.481 290.561 341.481 292.347C341.481 292.854 342.285 292.854 342.285 292.347C342.285 290.561 342.285 288.747 342.285 286.961C342.285 286.427 341.481 286.427 341.481 286.961Z" fill="#E8E8E8"/>
<path d="M335.796 293.388C340.864 293.388 345.932 293.388 351 293.388C351.509 293.388 351.509 292.587 351 292.587C345.932 292.587 340.864 292.587 335.796 292.587C335.287 292.587 335.287 293.388 335.796 293.388Z" fill="#E8E8E8"/>
<path d="M150.272 371.359C158.718 365.679 162.955 362.826 164.054 362.479C166.735 361.626 175.423 358.879 183.012 363.493C188.455 366.799 193.469 373.973 191.378 378.773C189.876 382.186 185.291 383.253 181.135 384.239C174.994 385.679 169.739 384.879 166.789 384.186C165.636 385.306 163.786 386.799 161.185 387.786C156.868 389.439 151.88 389.146 151.639 388.159C151.532 387.653 152.604 386.666 157.806 384.639C157.19 383.973 156.278 383.173 154.991 382.613C151.183 380.879 147.376 382.559 146.652 382.906C150.379 385.066 151.183 386.186 150.996 386.799C150.513 388.346 142.924 388.853 140.887 385.306C140.672 384.959 140.082 383.759 140.565 381.493C141.53 377.333 145.016 374.906 150.272 371.359Z" fill="#444762"/>
<path d="M187.061 377.28C187.919 375.52 191.78 375.946 193.282 376.106C195.212 376.32 196.928 376.506 198.483 377.866C199.663 378.88 201.379 381.093 200.763 382.88C200.2 384.586 198.081 384.453 193.979 386.453C193.282 386.8 186.578 390.08 187.034 392.24C187.222 393.12 188.428 393.093 192.263 394.72C195.588 396.106 197.545 396.96 199.181 398.826C199.985 399.76 201.594 401.6 201.165 403.466C200.36 406.906 193.174 407.493 192.987 406.96C192.826 406.506 197.867 405.253 197.92 402.906C197.974 401.12 195.159 399.68 193.389 398.746C188.187 396.053 184.674 397.013 183.307 394.426C182.529 392.96 182.958 391.386 183.039 391.093C183.441 389.653 184.567 388.426 190.064 385.68C195.078 383.173 197.304 382.586 197.277 381.466C197.25 380.426 195.319 379.573 194.14 379.28C190.815 378.4 188.375 380.48 187.248 379.306C186.766 378.773 186.792 377.866 187.061 377.28Z" fill="#444762"/>
<path d="M141.261 364.373C142.951 365.626 144.64 366.879 146.329 368.133C148.742 367.893 151.129 367.679 153.542 367.439C155.044 365.999 156.545 364.533 158.047 363.093C158.154 363.999 158.369 366.053 158.449 367.039C159.388 375.919 159.468 376.693 158.905 377.706C157.055 380.986 150.807 382.319 147.214 380.026C145.471 378.906 144.801 377.226 143.54 373.999C142.012 370.106 141.476 366.693 141.261 364.373Z" fill="#444762"/>
<path d="M148.071 373.6C147.669 374.427 146.784 374.933 145.873 374.773C145.632 374.72 145.525 375.12 145.766 375.147C146.865 375.333 147.964 374.8 148.42 373.787C148.527 373.573 148.205 373.36 148.071 373.6Z" fill="white"/>
<path d="M151.798 373.333C152.682 374.186 153.862 374.56 155.068 374.373C155.336 374.346 155.202 373.946 154.961 374C153.888 374.16 152.843 373.813 152.066 373.066C151.878 372.88 151.61 373.146 151.798 373.333Z" fill="white"/>
<path d="M150.376 375.867C150.295 375.867 150.242 375.84 150.161 375.84C150.188 375.813 150.188 375.76 150.215 375.733C150.269 375.787 150.349 375.84 150.403 375.893C150.403 375.84 150.376 375.813 150.376 375.76C150.295 375.52 149.92 375.627 150.001 375.867C150.135 376.453 150.349 377.36 149.625 377.653C149.384 377.76 149.491 378.133 149.732 378.027C150.697 377.627 150.59 376.587 150.403 375.733C150.269 375.76 150.135 375.813 150.027 375.84C150.027 375.893 150.054 375.92 150.054 375.973C150.081 376.053 150.161 376.133 150.242 376.133C150.939 376.08 150.376 375.12 150.054 375.68C149.92 375.867 150.242 376.08 150.376 375.867Z" fill="white"/>
<path d="M150.108 376.053C150.242 376.507 150.269 377.013 150.563 377.413C150.805 377.733 151.18 377.893 151.582 377.813C151.823 377.76 151.716 377.387 151.475 377.44C150.724 377.6 150.617 376.427 150.483 375.947C150.429 375.707 150.054 375.813 150.108 376.053Z" fill="white"/>
<path d="M148.82 376.427C148.043 376.08 147.238 375.92 146.381 375.973C146.113 376 146.113 376.4 146.381 376.373C147.158 376.32 147.909 376.453 148.606 376.774C148.847 376.881 149.061 376.534 148.82 376.427Z" fill="white"/>
<path d="M148.125 376.96C147.455 377.013 146.865 377.28 146.41 377.733C146.222 377.92 146.517 378.186 146.705 378.026C147.107 377.653 147.589 377.413 148.152 377.36C148.366 377.333 148.366 376.933 148.125 376.96Z" fill="white"/>
<path d="M151.961 376.241C152.738 375.947 153.516 375.84 154.347 375.92C154.615 375.947 154.615 375.547 154.347 375.52C153.489 375.44 152.658 375.573 151.854 375.867C151.612 375.947 151.693 376.348 151.961 376.241Z" fill="white"/>
<path d="M152.498 376.96C153.088 376.88 153.651 376.934 154.214 377.147C154.455 377.227 154.562 376.854 154.321 376.773C153.731 376.56 153.115 376.507 152.498 376.587C152.23 376.587 152.23 377.014 152.498 376.96Z" fill="white"/>
<path d="M146.169 372.427C146.571 372.187 147.053 372.187 147.455 372.427C147.67 372.561 147.884 372.214 147.67 372.08C147.134 371.787 146.517 371.787 145.981 372.08C145.74 372.214 145.954 372.561 146.169 372.427Z" fill="white"/>
<path d="M151.799 371.894C152.201 371.68 152.656 371.627 153.139 371.68C153.38 371.707 153.514 371.333 153.246 371.306C152.683 371.226 152.12 371.306 151.611 371.573C151.343 371.653 151.557 372 151.799 371.894Z" fill="white"/>
<path d="M145.39 363.52C146.222 363.173 147.053 362.826 147.857 362.453C147.696 362.346 147.562 362.24 147.401 362.106C147.08 363.12 146.597 364.026 145.953 364.88C145.793 365.093 146.061 365.413 146.302 365.333C147.214 364.986 148.125 364.666 149.037 364.32C149.386 364.186 149.252 363.6 148.876 363.733C147.965 364.08 147.053 364.4 146.141 364.746C146.248 364.906 146.356 365.04 146.49 365.2C147.187 364.32 147.67 363.36 148.018 362.293C148.099 362.026 147.804 361.866 147.562 361.946C146.731 362.293 145.9 362.64 145.095 363.013C144.72 363.173 145.042 363.68 145.39 363.52Z" fill="#444762"/>
<path d="M146.73 358.666C147.293 358.346 147.856 358.133 148.472 358C148.365 357.84 148.258 357.706 148.124 357.546C147.883 358.08 147.588 358.613 147.239 359.093C147.105 359.306 147.293 359.52 147.507 359.547C148.231 359.6 148.901 359.413 149.464 358.986C149.759 358.746 149.464 358.24 149.169 358.48C148.687 358.853 148.151 359.013 147.534 358.96C147.614 359.12 147.695 359.253 147.802 359.413C148.151 358.906 148.445 358.4 148.687 357.866C148.794 357.626 148.606 357.36 148.338 357.413C147.668 357.546 147.025 357.786 146.435 358.133C146.087 358.346 146.381 358.853 146.73 358.666Z" fill="#444762"/>
<path d="M151.156 365.12C150.272 364.24 151.8 363.733 151.961 362.96C152.121 362.053 151.049 361.2 152.255 360.506C152.604 360.32 152.282 359.786 151.961 360C151.532 360.24 151.183 360.613 151.076 361.12C150.915 361.973 151.666 362.48 151.022 363.253C150.728 363.626 150.379 363.733 150.272 364.24C150.165 364.746 150.379 365.173 150.728 365.546C151.022 365.813 151.451 365.386 151.156 365.12Z" fill="#444762"/>
<path d="M225.19 288.987C157.967 293.814 90.7439 298.614 23.5477 303.44C21.7244 254.96 19.901 206.48 18.1045 158C85.6224 157.094 153.14 156.187 220.658 155.28C222.16 199.84 223.661 244.4 225.19 288.987Z" fill="white" stroke="#202236" stroke-width="0.938171" stroke-miterlimit="10"/>
<path d="M75.2195 181.601C88.2511 181.601 101.31 181.601 114.341 181.601C114.851 181.601 114.851 180.8 114.341 180.8C101.31 180.8 88.2511 180.8 75.2195 180.8C74.71 180.8 74.71 181.601 75.2195 181.601Z" fill="#202236"/>
<path d="M89.8583 184.881C103.292 184.881 116.726 184.881 130.16 184.881C130.669 184.881 130.669 184.08 130.16 184.08C116.726 184.08 103.292 184.08 89.8583 184.08C89.322 184.08 89.322 184.881 89.8583 184.881Z" fill="#202236"/>
<path d="M26.256 263.119C26.7385 274.266 27.221 285.439 27.7035 296.586C27.7303 297.093 28.5344 297.093 28.5076 296.586C28.0251 285.439 27.5427 274.266 27.0602 263.119C27.0334 262.613 26.2292 262.613 26.256 263.119Z" fill="#202236"/>
<path d="M85.3279 256.614C86.4809 256.614 87.6339 256.614 88.8137 256.614C89.3232 256.614 89.3232 255.813 88.8137 255.813C87.6607 255.813 86.5077 255.813 85.3279 255.813C84.8184 255.813 84.8184 256.614 85.3279 256.614Z" fill="#202236"/>
<path d="M91.843 256.614C94.8194 256.614 97.769 256.614 100.745 256.614C101.255 256.614 101.255 255.813 100.745 255.813C97.769 255.813 94.8194 255.813 91.843 255.813C91.3336 255.813 91.3336 256.614 91.843 256.614Z" fill="#202236"/>
<path d="M107.476 256.188C111.015 256.188 114.555 256.188 118.121 256.188C118.631 256.188 118.631 255.387 118.121 255.387C114.582 255.387 111.042 255.387 107.476 255.387C106.966 255.387 106.966 256.188 107.476 256.188Z" fill="#202236"/>
<path d="M90.1278 262.214C94.4717 262.214 98.8156 262.214 103.159 262.214C103.669 262.214 103.669 261.414 103.159 261.414C98.8156 261.414 94.4717 261.414 90.1278 261.414C89.5915 261.414 89.5915 262.214 90.1278 262.214Z" fill="#202236"/>
<path d="M96.4011 259.201C101.469 259.201 106.537 259.201 111.605 259.201C112.114 259.201 112.114 258.4 111.605 258.4C106.537 258.4 101.469 258.4 96.4011 258.4C95.8917 258.4 95.8917 259.201 96.4011 259.201Z" fill="#202236"/>
<path d="M123.324 287.707C131.851 287.707 140.405 287.707 148.932 287.707C149.441 287.707 149.441 286.906 148.932 286.906C140.405 286.906 131.851 286.906 123.324 286.906C122.815 286.906 122.815 287.707 123.324 287.707Z" fill="#202236"/>
<path d="M144.371 289.867C148.849 289.867 153.354 289.867 157.832 289.867C158.341 289.867 158.341 289.067 157.832 289.067C153.354 289.067 148.849 289.067 144.371 289.067C143.862 289.067 143.862 289.867 144.371 289.867Z" fill="#202236"/>
<path d="M156.09 286.614C160.514 286.614 164.912 286.614 169.336 286.614C169.846 286.614 169.846 285.813 169.336 285.813C164.912 285.813 160.514 285.813 156.09 285.813C155.581 285.813 155.581 286.614 156.09 286.614Z" fill="#202236"/>
<path d="M178.667 214.32C186.846 214.32 195.024 214.32 203.202 214.32C203.712 214.32 203.712 213.519 203.202 213.519C195.024 213.519 186.846 213.519 178.667 213.519C178.158 213.519 178.158 214.32 178.667 214.32Z" fill="#202236"/>
<path d="M171.08 215.601C173.681 215.601 176.282 215.601 178.883 215.601C179.392 215.601 179.392 214.8 178.883 214.8C176.282 214.8 173.681 214.8 171.08 214.8C170.544 214.8 170.544 215.601 171.08 215.601Z" fill="#202236"/>
<path d="M172.581 217.761C181.322 217.761 190.09 217.761 198.832 217.761C199.341 217.761 199.341 216.96 198.832 216.96C190.09 216.96 181.322 216.96 172.581 216.96C172.071 216.96 172.071 217.761 172.581 217.761Z" fill="#202236"/>
<path d="M204.945 215.814C206.608 215.814 208.27 215.814 209.933 215.814C210.442 215.814 210.442 215.013 209.933 215.013C208.27 215.013 206.608 215.013 204.945 215.013C204.409 215.013 204.409 215.814 204.945 215.814Z" fill="#202236"/>
<path d="M198.429 248.401C200.896 248.401 203.336 248.401 205.803 248.401C206.312 248.401 206.312 247.6 205.803 247.6C203.336 247.6 200.896 247.6 198.429 247.6C197.893 247.6 197.893 248.401 198.429 248.401Z" fill="#202236"/>
<path d="M193.657 250.56C196.339 250.56 199.02 250.56 201.674 250.56C202.184 250.56 202.184 249.759 201.674 249.759C198.993 249.759 196.312 249.759 193.657 249.759C193.121 249.759 193.121 250.56 193.657 250.56Z" fill="#202236"/>
<path d="M197.545 252.72C202.828 252.72 208.11 252.72 213.392 252.72C213.902 252.72 213.902 251.919 213.392 251.919C208.11 251.919 202.828 251.919 197.545 251.919C197.036 251.919 197.036 252.72 197.545 252.72Z" fill="#202236"/>
<path d="M207.546 250.134C209.128 250.134 210.737 250.134 212.319 250.134C212.828 250.134 212.828 249.333 212.319 249.333C210.737 249.333 209.128 249.333 207.546 249.333C207.009 249.333 207.009 250.134 207.546 250.134Z" fill="#202236"/>
<path d="M97.0989 216.881C100.853 216.881 104.58 216.881 108.334 216.881C108.843 216.881 108.843 216.08 108.334 216.08C104.58 216.08 100.853 216.08 97.0989 216.08C96.5894 216.08 96.5894 216.881 97.0989 216.881Z" fill="#202236"/>
<path d="M105.277 219.174C110.801 219.174 116.352 219.174 121.875 219.174C122.385 219.174 122.385 218.374 121.875 218.374C116.352 218.374 110.801 218.374 105.277 218.374C104.768 218.374 104.741 219.174 105.277 219.174Z" fill="#202236"/>
<path d="M119.839 216.107C122.976 216.107 126.14 216.107 129.277 216.107C129.787 216.107 129.787 215.306 129.277 215.306C126.14 215.306 122.976 215.306 119.839 215.306C119.329 215.306 119.329 216.107 119.839 216.107Z" fill="#202236"/>
<path d="M23.8696 173.547C24.4593 193.787 25.049 214.054 25.6388 234.294C25.7996 240.054 25.9604 245.787 26.148 251.547C26.1748 252.054 26.979 252.054 26.9522 251.547C26.3625 231.307 25.7728 211.04 25.1831 190.8C25.0222 185.04 24.8614 179.307 24.6738 173.547C24.6738 173.04 23.8696 173.04 23.8696 173.547Z" fill="#202236"/>
<path d="M218.782 239.707C219.184 253.093 219.586 266.453 219.988 279.84C220.015 280.347 220.819 280.347 220.792 279.84C220.39 266.453 219.988 253.093 219.586 239.707C219.586 239.2 218.782 239.2 218.782 239.707Z" fill="#202236"/>
<path d="M163.25 233.574C163.41 235.201 163.571 236.854 163.705 238.481C165.261 238.081 166.789 237.654 168.344 237.254C168.13 235.627 167.942 233.974 167.727 232.347C166.226 232.747 164.751 233.174 163.25 233.574Z" fill="#EC615B"/>
<path d="M162.312 246.027C163.921 245.813 165.503 245.627 167.112 245.413C167.327 247.36 167.514 249.307 167.729 251.253C166.281 251.307 164.833 251.36 163.412 251.413C163.036 249.6 162.688 247.813 162.312 246.027Z" fill="#EC615B"/>
<path d="M168.184 257.841C168.694 259.521 169.203 261.227 169.739 262.907C171.187 262.241 172.635 261.574 174.056 260.907C173.6 259.414 173.118 257.947 172.662 256.454C171.187 256.934 169.686 257.387 168.184 257.841Z" fill="#EC615B"/>
<path d="M62.189 273.734C62.5375 278.907 62.8861 284.08 63.2347 289.227C72.3515 288.64 81.4683 288.08 90.5851 287.494C90.746 282.854 90.9337 278.187 91.0946 273.547C81.4683 273.627 71.8152 273.68 62.189 273.734Z" fill="#5222D0"/>
<path d="M175.531 168.48C176.582 168.48 177.434 167.776 177.434 166.907C177.434 166.038 176.582 165.333 175.531 165.333C174.479 165.333 173.627 166.038 173.627 166.907C173.627 167.776 174.479 168.48 175.531 168.48Z" fill="#5222D0"/>
<path d="M46.1528 180.267C47.0262 180.267 47.7343 179.801 47.7343 179.227C47.7343 178.652 47.0262 178.187 46.1528 178.187C45.2793 178.187 44.5713 178.652 44.5713 179.227C44.5713 179.801 45.2793 180.267 46.1528 180.267Z" fill="#EC615B"/>
<path d="M71.3312 210.427C72.0122 210.427 72.5642 209.782 72.5642 208.987C72.5642 208.192 72.0122 207.547 71.3312 207.547C70.6502 207.547 70.0981 208.192 70.0981 208.987C70.0981 209.782 70.6502 210.427 71.3312 210.427Z" fill="#EC615B"/>
<path opacity="0.21" d="M60.0159 174.507C60.4985 174.427 61.437 178.881 63.743 186.961C66.773 197.601 69.7762 206.187 71.9481 212.054C68.65 214.081 61.2761 217.947 51.2209 218.081C44.1151 218.161 38.511 216.347 35.186 214.961C41.7019 215.681 46.9574 215.494 50.6309 215.147C56.4496 214.614 55.4307 214.001 59.8282 213.787C61.6515 213.707 64.038 213.707 66.4781 212.241C67.3629 211.707 68.0065 211.121 68.4355 210.694C66.7194 207.174 64.5206 202.001 62.7509 195.521C59.9354 184.987 59.3187 174.641 60.0159 174.507Z" fill="#6D6C6C"/>
<path opacity="0.25" d="M85.1405 203.44C85.5695 206.827 86.3471 210.614 87.6342 214.667C91.3077 226.187 97.5018 234.4 102.167 239.467C99.3788 241.52 95.9197 243.654 91.7636 245.44C79.1609 250.854 67.3895 250.054 61.0882 249.094C60.8469 247.68 60.6056 246.267 60.3643 244.854C63.0457 244.934 65.888 244.88 68.8643 244.72C79.4827 244.054 88.5995 241.68 95.8661 239.04C93.5601 235.147 91.8976 231.787 90.7446 229.254C87.956 223.2 85.8913 218.64 85.1673 212.48C84.7114 208.72 84.8991 205.547 85.1405 203.44Z" fill="#6D6C6C"/>
<path opacity="0.14" d="M170.384 221.094C170.652 227.174 171.296 232.214 171.859 235.84C173.173 244.16 174.138 249.92 177.57 256.4C179.715 260.427 182.128 263.387 183.871 265.307C180.841 267.894 176.766 270.827 171.537 273.174C158.398 279.12 146.063 277.92 140.298 276.96C140.003 275.654 139.709 274.347 139.414 273.014C140.138 273.067 141.264 273.12 142.631 273.147C147.19 273.254 156.682 273.414 167.568 269.787C170.625 268.774 174.915 267.067 179.742 264.24C177.838 261.707 175.961 258.694 174.326 255.2C167.863 241.414 169.15 228.027 170.384 221.094Z" fill="#6D6C6C"/>
<path opacity="0.18" d="M190.922 161.281C191.458 163.761 192.236 167.547 193.013 172.267C194.461 181.387 194.354 184.694 196.043 190.081C196.928 192.881 198.51 196.854 201.486 201.387C198.993 203.414 195.882 205.521 192.048 207.281C179.499 213.067 167.486 211.441 161.962 210.294C162.016 209.227 162.07 208.161 162.123 207.121C162.82 207.307 163.866 207.547 165.153 207.761C166.843 208.027 173.09 208.934 184.835 206.001C188.079 205.201 192.45 203.921 197.464 201.867C196.499 200.161 195.078 197.494 193.791 194.081C190.037 184.187 190.064 175.601 190.117 171.174C190.144 168.747 190.305 165.361 190.922 161.281Z" fill="#6D6C6C"/>
<path d="M30.6276 172.987C27.973 186.96 30.6544 201.093 33.3358 214.853C33.443 215.36 34.2207 215.147 34.1134 214.64C31.4588 201.04 28.8042 187.04 31.4052 173.2C31.4856 172.72 30.708 172.48 30.6276 172.987Z" fill="#202236"/>
<path d="M31.3773 172.88C35.2117 175.44 39.8505 175.894 44.3821 175.574C49.5572 175.2 54.6787 174.107 59.8002 173.254C60.3097 173.174 60.0952 172.4 59.5857 172.48C54.6787 173.28 49.7717 174.32 44.8111 174.72C40.2795 175.094 35.6407 174.747 31.7795 172.16C31.3505 171.894 30.9482 172.587 31.3773 172.88Z" fill="#202236"/>
<path d="M59.2648 173.813C60.0156 186.56 61.9462 199.573 68.4352 210.773C68.7034 211.226 69.4005 210.826 69.1324 210.373C62.7238 199.28 60.82 186.4 60.0692 173.813C60.0424 173.306 59.238 173.306 59.2648 173.813Z" fill="#202236"/>
<path d="M34.0066 215.067C40.0934 216.827 46.6361 215.761 52.8301 215.254C58.327 214.801 64.2261 214.587 68.9454 211.387C69.3744 211.094 68.9722 210.401 68.5432 210.694C63.7971 213.921 57.8444 214.027 52.3207 214.481C46.3679 214.961 40.0934 215.947 34.2212 214.267C33.7117 214.161 33.4972 214.934 34.0066 215.067Z" fill="#202236"/>
<path d="M44.301 179.387C43.7649 179.147 44.3546 178.64 44.6763 178.56C45.0784 178.454 45.8557 178.4 46.0434 178.854C46.1774 179.2 45.9629 179.654 45.6413 179.787C45.132 180.027 44.5691 179.734 44.2206 179.387C43.8454 179.014 43.2824 179.574 43.6577 179.947C44.3278 180.614 45.4268 180.96 46.2578 180.347C46.9279 179.867 47.1692 178.8 46.6063 178.16C45.9629 177.44 44.5959 177.52 43.8722 178.054C43.2288 178.534 43.0948 179.68 43.9258 180.054C44.3814 180.294 44.7835 179.6 44.301 179.387Z" fill="#202236"/>
<path d="M55.055 215.173C53.1251 224.907 55.189 234.747 57.2798 244.293C57.387 244.8 58.1644 244.587 58.0572 244.08C55.9932 234.693 53.956 224.987 55.8324 215.387C55.9396 214.88 55.1622 214.667 55.055 215.173Z" fill="#202236"/>
<path d="M66.1284 204.96C72.3224 203.787 78.5969 203.36 84.8714 203.6C84.7374 203.467 84.6033 203.334 84.4692 203.2C83.209 216.054 88.7327 228.294 95.4362 238.934C95.7044 239.36 96.4015 238.96 96.1334 238.534C89.5103 228 84.0134 215.92 85.2737 203.2C85.3005 202.987 85.0591 202.8 84.8714 202.8C78.5165 202.56 72.1616 203.014 65.9139 204.187C65.4044 204.294 65.6189 205.067 66.1284 204.96Z" fill="#202236"/>
<path d="M57.7097 244.854C70.7414 246.374 83.9607 244.427 96.0271 239.307C96.5097 239.094 96.0807 238.427 95.6248 238.614C83.7194 243.681 70.5805 245.547 57.7097 244.054C57.2003 244.001 57.2003 244.801 57.7097 244.854Z" fill="#202236"/>
<path d="M71.1691 208.24C71.1691 208.214 71.2495 208.08 71.2495 208.027C71.2763 207.92 71.3567 207.814 71.4371 207.734C71.5979 207.6 71.7856 207.494 72 207.467C72.4021 207.414 72.7774 207.627 72.8846 208.027C72.965 208.347 72.831 208.774 72.4557 208.827C72.1072 208.88 71.7856 208.64 71.732 208.294C71.6516 207.787 70.8742 208 70.9546 208.507C71.0887 209.44 72.2949 209.894 73.0722 209.44C73.93 208.934 73.8764 207.627 73.1526 207.014C72.3485 206.347 71.0082 206.694 70.5526 207.6C70.3381 208.054 70.3381 208.667 70.8474 208.934C71.2495 209.147 71.8392 208.96 71.9464 208.454C72.0268 207.947 71.2495 207.734 71.1691 208.24Z" fill="#202236"/>
<path d="M33.2801 187.494C40.4126 188.481 47.4915 187.014 54.3291 185.068C54.8386 184.934 54.6241 184.161 54.1146 184.294C47.4111 186.188 40.4663 187.681 33.4946 186.721C32.9851 186.641 32.7706 187.414 33.2801 187.494Z" fill="#202236"/>
<path d="M34.6223 192.72C38.3227 193.12 42.023 192.747 45.5893 191.627C46.072 191.467 45.8843 190.694 45.3748 190.854C41.889 191.947 38.2691 192.294 34.6223 191.92C34.1129 191.867 34.1129 192.667 34.6223 192.72Z" fill="#202236"/>
<path d="M34.6223 199.174C41.7013 200 48.8338 199.494 55.6982 197.707C56.2077 197.574 55.9932 196.8 55.4837 196.934C48.6729 198.72 41.6208 199.2 34.6223 198.374C34.1129 198.294 34.1129 199.094 34.6223 199.174Z" fill="#202236"/>
<path d="M61.1151 240.107C68.2208 240.427 75.3266 239.574 82.1373 237.547C82.62 237.414 82.4323 236.64 81.9228 236.774C75.1657 238.774 68.1672 239.627 61.1151 239.307C60.5788 239.28 60.5788 240.08 61.1151 240.107Z" fill="#202236"/>
<path d="M62.4832 234.001C65.6472 233.894 68.8113 233.654 71.9754 233.307C72.4848 233.254 72.4848 232.454 71.9754 232.507C68.8113 232.854 65.6741 233.094 62.4832 233.201C61.9737 233.227 61.9737 234.027 62.4832 234.001Z" fill="#202236"/>
<path d="M65.0564 223.014C67.1479 223.28 69.3199 222.747 71.3845 222.454C73.6637 222.107 75.9161 221.787 78.1953 221.441C78.7048 221.361 78.4903 220.587 77.9808 220.667C75.8893 220.987 73.771 221.307 71.6795 221.601C69.5075 221.921 67.2552 222.507 65.0564 222.214C64.5469 222.134 64.5469 222.934 65.0564 223.014Z" fill="#202236"/>
<path d="M159.818 163.227C156.896 177.494 156.601 192.161 158.933 206.534C159.013 207.041 159.791 206.827 159.71 206.321C157.405 192.107 157.727 177.547 160.595 163.441C160.702 162.934 159.925 162.721 159.818 163.227Z" fill="#202236"/>
<path d="M160.73 163.414C170.463 161.2 180.519 160.747 190.44 162.08C190.949 162.16 191.164 161.387 190.654 161.307C180.599 159.947 170.41 160.4 160.515 162.64C160.033 162.774 160.247 163.547 160.73 163.414Z" fill="#202236"/>
<path d="M190.198 161.361C189.903 175.095 190.091 189.601 197.09 201.895C197.358 202.348 198.028 201.948 197.787 201.495C190.869 189.335 190.708 174.961 191.003 161.361C191.03 160.855 190.225 160.855 190.198 161.361Z" fill="#202236"/>
<path d="M159.549 206.96C162.552 207.867 165.77 207.92 168.88 207.947C172.232 207.973 175.584 207.76 178.936 207.307C185.344 206.453 191.592 204.72 197.571 202.213C198.054 202.027 197.625 201.333 197.169 201.52C191.19 204.027 184.888 205.733 178.453 206.56C175.45 206.933 172.42 207.147 169.39 207.12C166.199 207.12 162.847 207.093 159.79 206.16C159.254 206.053 159.066 206.827 159.549 206.96Z" fill="#202236"/>
<path d="M175.959 164.267C175.048 164.587 174.646 165.627 174.968 166.507C175.343 167.494 176.495 167.734 177.353 167.147C178.184 166.561 178.452 165.387 177.648 164.641C176.951 164.001 175.745 163.974 175.102 164.667C174.753 165.041 175.316 165.601 175.665 165.227C176.469 164.374 178.05 165.574 176.951 166.427C176.522 166.747 175.906 166.747 175.718 166.187C175.584 165.761 175.718 165.174 176.174 165.014C176.656 164.854 176.442 164.081 175.959 164.267Z" fill="#202236"/>
<path d="M160.22 175.628C167.54 175.814 174.833 175.681 182.127 175.201C182.636 175.174 182.636 174.374 182.127 174.401C174.833 174.881 167.513 175.041 160.22 174.828C159.683 174.828 159.683 175.628 160.22 175.628Z" fill="#202236"/>
<path d="M160.944 179.68C163.679 179.787 166.414 179.893 169.122 180C169.632 180.027 169.632 179.227 169.122 179.2C166.387 179.093 163.652 178.987 160.944 178.88C160.408 178.853 160.408 179.653 160.944 179.68Z" fill="#202236"/>
<path d="M160.192 185.333C167.083 185.707 174.055 186.027 180.839 184.533C181.348 184.426 181.133 183.653 180.624 183.76C173.894 185.227 167.002 184.906 160.192 184.533C159.682 184.506 159.682 185.307 160.192 185.333Z" fill="#202236"/>
<path d="M60.2305 272.027C59.614 277.36 59.3995 282.72 59.5872 288.08C59.614 288.587 60.4181 288.587 60.3913 288.08C60.2037 282.72 60.4181 277.36 61.0346 272.027C61.0882 271.52 60.2841 271.52 60.2305 272.027Z" fill="#202236"/>
<path d="M60.4978 272.347C70.0436 272.347 79.6163 272.214 89.1621 271.92C89.6716 271.894 89.6716 271.094 89.1621 271.12C79.6163 271.414 70.0436 271.547 60.4978 271.547C59.9884 271.547 59.9884 272.347 60.4978 272.347Z" fill="#202236"/>
<path d="M89.0822 271.547C89.1626 276.187 89.243 280.8 89.3234 285.44C89.3234 285.947 90.1276 285.947 90.1276 285.44C90.0471 280.8 89.9667 276.187 89.8863 271.547C89.8863 271.04 89.0554 271.04 89.0822 271.547Z" fill="#202236"/>
<path d="M59.5063 287.494C59.56 289.227 62.59 288.454 63.5821 288.401C66.4244 288.214 69.2667 288.027 72.0822 287.814C77.8472 287.414 83.6122 287.041 89.3772 286.641C89.8867 286.614 89.8867 285.814 89.3772 285.841C84.4703 286.161 79.5901 286.507 74.6831 286.827C72.3503 286.987 70.0175 287.147 67.6846 287.307C66.9875 287.361 60.3108 288.001 60.284 287.494C60.3108 286.987 59.5063 286.987 59.5063 287.494Z" fill="#202236"/>
<path d="M62.6708 275.947C69.1062 275.654 75.5415 275.894 81.9233 276.694C82.4328 276.747 82.4328 275.947 81.9233 275.894C75.5415 275.094 69.1062 274.854 62.6708 275.147C62.1345 275.174 62.1345 275.974 62.6708 275.947Z" fill="#202236"/>
<path d="M62.9114 280.001C66.5045 279.734 70.1244 279.441 73.7175 279.174C74.2269 279.148 74.2269 278.348 73.7175 278.374C70.1244 278.641 66.5045 278.934 62.9114 279.201C62.4019 279.228 62.4019 280.028 62.9114 280.001Z" fill="#202236"/>
<path d="M64.1177 284.08C69.2928 283.414 74.9238 282.054 80.1257 282.987C80.6352 283.067 80.8497 282.32 80.3402 282.214C75.0311 281.254 69.4001 282.587 64.1177 283.28C63.6351 283.36 63.6083 284.16 64.1177 284.08Z" fill="#202236"/>
<path d="M133.862 226.64C129.598 241.733 130.134 257.893 135.363 272.693C135.524 273.173 136.302 272.96 136.141 272.48C130.966 257.813 130.429 241.813 134.639 226.853C134.773 226.347 133.996 226.133 133.862 226.64Z" fill="#202236"/>
<path d="M134.397 226.907C146.33 226.853 158.208 225.307 169.765 222.293C170.275 222.16 170.06 221.387 169.551 221.52C158.074 224.507 146.276 226.053 134.397 226.107C133.861 226.107 133.861 226.907 134.397 226.907Z" fill="#202236"/>
<path d="M169.552 221.814C169.069 229.227 169.391 236.694 170.731 244.027C171.402 247.734 172.206 251.441 173.681 254.907C175.156 258.347 177.194 261.467 179.58 264.321C179.902 264.721 180.492 264.161 180.143 263.761C177.703 260.854 175.638 257.627 174.19 254.107C172.823 250.747 172.072 247.147 171.455 243.601C170.168 236.427 169.873 229.094 170.329 221.814C170.383 221.307 169.578 221.307 169.552 221.814Z" fill="#202236"/>
<path d="M135.472 273.12C150.649 274.187 166.496 272.48 179.796 264.693C180.251 264.427 179.849 263.733 179.393 264C166.174 271.733 150.488 273.36 135.472 272.32C134.962 272.267 134.962 273.067 135.472 273.12Z" fill="#202236"/>
<path d="M151.613 229.307C151.157 228.534 152.068 227.574 152.846 228.187C153.677 228.854 152.792 229.92 151.908 229.574C151.425 229.387 151.211 230.16 151.693 230.347C152.417 230.64 153.301 230.32 153.73 229.68C154.213 228.96 153.998 228.054 153.328 227.547C151.881 226.4 150.058 228.187 150.916 229.707C151.184 230.16 151.881 229.76 151.613 229.307Z" fill="#202236"/>
<path d="M134.666 238.507C142.684 238.374 150.701 237.814 158.692 236.854C159.201 236.801 159.201 236.001 158.692 236.054C150.728 237.041 142.711 237.574 134.666 237.707C134.157 237.734 134.157 238.534 134.666 238.507Z" fill="#202236"/>
<path d="M161.561 233.147C161.802 234.374 162.043 235.627 162.285 236.854C162.392 237.361 163.169 237.147 163.062 236.641C162.821 235.414 162.58 234.161 162.338 232.934C162.258 232.427 161.481 232.641 161.561 233.147Z" fill="#202236"/>
<path d="M162.097 233.04C163.572 232.827 165.047 232.614 166.548 232.374C167.058 232.294 166.843 231.52 166.334 231.6C164.859 231.814 163.384 232.027 161.883 232.267C161.373 232.347 161.588 233.12 162.097 233.04Z" fill="#202236"/>
<path d="M166.307 232.134C166.521 233.28 166.709 234.427 166.923 235.547C167.004 236.054 167.781 235.84 167.7 235.334C167.486 234.187 167.298 233.04 167.084 231.92C167.004 231.44 166.226 231.654 166.307 232.134Z" fill="#202236"/>
<path d="M162.956 237.467C164.538 237.147 166.04 236.72 167.541 236.133C168.024 235.947 167.809 235.173 167.327 235.36C165.825 235.92 164.297 236.373 162.742 236.693C162.232 236.8 162.447 237.573 162.956 237.467Z" fill="#202236"/>
<path d="M163.089 233.947C163.384 234.614 163.786 235.147 164.375 235.6C164.59 235.76 164.992 235.76 165.046 235.414C165.26 233.974 165.769 232.694 166.627 231.494C166.922 231.067 166.225 230.667 165.93 231.094C165.046 232.32 164.483 233.707 164.268 235.2C164.483 235.147 164.724 235.094 164.938 235.014C164.429 234.614 164.054 234.134 163.786 233.52C163.571 233.067 162.874 233.467 163.089 233.947Z" fill="#202236"/>
<path d="M163.384 245.388C162.955 247.308 163.143 249.174 163.92 250.961C164.135 251.441 164.805 251.014 164.617 250.561C163.92 248.988 163.786 247.281 164.161 245.601C164.269 245.094 163.491 244.881 163.384 245.388Z" fill="#202236"/>
<path d="M163.92 245.653C165.528 245.387 167.137 245.146 168.746 244.88C168.585 244.72 168.424 244.56 168.263 244.4C167.995 246.106 168.183 247.733 168.853 249.333C169.041 249.813 169.819 249.6 169.631 249.12C169.014 247.68 168.8 246.16 169.041 244.613C169.095 244.293 168.88 244.08 168.558 244.133C166.95 244.373 165.341 244.64 163.732 244.907C163.196 244.96 163.41 245.733 163.92 245.653Z" fill="#202236"/>
<path d="M164.268 250.986C166.038 250.933 167.727 250.586 169.39 250C169.872 249.813 169.658 249.04 169.175 249.226C167.593 249.813 165.958 250.133 164.268 250.186C163.759 250.186 163.759 250.986 164.268 250.986Z" fill="#202236"/>
<path d="M164.51 247.28C164.751 247.973 165.153 248.453 165.797 248.827C166.092 248.987 166.36 248.773 166.413 248.48C166.574 247.067 166.949 245.707 167.539 244.4C167.753 243.947 167.056 243.52 166.842 244C166.199 245.44 165.797 246.933 165.609 248.48C165.823 248.373 166.011 248.24 166.226 248.133C165.77 247.867 165.502 247.547 165.314 247.04C165.127 246.587 164.349 246.8 164.51 247.28Z" fill="#202236"/>
<path d="M165.047 257.76C165.235 259.547 165.717 261.227 166.521 262.827C166.736 263.28 167.433 262.88 167.218 262.427C166.494 260.96 166.039 259.387 165.878 257.76C165.798 257.253 164.993 257.253 165.047 257.76Z" fill="#202236"/>
<path d="M165.423 257.68C167.488 257.867 169.418 257.494 171.269 256.587C171.081 256.507 170.866 256.427 170.679 256.347C171.027 257.974 171.751 259.387 172.877 260.64C173.226 261.014 173.789 260.454 173.44 260.08C172.422 258.934 171.778 257.654 171.456 256.16C171.403 255.894 171.081 255.814 170.866 255.92C169.15 256.747 167.327 257.067 165.423 256.907C164.914 256.854 164.914 257.654 165.423 257.68Z" fill="#202236"/>
<path d="M167.244 263.12C169.336 262.347 171.401 261.52 173.412 260.614C173.894 260.4 173.465 259.707 173.009 259.92C171.052 260.8 169.041 261.6 167.03 262.347C166.547 262.534 166.762 263.307 167.244 263.12Z" fill="#202236"/>
<path d="M166.816 259.093C167.459 259.653 168.934 261.573 169.685 260.16C170.033 259.52 169.953 258.64 170.167 257.92C170.489 256.906 171.026 255.973 171.723 255.173C172.044 254.773 171.481 254.213 171.16 254.613C170.409 255.493 169.819 256.453 169.47 257.573C169.309 258.08 169.175 258.613 169.095 259.146C168.988 259.813 168.8 259.653 168.29 259.333C167.969 259.12 167.674 258.8 167.379 258.533C167.003 258.186 166.44 258.746 166.816 259.093Z" fill="#202236"/>
<path d="M135.391 251.546C142.899 251.466 150.38 250.853 157.781 249.68C158.291 249.6 158.076 248.826 157.567 248.906C150.22 250.053 142.819 250.666 135.391 250.72C134.882 250.746 134.882 251.546 135.391 251.546Z" fill="#202236"/>
<path d="M134.533 240.72C139.387 240.853 144.213 240.693 149.04 240.293C149.549 240.24 149.549 239.44 149.04 239.493C144.213 239.893 139.36 240.027 134.533 239.92C134.024 239.893 134.024 240.693 134.533 240.72Z" fill="#202236"/>
<path d="M135.685 253.12C140.78 253.36 145.875 253.173 150.916 252.533C151.425 252.48 151.425 251.68 150.916 251.733C145.848 252.346 140.753 252.56 135.685 252.32C135.176 252.293 135.176 253.093 135.685 253.12Z" fill="#202236"/>
<path d="M152.632 252.16C154.08 252.187 155.501 252 156.895 251.547C157.378 251.387 157.163 250.614 156.681 250.774C155.367 251.2 154.026 251.387 152.632 251.36C152.122 251.36 152.122 252.16 152.632 252.16Z" fill="#202236"/>
<path d="M138.42 263.147C144.534 262.774 150.621 262.214 156.681 261.387C157.19 261.307 157.19 260.507 156.681 260.587C150.621 261.387 144.534 261.974 138.42 262.347C137.884 262.374 137.884 263.174 138.42 263.147Z" fill="#202236"/>
<path d="M139.118 265.014C141.129 265.014 143.14 265.014 145.151 265.014C145.661 265.014 145.661 264.213 145.151 264.213C143.14 264.213 141.129 264.213 139.118 264.213C138.608 264.213 138.608 265.014 139.118 265.014Z" fill="#202236"/>
<path d="M140.86 266.8C143.997 266.613 147.135 266.32 150.272 265.947C152.793 265.627 155.501 265.493 157.673 264.027C158.102 263.733 157.699 263.04 157.27 263.333C154.991 264.88 151.934 264.96 149.28 265.253C146.491 265.573 143.676 265.813 140.887 266C140.351 266.027 140.324 266.827 140.86 266.8Z" fill="#202236"/>
<path d="M171.482 245.254C176.362 245.014 181.215 244.374 186.015 243.361C185.854 243.281 185.693 243.174 185.533 243.094C187.785 249.761 191.11 255.974 195.373 261.601C195.668 262.001 196.392 261.601 196.07 261.201C191.861 255.654 188.563 249.494 186.31 242.907C186.23 242.694 186.042 242.587 185.827 242.641C181.108 243.654 176.335 244.267 171.509 244.507C170.946 244.481 170.946 245.281 171.482 245.254Z" fill="#202236"/>
<path d="M172.313 267.76C173.037 268.773 173.627 269.84 174.137 270.986C174.19 271.146 174.432 271.226 174.593 271.173C178.534 269.866 182.422 268.426 186.23 266.8C188.161 265.973 190.064 265.12 191.968 264.213C192.88 263.786 193.792 263.333 194.676 262.88C195.213 262.613 195.829 262.453 196.017 261.866C196.071 261.706 195.99 261.493 195.829 261.413C195.588 261.28 195.454 261.28 195.213 261.413C195.052 261.493 194.971 261.706 195.025 261.866C195.025 261.893 195.052 261.92 195.052 261.946C195.186 262.453 195.963 262.24 195.829 261.733C195.829 261.706 195.803 261.68 195.803 261.653C195.749 261.813 195.669 261.946 195.615 262.106C195.561 262.106 195.481 262.106 195.427 262.106C195.374 261.946 195.293 261.813 195.24 261.653C195.079 262.133 193.389 262.64 192.934 262.88C192.183 263.253 191.432 263.6 190.654 263.973C188.858 264.826 187.034 265.626 185.184 266.4C181.645 267.893 178.025 269.226 174.378 270.426C174.539 270.48 174.673 270.56 174.834 270.613C174.351 269.466 173.735 268.4 173.011 267.386C172.716 266.933 172.018 267.333 172.313 267.76Z" fill="#202236"/>
<path d="M176.979 247.333C176.925 246.987 177.568 246.667 177.809 246.907C178.131 247.227 177.595 247.813 177.22 247.68C176.737 247.493 176.523 248.267 177.005 248.453C178.158 248.88 179.284 247.227 178.399 246.347C177.997 245.947 177.381 245.973 176.898 246.213C176.389 246.48 176.121 246.987 176.228 247.547C176.282 248.053 177.059 247.813 176.979 247.333Z" fill="#202236"/>
<path d="M58.1653 226C61.1417 226.053 64.1449 225.92 67.0944 225.52C70.178 225.093 73.2348 224.213 76.3721 224.347C76.8815 224.373 76.8815 223.573 76.3721 223.547C73.503 223.44 70.7143 224.16 67.8988 224.587C64.6811 225.093 61.4098 225.28 58.1385 225.2C57.6558 225.2 57.6558 226 58.1653 226Z" fill="#202236"/>
<path d="M58.595 217.173C63.1534 217.52 67.7118 217.12 72.1361 215.973C72.6456 215.84 72.4311 215.067 71.9216 215.2C67.5509 216.32 63.0998 216.72 58.595 216.373C58.0855 216.347 58.0855 217.147 58.595 217.173Z" fill="#202236"/>
<path d="M161.775 194.72C161.319 197.654 160.944 200.827 162.794 203.387C163.089 203.814 163.786 203.414 163.491 202.987C161.775 200.614 162.15 197.654 162.552 194.934C162.633 194.427 161.856 194.214 161.775 194.72Z" fill="#202236"/>
<path d="M162.017 194.694C168.399 194.934 174.78 194.321 181.001 192.854C180.84 192.774 180.68 192.667 180.519 192.587C181.082 195.334 182.154 197.894 183.656 200.241C183.924 200.667 184.621 200.267 184.353 199.841C182.878 197.547 181.859 195.041 181.296 192.374C181.243 192.161 181.001 192.054 180.814 192.107C174.673 193.547 168.372 194.161 162.044 193.921C161.508 193.867 161.508 194.667 162.017 194.694Z" fill="#202236"/>
<path d="M163.463 203.36C170.381 203.146 177.219 202.133 183.869 200.32C184.378 200.186 184.164 199.413 183.654 199.546C177.058 201.36 170.301 202.373 163.463 202.56C162.927 202.586 162.927 203.386 163.463 203.36Z" fill="#202236"/>
<path d="M258.01 389.626C258.01 392.639 258.01 395.626 258.01 398.639C236.559 407.093 232.188 410.106 232.51 411.199C232.591 411.466 233.154 412.266 244.416 410.959C255.57 409.653 264.607 407.759 270.881 406.213C269.782 400.053 268.656 393.893 267.556 387.733C264.365 388.373 261.174 389.013 258.01 389.626Z" fill="#444762"/>
<path d="M267.636 262.079C267.019 263.226 266.805 264.159 266.751 264.373C262.917 280.586 257.903 290.159 254.631 308.959C248.384 345.173 253.773 386.319 254.283 390.186C255.999 390.933 259.297 392.053 263.507 391.893C267.207 391.733 270.076 390.639 271.712 389.866C271.095 378.053 271.712 363.466 275.814 347.386C280.829 327.679 287.184 321.146 292.895 298.106C297.132 281.039 302.039 261.173 293.565 255.279C287.076 250.693 271.873 254.053 267.636 262.079Z" fill="#EC615B"/>
<path opacity="0.2" d="M282.466 270.586C278.176 290.052 274.18 310.799 270.802 332.746C267.611 353.386 265.224 373.146 263.455 391.919C266.163 391.359 268.844 390.799 271.552 390.239C271.204 381.946 271.579 374.879 272.116 369.466C272.759 362.746 274.395 347.092 280.964 331.466C281.822 329.466 282.922 327.039 284.718 322.479C287.748 314.932 289.947 308.479 290.939 305.439C295.605 290.932 297.938 274.106 298.662 268.559C293.245 269.199 287.855 269.892 282.466 270.586Z" fill="#6D6C6C"/>
<path opacity="0.19" d="M291.313 304.479C280.802 318.106 275.895 330.453 273.428 338.746C271.176 346.293 270.184 352.959 268.897 361.599C267.073 373.866 266.376 384.213 266.081 391.573C267.851 391.146 269.594 390.693 271.363 390.266C271.068 379.946 271.792 371.119 272.677 364.239C273.75 356.079 274.983 346.613 279.274 335.226C280.829 331.093 281.58 329.919 285.119 320.986C287.854 313.999 289.946 308.266 291.313 304.479Z" fill="#6D6C6C"/>
<path d="M315.928 386.56C317.43 390.267 318.958 393.974 320.46 397.707C307.857 405.68 301.904 410.32 302.575 411.68C303.406 413.36 314.293 410.027 335.234 401.733C333.009 394.533 330.783 387.36 328.558 380.16C324.348 382.293 320.138 384.427 315.928 386.56Z" fill="#444762"/>
<path d="M305.578 262.399C312.148 268.373 311.933 276.746 312.764 290.613C312.764 290.613 314.802 324.719 321.64 352.133C323.356 358.986 326.466 369.626 332.231 382.373C331.266 383.6 328.638 386.586 324.026 388.159C319.307 389.759 315.285 388.906 313.783 388.506C305.578 374.586 299.76 362.72 296.006 354.506C278.603 316.586 277.209 296.613 277.209 286.186C277.209 275.466 277.397 262.613 285.414 258.32C291.447 255.093 300.296 257.6 305.578 262.399Z" fill="#EC615B"/>
<path opacity="0.15" d="M286.969 266.48C289.946 277.867 293.163 289.44 296.596 301.173C305.551 331.627 315.285 360.4 325.501 387.387C326.493 386.88 327.7 386.187 328.933 385.253C330.194 384.293 331.186 383.333 331.936 382.48C330.542 379.253 328.612 374.587 326.574 368.853C323.49 360.08 318.476 343.947 315.875 322.453C313.381 301.813 312.121 291.493 312.228 284.987C312.309 279.627 312.791 268.72 305.82 262.853C304.372 261.653 302.95 260.933 301.958 260.507C296.944 262.507 291.957 264.507 286.969 266.48Z" fill="#6D6C6C"/>
<path opacity="0.22" d="M312.551 291.92C311.317 304.32 310.915 320.933 313.918 340.133C316.948 359.44 322.445 375.2 327.406 386.666C328.934 385.413 330.462 384.16 331.991 382.88C330.167 378.586 327.781 372.613 325.395 365.306C320.809 351.253 318.825 340.293 317.109 330.453C315.366 320.373 313.543 307.333 312.551 291.92Z" fill="#6D6C6C"/>
<path d="M187.007 164.987C185.934 165.52 184.46 166.453 183.307 168.053C182.69 168.88 181.939 169.973 181.832 171.52C181.805 172.133 181.725 173.467 182.583 174.347C182.824 174.613 183.468 175.12 186.632 175.013C189.447 174.907 190.868 174.853 191.592 174.107C192.987 172.667 192.477 169.947 191.592 168.32C190.198 165.733 187.463 165.093 187.007 164.987Z" fill="white" stroke="#202236" stroke-width="0.536098" stroke-miterlimit="10"/>
<path d="M203.202 171.68C206.983 175.974 213.043 178.534 224.171 183.094C238.195 188.854 245.22 191.734 253.532 192.747C262.515 193.84 267.315 192.694 268.977 195.6C271.149 199.36 266.055 206.4 260.799 212.294C256.884 211.44 252.835 210.374 248.652 208.987C225.726 201.44 209.155 188.16 198.269 177.12C196.901 177.414 194.568 177.707 191.914 176.907C189.634 176.24 186.417 174.534 186.604 173.174C186.846 171.52 192.664 171.227 193.013 171.2C191.243 170.48 188.696 169.254 185.934 167.254C185.13 166.667 180.518 163.28 181.081 162.214C181.563 161.28 185.746 162.56 189.688 163.76C193.281 164.854 195.775 165.627 198.51 167.494C201.138 169.254 202.666 171.067 203.202 171.68Z" fill="white" stroke="#202236" stroke-width="0.536098" stroke-miterlimit="10"/>
<path d="M184.645 165.281C185.289 166.001 185.423 166.961 185.986 167.707C186.469 168.374 187.166 168.854 187.89 169.254C190.062 170.454 192.368 171.441 194.593 172.534C194.969 172.721 195.451 172.214 195.076 171.894C193.923 170.907 192.69 170.027 191.402 169.227C190.973 168.961 190.544 169.654 191 169.921C192.234 170.694 193.414 171.521 194.513 172.454C194.674 172.241 194.835 172.027 194.996 171.814C192.877 170.801 190.759 169.814 188.667 168.721C187.675 168.214 186.79 167.627 186.281 166.614C185.932 165.921 185.745 165.254 185.208 164.667C184.86 164.347 184.297 164.907 184.645 165.281Z" fill="white"/>
<path d="M186.738 168.08C187.972 168.613 189.152 169.307 190.224 170.133C190.626 170.453 191.19 169.893 190.787 169.573C189.661 168.693 188.454 167.973 187.141 167.387C186.658 167.173 186.256 167.867 186.738 168.08Z" fill="white"/>
<path d="M183.574 164.801C184.593 166.427 185.934 167.761 187.516 168.827C187.945 169.121 188.347 168.427 187.918 168.134C186.443 167.147 185.21 165.894 184.271 164.374C184.003 163.974 183.306 164.374 183.574 164.801Z" fill="white"/>
<path d="M184.781 166.987C185.317 167.707 185.906 168.373 186.577 168.96C187.059 169.387 189.177 170.907 188.078 171.68C187.863 171.813 188.078 172.16 188.292 172.027C189.043 171.52 188.748 170.613 188.292 170C187.944 169.547 187.461 169.2 187.005 168.8C186.309 168.187 185.692 167.52 185.129 166.8C184.968 166.56 184.62 166.773 184.781 166.987Z" fill="#202236"/>
<path d="M184.217 169.76C185.021 170.853 186.549 172.4 188.05 171.947C188.292 171.867 188.184 171.493 187.943 171.573C186.656 171.973 185.236 170.507 184.566 169.573C184.405 169.36 184.056 169.547 184.217 169.76Z" fill="#202236"/>
<path d="M183.038 171.627C183.922 172.827 185.209 173.52 186.71 173.6C186.978 173.627 186.978 173.227 186.71 173.2C185.37 173.12 184.19 172.48 183.386 171.414C183.225 171.2 182.877 171.414 183.038 171.627Z" fill="#202236"/>
<path d="M182.18 174.027C183.44 175.334 185.531 175.36 186.792 174.027C186.979 173.84 186.684 173.547 186.497 173.734C185.397 174.907 183.574 174.88 182.475 173.734C182.287 173.547 181.992 173.84 182.18 174.027Z" fill="#202236"/>
<path d="M182.448 164.746C185.425 166.693 187.57 169.973 191.297 170.613C191.538 170.666 191.672 170.266 191.404 170.24C187.731 169.626 185.586 166.346 182.663 164.426C182.422 164.24 182.234 164.586 182.448 164.746Z" fill="#202236"/>
<path opacity="0.2" d="M182.126 173.467C181.161 172.16 181.965 169.36 184.298 166.72C186.926 168.24 189.527 169.787 192.154 171.307C191.672 171.307 187.435 171.36 187.14 172.667C187.087 172.88 187.14 173.2 187.542 173.653C188.883 174.293 191.136 175.147 194.031 175.227C195.533 175.253 196.847 175.067 197.866 174.827C203.336 180.32 212.962 188.613 227.12 194.64C239.562 199.92 250.716 201.44 258.09 201.867C257.849 205.013 257.608 208.133 257.366 211.28C245.22 208.08 228.756 202 212.399 189.787C206.822 185.627 202.049 181.333 197.973 177.2C194.219 177.813 191.886 177.173 190.412 176.427C189.151 175.787 188.347 174.987 186.684 174.853C185.585 174.773 184.647 175.04 183.44 174.453C183.306 174.4 182.528 174 182.126 173.467Z" fill="#6D6C6C"/>
<path opacity="0.14" d="M216.664 192.293C220.418 194.293 224.762 196.32 229.723 198.053C240.529 201.866 250.316 203.066 257.797 203.333C257.69 206.053 257.609 208.8 257.502 211.52C249.726 209.706 239.966 206.533 229.615 200.773C224.655 198.026 220.364 195.12 216.664 192.293Z" fill="#6D6C6C"/>
<path d="M259.057 199.893C257.528 203.333 257.448 206.187 257.314 211.307C257.207 215.173 257.475 219.333 259.566 230.267C262.114 243.493 263.32 245.627 263.722 252.64C264.044 258.133 263.615 262.64 263.213 265.627C266.592 267.467 272.249 269.973 279.65 270.533C292.735 271.52 302.415 265.787 305.74 263.6C306.142 255.227 306.545 246.827 306.974 238.453C305.499 231.307 303.756 225.707 302.496 222.027C298.527 210.427 294.827 204.933 297.186 199.12C298.5 195.893 301.101 193.92 302.898 192.827C301.638 191.867 288.418 182.133 273.992 187.173C272.491 187.68 262.998 191.013 259.057 199.893Z" fill="white" stroke="#202236" stroke-width="0.536098" stroke-miterlimit="10"/>
<path opacity="0.19" d="M273.937 187.147C277.959 193.547 280.212 199.201 281.499 203.147C281.499 203.147 287.8 222.187 283.188 247.734C282.196 253.174 280.426 260.907 276.94 269.761C278.281 270.054 279.89 270.294 281.713 270.374C281.713 270.374 284.529 270.507 287.693 270.107C291.554 269.601 298.177 267.547 305.98 263.601C306.114 254.667 306.248 245.761 306.382 236.827C304.398 229.281 302.387 223.227 300.885 218.987C297.265 208.881 294.718 204.134 296.809 199.121C298.177 195.841 300.966 193.814 303.138 192.641C300.295 190.774 295.04 187.867 287.854 186.747C281.928 185.841 277.047 186.481 273.937 187.147Z" fill="#6D6C6C"/>
<path opacity="0.11" d="M277.61 186.534C281.927 191.814 286.968 199.521 290.079 209.681C298.901 238.694 284.394 264.134 281.043 269.708C283.858 269.681 287.156 269.441 290.749 268.748C297.158 267.521 302.279 265.334 305.953 263.388C306.087 255.068 306.221 246.748 306.355 238.454C304.076 230.748 301.931 223.441 299.008 213.521C297.024 206.721 295.469 201.148 298.391 196.694C299.812 194.534 301.797 193.334 303.298 192.641C294.745 190.588 286.164 188.561 277.61 186.534Z" fill="#6D6C6C"/>
<path d="M275.628 241.013C275.547 235.307 275.494 229.627 275.413 223.92C289.169 223.227 302.924 222.533 316.707 221.84C317.189 227.12 317.672 232.4 318.182 237.68C303.997 238.8 289.812 239.893 275.628 241.013Z" fill="white" stroke="#202236" stroke-width="0.536098" stroke-miterlimit="10"/>
<path d="M271.443 239.147C271.443 237.067 271.443 234.987 271.443 232.907C289.113 231.6 306.784 230.267 324.454 228.96C324.588 231.52 324.722 234.107 324.883 236.667C307.079 237.467 289.247 238.32 271.443 239.147Z" fill="white" stroke="#202236" stroke-width="0.536098" stroke-miterlimit="10"/>
<path d="M272.917 229.76C273.132 232.827 273.346 235.867 273.534 238.933C289.891 237.627 306.221 236.293 322.577 234.987C322.711 232.213 322.845 229.44 323.006 226.64C306.301 227.68 289.596 228.72 272.917 229.76Z" fill="white" stroke="#202236" stroke-width="0.536098" stroke-miterlimit="10"/>
<path d="M268.923 236.64C269.406 248.8 269.888 260.96 270.398 273.12C288.631 271.093 306.865 269.093 325.098 267.067C325.661 255.12 326.225 243.173 326.788 231.227C307.482 233.04 288.202 234.827 268.923 236.64Z" fill="white" stroke="#202236" stroke-width="0.536098" stroke-miterlimit="10"/>
<path d="M272.031 241.387C280.317 240.293 288.602 239.52 296.941 239.04C297.317 239.013 297.317 238.427 296.941 238.427C288.602 238.907 280.29 239.68 272.031 240.773C271.656 240.827 271.656 241.44 272.031 241.387Z" fill="#202236"/>
<path d="M281.285 243.013C287.64 242.213 293.995 241.386 300.377 240.586C300.752 240.533 300.752 239.946 300.377 239.973C294.022 240.773 287.667 241.599 281.285 242.399C280.91 242.479 280.91 243.066 281.285 243.013Z" fill="#202236"/>
<path d="M311.826 260.079C311.718 261.759 311.718 263.466 311.879 265.146C311.906 265.519 312.523 265.519 312.496 265.146C312.335 263.466 312.308 261.759 312.442 260.079C312.469 259.706 311.853 259.706 311.826 260.079Z" fill="#202236"/>
<path d="M312.094 260.133C315.419 260.213 318.717 260.027 322.015 259.6C321.908 259.493 321.801 259.387 321.72 259.307C321.666 260.853 321.72 262.373 321.827 263.893C321.854 264.267 322.471 264.267 322.444 263.893C322.31 262.373 322.283 260.827 322.337 259.307C322.337 259.147 322.203 258.987 322.042 259.013C318.744 259.44 315.446 259.6 312.121 259.547C311.692 259.52 311.692 260.107 312.094 260.133Z" fill="#202236"/>
<path d="M312.334 265.627C315.632 265.68 318.877 265.333 322.095 264.613C322.47 264.533 322.309 263.947 321.934 264.027C318.77 264.72 315.579 265.067 312.334 265.013C311.959 265.013 311.959 265.6 312.334 265.627Z" fill="#202236"/>
<path d="M313.596 262.001C315.633 262.134 317.644 262.027 319.682 261.707C320.058 261.654 319.897 261.066 319.521 261.12C317.564 261.44 315.58 261.52 313.596 261.387C313.22 261.36 313.22 261.974 313.596 262.001Z" fill="#202236"/>
<path d="M314.883 263.68C317.001 263.627 319.039 263.227 321.05 262.507C321.399 262.374 321.265 261.787 320.889 261.92C318.959 262.64 316.948 263.014 314.883 263.094C314.508 263.067 314.481 263.68 314.883 263.68Z" fill="#202236"/>
<path opacity="0.2" d="M277.583 271.733C278.066 260.479 278.548 249.226 279.004 237.946C294.664 236.693 310.35 235.466 326.009 234.213C325.661 244.879 325.285 255.546 324.937 266.213C309.143 268.053 293.377 269.893 277.583 271.733Z" fill="#6D6C6C"/>
<path opacity="0.2" d="M320.111 226.933C320.191 230.027 320.03 233.707 319.226 237.787C317.242 247.813 312.469 255.04 309.224 259.12C311.423 262.027 313.622 264.933 315.847 267.84C309.117 268.613 302.387 269.387 295.656 270.16C296.729 257.947 297.801 245.733 298.874 233.547C298.525 231.947 298.15 230.347 297.801 228.747C305.229 228.107 312.683 227.52 320.111 226.933Z" fill="#6D6C6C"/>
<path d="M301.449 192.106C307.053 191.359 313.73 204.159 316.384 213.359C319.441 223.946 318.1 233.093 317.001 237.919C314.856 247.386 310.405 254.053 307.616 257.653C308.045 259.066 309.037 262.906 307.402 267.119C304.988 273.279 298.446 276.239 297.936 275.679C297.775 275.493 298.097 274.719 300.644 271.813C300.108 272.373 296.247 276.186 291.903 275.279C291.152 275.119 290.214 274.933 289.678 274.186C288.417 272.373 290.509 268.266 294.96 263.706C290.107 264.906 288.819 264.586 288.578 264.053C287.961 262.773 292.922 259.146 294.719 257.813C297.373 255.866 299.76 254.533 301.395 253.706C305.981 244.239 305.739 236.853 305.337 233.386C304.747 228.266 302.816 222.693 302.441 221.626C301.368 218.559 300.859 217.866 298.714 212.346C295.255 203.493 295.255 201.973 295.389 200.799C295.872 197.279 298.258 192.533 301.449 192.106Z" fill="white" stroke="#202236" stroke-width="0.536098" stroke-miterlimit="10"/>
<path d="M289.785 273.439C292.762 271.759 295.363 269.599 297.535 266.986C297.856 266.586 297.293 266.026 296.972 266.426C294.853 268.986 292.306 271.119 289.383 272.773C288.927 272.986 289.33 273.679 289.785 273.439Z" fill="#202236"/>
<path d="M292.411 275.226C295.36 273.706 297.881 271.599 299.919 268.986C300.241 268.586 299.543 268.186 299.222 268.586C297.291 271.092 294.824 273.092 292.009 274.532C291.553 274.772 291.955 275.466 292.411 275.226Z" fill="#202236"/>
<path opacity="0.17" d="M299.196 193.386C293.86 198 315.633 218.24 311.906 241.226C309.358 256.986 298.794 267.28 298.794 267.28C295.844 270.213 290.293 273.813 290.964 275.066C291.446 275.973 294.798 275.146 296.005 274.773C298.284 274.08 299.866 272.906 300.751 272.133C299.41 273.626 297.882 275.466 298.204 275.84C298.659 276.32 302.467 274.346 304.854 271.573C308.983 266.773 308.393 260.106 307.991 257.386C308.956 256.133 310.216 254.373 311.503 252.133C312.683 250.133 316.089 243.893 317.563 235.413C320.164 220.4 314.828 208.56 312.683 203.92C310.753 199.786 307.481 192.933 302.521 192.64C301.877 192.56 300.242 192.48 299.196 193.386Z" fill="#6D6C6C"/>
<path opacity="0.22" d="M317.269 234.986C315.821 239.172 314.105 243.572 312.067 248.186C310.619 251.466 309.145 254.532 307.643 257.439C306.892 259.839 305.471 263.439 302.656 267.146C299.706 271.039 296.461 273.412 294.29 274.772C294.906 274.799 295.657 274.746 296.488 274.532C298.58 274.052 299.974 272.906 300.671 272.212C299.867 273.226 299.036 274.212 298.231 275.226C298.875 275.119 299.894 274.932 301.02 274.426C306.919 271.786 308.152 264.612 308.233 264.132C308.447 262.826 308.581 260.586 307.777 257.812C309.708 255.546 312.148 252.159 314.105 247.599C316.277 242.586 317.001 238.079 317.269 234.986Z" fill="#6D6C6C"/>
<path d="M252.89 174.561C248.573 179.467 251.549 186.321 251.951 187.254C253.453 190.721 257.341 195.654 262.275 195.254C265.868 194.934 268.147 191.921 268.71 191.121C272.678 185.441 271.365 174.587 264.661 171.787C260.961 170.241 255.866 171.147 252.89 174.561Z" fill="#202236"/>
<path d="M263.776 178.933C263.964 181.04 266.189 181.493 267.691 184.96C268.763 187.466 268.763 189.92 268.576 191.68C270.318 191.84 273.536 191.92 277.183 190.533C280.052 189.44 282.063 187.866 283.27 186.773C282.707 185.52 281.875 183.68 280.883 181.493C276.593 172.186 275.896 171.386 274.85 170.986C270.667 169.413 263.427 175.013 263.776 178.933Z" fill="white" stroke="#202236" stroke-width="0.536098" stroke-miterlimit="10"/>
<path d="M248.33 151.387C247.418 152.667 246.855 154.24 246.775 160.987C246.721 166.747 247.043 172 247.579 176.667C248.786 175.974 249.993 175.28 251.199 174.587C251.735 175.894 252.647 177.68 254.202 179.414C257.286 182.854 261.04 184.027 262.702 184.454C264.445 184.027 268.789 182.694 272.087 178.614C274.259 175.894 274.956 173.2 275.117 172.587C276.109 168.56 275.144 165.227 274.635 163.84C275.278 163.547 276.27 162.987 277.021 161.974C278.603 159.84 279.032 156.027 277.075 154.747C275.627 153.787 273.053 154.347 271.122 156.32C270.693 155.334 270.023 153.974 268.95 152.56C268.682 152.214 266.671 149.6 264.204 148.24C259.458 145.52 251.601 146.8 248.33 151.387Z" fill="white" stroke="#202236" stroke-width="0.536098" stroke-miterlimit="10"/>
<path d="M246.372 159.76C245.299 159.574 243.315 159.014 242.377 157.387C240.768 154.64 243.127 150.454 243.717 149.414C244.2 148.534 245.487 146.427 250.957 142.614C255.113 139.707 257.205 138.267 259.457 137.574C267.448 135.2 274.768 139.307 276.135 140.08C279.005 141.707 280.828 143.467 282.276 144.854C284.501 146.987 286.995 149.44 289.784 152.267C296.943 161.494 299.464 169.92 300.483 174.96C301.636 180.667 302.815 186.48 299.383 189.894C295.951 193.307 289.677 192.614 285.842 190.987C280.506 188.72 278.227 183.92 276.457 180.214C273.454 173.867 273.266 167.787 273.561 163.84C276.243 163.067 277.61 160.56 276.993 158.667C276.511 157.174 274.714 155.68 272.864 156.214C271.443 156.614 270.424 158.08 270.504 159.787C269.217 159.76 265.785 159.467 262.514 157.014C260.127 155.227 258.921 153.094 258.358 151.92C256.883 152.107 253.933 152.64 250.957 154.774C248.463 156.48 247.069 158.534 246.372 159.76Z" fill="#202236"/>
<path opacity="0.24" d="M264.124 164.853C267.342 168.72 268.36 172.8 268.36 172.8C269.406 177.387 267.905 181.28 267.234 182.853C268.924 181.573 270.64 180.293 272.329 179.013C273.509 182.907 274.662 186.773 275.842 190.667C276.726 190.587 278.55 190.267 280.373 188.987C281.767 188 282.599 186.853 283.055 186.133C280.883 184.133 276.726 179.707 274.823 172.747C273.911 169.387 273.777 166.4 273.884 164.16C276.324 163.173 277.585 160.8 277.075 158.827C276.7 157.387 275.225 155.653 273.321 155.92C271.739 156.16 270.425 157.707 270.452 159.6C269.245 159.6 266.403 159.467 263.427 157.68C260.343 155.84 258.868 153.28 258.305 152.187C258.439 157.307 260.021 160.267 261.442 162.027C262.381 163.227 262.81 163.28 264.124 164.853Z" fill="#6D6C6C"/>
<path d="M251.656 163.734C251.361 164.801 251.388 165.894 251.79 166.934C251.924 167.307 252.433 167.334 252.567 166.934C252.889 165.974 252.889 164.961 252.594 164.001C252.433 163.521 251.656 163.707 251.817 164.214C252.085 165.067 252.058 165.894 251.79 166.747C252.058 166.747 252.299 166.747 252.567 166.747C252.219 165.841 252.165 164.907 252.433 163.974C252.567 163.441 251.817 163.227 251.656 163.734Z" fill="#202236"/>
<path d="M250.689 162.081C251.386 161.654 252.244 161.734 252.833 162.294C253.209 162.641 253.771 162.081 253.396 161.734C252.565 160.934 251.279 160.774 250.287 161.387C249.858 161.654 250.26 162.347 250.689 162.081Z" fill="#202236"/>
<path d="M253.587 168.855C254.096 168.855 254.096 168.054 253.587 168.054C253.051 168.054 253.051 168.855 253.587 168.855Z" fill="#202236"/>
<path d="M255.356 166.534C255.356 166.561 255.356 166.588 255.356 166.614C255.356 166.828 255.544 167.015 255.758 167.015C255.972 167.015 256.16 166.828 256.16 166.614C256.16 166.588 256.16 166.561 256.16 166.534C256.16 166.321 255.972 166.134 255.758 166.134C255.544 166.134 255.356 166.294 255.356 166.534Z" fill="#202236"/>
<path d="M255.435 168.534C255.944 168.534 255.944 167.734 255.435 167.734C254.925 167.734 254.925 168.534 255.435 168.534Z" fill="#202236"/>
<path d="M244.389 164.96C244.067 166.027 244.094 167.12 244.469 168.16C244.603 168.534 245.112 168.534 245.246 168.16C245.568 167.2 245.595 166.187 245.327 165.227C245.193 164.72 244.416 164.934 244.55 165.44C244.791 166.294 244.764 167.12 244.469 167.947C244.737 167.947 244.978 167.947 245.246 167.947C244.925 167.04 244.871 166.107 245.166 165.174C245.3 164.667 244.523 164.454 244.389 164.96Z" fill="#202236"/>
<path d="M243.933 162.961C244.496 162.667 245.273 162.801 245.649 163.334C245.943 163.734 246.64 163.334 246.346 162.934C245.675 162.054 244.523 161.761 243.531 162.267C243.075 162.507 243.477 163.201 243.933 162.961Z" fill="#202236"/>
<path d="M252.969 177.467C255.034 177.094 256.831 176 258.171 174.374C258.413 174.08 257.983 173.654 257.742 173.947C256.482 175.494 254.793 176.507 252.808 176.88C252.433 176.96 252.594 177.547 252.969 177.467Z" fill="#202236"/>
<path d="M257.152 174C257.635 174.16 258.037 174.4 258.385 174.747C258.653 175.014 259.082 174.587 258.814 174.32C258.385 173.894 257.876 173.6 257.313 173.414C256.938 173.307 256.777 173.894 257.152 174Z" fill="#202236"/>
<path opacity="0.08" d="M273.857 139.121C277.263 143.814 281.634 150.454 285.79 158.934C290.187 167.894 293.405 174.641 290.911 177.307C287.613 180.854 276.217 175.227 274.394 174.294C274.769 176.721 275.708 180.587 278.469 184.454C279.864 186.401 282.304 189.841 286.809 191.441C289.517 192.401 291.93 192.347 292.869 192.267C294.129 192.187 295.577 192.081 297.159 191.227C297.159 191.227 299.224 190.134 300.618 187.894C302.736 184.481 301.61 179.867 300.108 174.081C298.312 167.147 295.899 162.534 293.539 157.974C292.949 156.854 292.252 155.547 291.126 154.027C289.999 152.481 289.168 151.654 285.682 148.321C280.507 143.334 279.703 142.614 278.148 141.574C276.432 140.401 274.903 139.627 273.857 139.121Z" fill="white"/>
<path opacity="0.08" d="M267.395 184.48C267.61 185.094 268.093 186.827 267.395 188.747C266.35 191.6 263.454 192.56 262.998 192.694C259.7 193.76 255.544 192.08 252.755 188.427C253.13 189.387 253.962 191.094 255.678 192.587C256.536 193.334 258.868 195.334 262.167 195.094C262.73 195.04 266.35 194.774 268.012 191.654C269.219 189.44 268.951 186.667 267.395 184.48Z" fill="white"/>
</g>
<defs>
<clipPath id="clip0_889_13588">
<rect width="375" height="386" fill="white" transform="translate(0 54)"/>
</clipPath>
</defs>
</svg>
