<svg width="375" height="448" viewBox="0 0 375 448" fill="none" xmlns="http://www.w3.org/2000/svg">
<path d="M375 200.523C375 200.523 306.42 249 179 249C51.5801 249 0 220.523 0 220.523L0 0L375 0L375 200.523Z" fill="#5964D1"/>
<path d="M88.3714 331.193C112.842 331.193 137.312 331.193 161.783 331.193C186.173 331.193 210.563 331.193 234.927 331.193C248.712 331.193 262.523 331.193 276.308 331.193C276.815 331.193 276.815 330.391 276.308 330.391C251.837 330.391 227.367 330.391 202.896 330.391C178.506 330.391 154.116 330.391 129.752 330.391C115.967 330.391 102.156 330.391 88.3714 330.391C87.8638 330.391 87.8638 331.193 88.3714 331.193Z" fill="#E8E8E8"/>
<path d="M281.25 314.591C281.036 322.277 281.811 329.964 283.574 337.464C283.681 337.971 284.456 337.758 284.349 337.251C282.612 329.831 281.838 322.224 282.078 314.591C282.051 314.083 281.25 314.083 281.25 314.591Z" fill="#E8E8E8"/>
<path d="M313.067 315.204C313.815 322.304 313.361 329.484 311.732 336.423C311.625 336.93 312.373 337.144 312.506 336.637C314.163 329.617 314.643 322.384 313.869 315.204C313.815 314.697 313.014 314.697 313.067 315.204Z" fill="#E8E8E8"/>
<path d="M283.894 338.212C293.137 340.56 302.915 340.24 311.971 337.251C312.452 337.091 312.238 336.317 311.757 336.477C302.808 339.413 293.218 339.76 284.108 337.438C283.6 337.331 283.387 338.105 283.894 338.212Z" fill="#E8E8E8"/>
<path d="M281.625 314.964C292.017 317.179 302.783 317.126 313.148 314.831C313.655 314.724 313.442 313.95 312.934 314.057C302.702 316.325 292.07 316.352 281.838 314.19C281.331 314.083 281.117 314.857 281.625 314.964Z" fill="#E8E8E8"/>
<path d="M287.955 315.258C286.565 312.135 287.821 308.318 288.863 305.249C289.931 302.073 291.454 299.057 293.324 296.281C293.11 296.308 292.897 296.334 292.683 296.361C293.297 297.055 293.965 297.536 294.794 297.936C295.114 298.069 295.461 297.856 295.381 297.482C295.061 296.041 294.5 294.626 295.141 293.185C295.595 292.171 296.236 291.157 296.77 290.196C296.583 290.249 296.396 290.302 296.209 290.329C296.77 290.676 297.331 290.996 297.892 291.343C298.266 291.584 298.587 291.13 298.453 290.783C297.892 289.555 297.518 288.327 298.293 287.1C298.747 286.352 299.335 285.685 299.843 284.991C300.965 283.496 302.14 282.002 303.315 280.534C305.559 277.731 307.884 275.009 310.288 272.34C310.074 272.313 309.86 272.286 309.647 272.26C313.066 276.744 315.23 282.108 315.818 287.713C316.112 290.409 316.032 293.185 315.551 295.854C315.31 297.215 314.963 298.55 314.536 299.858C314.455 300.125 314.349 300.391 314.268 300.632C313.975 301.379 313.494 301.699 312.719 301.859C312.185 301.966 311.891 301.886 311.437 302.233C311.223 302.393 311.169 302.66 311.356 302.874C311.944 303.487 312.185 303.594 311.971 304.422C311.837 304.955 311.517 305.516 311.276 306.05C310.795 307.117 310.261 308.158 309.7 309.173C308.551 311.254 307.242 313.229 305.773 315.098C305.453 315.498 306.014 316.059 306.334 315.658C309.166 312.028 311.41 308.052 313.093 303.781C313.146 303.648 313.093 303.487 312.986 303.381C312.639 303.034 312.291 302.66 311.917 302.313C311.891 302.527 311.864 302.74 311.837 302.954C312.452 302.527 313.146 302.82 313.787 302.553C314.295 302.366 314.562 301.993 314.776 301.512C315.364 300.258 315.738 298.817 316.058 297.482C316.726 294.546 316.94 291.53 316.726 288.541C316.272 282.509 314.055 276.664 310.368 271.859C310.234 271.673 309.941 271.566 309.727 271.779C306.762 275.062 303.903 278.452 301.178 281.922C299.949 283.47 298.64 285.018 297.572 286.699C296.61 288.221 297.064 289.662 297.732 291.21C297.919 291.023 298.106 290.836 298.293 290.649C297.732 290.302 297.171 289.982 296.61 289.635C296.423 289.528 296.156 289.582 296.049 289.769C295.381 290.996 294.339 292.358 293.965 293.719C293.645 294.92 294.313 296.495 294.58 297.669C294.767 297.509 294.981 297.375 295.168 297.215C294.393 296.868 293.778 296.415 293.217 295.774C293.03 295.56 292.71 295.641 292.576 295.854C290.492 298.95 288.863 302.34 287.741 305.916C286.779 309.012 285.844 312.536 287.207 315.632C287.474 316.112 288.168 315.712 287.955 315.258Z" fill="#E8E8E8"/>
<path d="M309.7 278.398C308.632 290.489 300.35 300.178 296.904 311.548C296.744 312.055 297.518 312.242 297.679 311.761C301.125 300.311 309.433 290.596 310.502 278.398C310.555 277.865 309.727 277.891 309.7 278.398Z" fill="#E8E8E8"/>
<path d="M299.603 284.83C300.458 289.234 301.446 293.585 302.568 297.909C302.702 298.416 303.477 298.202 303.343 297.695C302.221 293.371 301.233 288.994 300.378 284.617C300.298 284.11 299.523 284.323 299.603 284.83Z" fill="#E8E8E8"/>
<path d="M308.632 287.66C310.956 285.979 312.96 283.977 314.696 281.655C315.017 281.254 314.322 280.854 314.002 281.254C312.372 283.443 310.449 285.365 308.231 286.966C307.831 287.287 308.231 287.98 308.632 287.66Z" fill="#E8E8E8"/>
<path d="M306.147 276.236C306.869 278.531 307.296 281.334 309.059 283.069C309.433 283.442 309.994 282.855 309.62 282.508C307.991 280.88 307.563 278.131 306.895 276.022C306.762 275.542 305.987 275.755 306.147 276.236Z" fill="#E8E8E8"/>
<path d="M286.352 315.044C284.723 313.763 283.734 311.975 282.906 310.106C281.971 307.918 281.17 305.676 280.448 303.407C279.086 299.056 278.097 294.572 277.51 290.062C276.307 280.613 277.269 271.058 276.121 261.583C275.88 261.663 275.613 261.717 275.372 261.797C278.365 268.523 285.364 272.553 291.187 276.556C291.134 276.37 291.081 276.183 291.054 275.996C290.252 277.144 289.451 278.291 288.65 279.439C288.463 279.706 288.703 280.053 288.997 280.053C290.039 280.053 290.947 279.919 291.935 279.572C291.775 279.519 291.642 279.439 291.481 279.386C292.47 280.907 293.458 282.428 294.447 283.95C294.473 283.79 294.5 283.629 294.5 283.469C294.019 283.923 293.618 284.43 293.218 284.991C293.084 285.177 293.218 285.551 293.458 285.578C295.649 285.898 296.424 287.98 296.985 289.848C297.145 290.329 297.92 290.142 297.759 289.635C297.091 287.526 296.13 285.151 293.672 284.804C293.752 284.991 293.832 285.204 293.912 285.391C294.26 284.857 294.607 284.484 295.061 284.056C295.195 283.95 295.221 283.709 295.114 283.576C294.126 282.055 293.138 280.533 292.149 279.012C292.069 278.879 291.882 278.772 291.695 278.825C290.787 279.119 289.905 279.279 288.97 279.252C289.077 279.466 289.211 279.653 289.317 279.866C290.119 278.718 290.92 277.571 291.722 276.423C291.855 276.236 291.748 275.996 291.588 275.863C285.871 271.939 279.006 268.016 276.067 261.396C275.907 261.049 275.266 261.21 275.319 261.61C276.495 271.432 275.453 281.361 276.842 291.156C277.51 295.88 278.605 300.524 280.128 305.035C281.357 308.692 282.639 313.149 285.764 315.631C286.192 315.925 286.753 315.364 286.352 315.044Z" fill="#E8E8E8"/>
<path d="M275.533 262.385C277.697 268.363 279.513 274.662 282.425 280.347C283.868 283.15 285.444 285.899 286.806 288.755C288.276 291.851 289.585 295 290.92 298.123C291.107 298.603 291.802 298.176 291.615 297.723C290.359 294.733 289.077 291.744 287.715 288.808C286.379 285.925 284.829 283.176 283.333 280.374C280.341 274.662 278.498 268.256 276.281 262.198C276.121 261.691 275.346 261.904 275.533 262.385Z" fill="#E8E8E8"/>
<path d="M276.548 282.669C279.433 283.016 282.586 283.176 284.776 285.338C285.15 285.712 285.711 285.124 285.337 284.777C282.986 282.482 279.647 282.268 276.548 281.895C276.041 281.815 276.041 282.615 276.548 282.669Z" fill="#E8E8E8"/>
<path d="M284.268 271.86C283.787 273.594 283.467 275.383 283.333 277.198C283.226 278.746 283.039 280.561 283.573 282.055C283.734 282.536 284.508 282.322 284.348 281.842C283.841 280.427 284.028 278.666 284.134 277.171C284.268 275.436 284.589 273.728 285.043 272.046C285.176 271.566 284.402 271.352 284.268 271.86Z" fill="#E8E8E8"/>
<path d="M278.365 297.215C280.448 297.268 282.452 297.295 284.482 297.855C286.486 298.416 288.463 299.003 290.466 299.59C290.974 299.724 291.188 298.95 290.68 298.816C288.543 298.202 286.432 297.535 284.268 296.975C282.318 296.467 280.368 296.494 278.365 296.441C277.857 296.387 277.857 297.188 278.365 297.215Z" fill="#E8E8E8"/>
<path d="M307.59 314.297C309.38 314.057 311.143 314.057 312.933 314.297C312.853 314.11 312.773 313.897 312.693 313.71C312.533 313.95 310.93 313.977 310.609 314.003C309.888 314.11 309.14 314.217 308.419 314.377C308.312 314.404 307.59 314.484 307.564 314.564C307.617 314.43 308.686 314.457 308.846 314.457C309.621 314.457 310.395 314.537 311.17 314.591C311.17 314.324 311.17 314.057 311.17 313.79C310.502 313.763 309.915 313.843 309.247 314.03C308.819 314.137 308.899 314.804 309.354 314.804C310.395 314.804 311.33 314.591 312.346 314.324C312.853 314.19 312.639 313.416 312.132 313.55C311.224 313.79 310.315 314.003 309.354 314.003C309.38 314.27 309.434 314.537 309.46 314.777C310.021 314.617 310.582 314.564 311.17 314.564C311.678 314.564 311.678 313.79 311.17 313.763C309.995 313.71 308.285 313.283 307.216 313.95C306.789 314.217 306.175 314.911 306.736 315.338C306.976 315.525 307.243 315.418 307.537 315.391C308.338 315.231 309.113 315.044 309.915 314.911C310.85 314.751 312.72 314.991 313.361 314.11C313.494 313.923 313.361 313.55 313.12 313.523C311.25 313.256 309.434 313.256 307.564 313.496C307.083 313.55 307.083 314.35 307.59 314.297Z" fill="#E8E8E8"/>
<path d="M281.971 314.805C282.345 314.698 282.719 314.618 283.093 314.591C283.28 314.591 283.44 314.565 283.627 314.591C283.707 314.591 284.081 314.565 284.108 314.591C284.081 314.458 284.028 314.324 284.001 314.191C284.001 314.217 283.974 314.244 283.974 314.244C284.135 314.164 284.295 314.057 284.455 313.977C284.429 313.977 284.402 313.977 284.402 313.977C284.482 314.057 284.589 314.164 284.669 314.244C284.669 314.217 284.669 314.191 284.642 314.191C284.509 313.683 283.761 313.897 283.868 314.404C283.868 314.431 283.868 314.458 283.894 314.458C283.921 314.591 284.055 314.698 284.161 314.725C284.188 314.725 284.215 314.725 284.215 314.725C284.429 314.778 284.616 314.671 284.696 314.458C284.696 314.431 284.722 314.404 284.722 314.404C284.776 314.271 284.722 314.11 284.616 314.004C284.322 313.71 283.681 313.763 283.307 313.763C282.772 313.763 282.211 313.87 281.704 314.004C281.276 314.164 281.49 314.939 281.971 314.805Z" fill="#E8E8E8"/>
<path d="M282.585 320.169C292.336 321.851 302.461 322.651 312.078 319.769C312.559 319.609 312.372 318.861 311.864 318.995C302.407 321.824 292.416 321.05 282.799 319.395C282.291 319.315 282.078 320.089 282.585 320.169Z" fill="#E8E8E8"/>
<path d="M316.166 331.139C333.29 331.139 350.441 331.139 367.565 331.139C368.072 331.139 368.072 330.338 367.565 330.338C350.441 330.338 333.29 330.338 316.166 330.338C315.632 330.338 315.632 331.139 316.166 331.139Z" fill="#E8E8E8"/>
<path d="M303.209 348.301C319.345 348.301 335.507 348.301 351.643 348.301C352.15 348.301 352.15 347.5 351.643 347.5C335.507 347.5 319.345 347.5 303.209 347.5C302.702 347.5 302.702 348.301 303.209 348.301Z" fill="#E8E8E8"/>
<path d="M310.557 348.22C308.633 349.822 306.71 351.397 304.813 352.998C304.412 353.318 304.973 353.879 305.374 353.559C307.298 351.957 309.221 350.382 311.118 348.781C311.518 348.461 310.931 347.873 310.557 348.22Z" fill="#E8E8E8"/>
<path d="M305.053 353.853C305.56 353.853 305.56 353.052 305.053 353.052C304.545 353.052 304.545 353.853 305.053 353.853Z" fill="#E8E8E8"/>
<path d="M313.2 353.052C296.931 353.052 280.662 353.052 264.393 353.052C263.885 353.052 263.885 353.853 264.393 353.853C280.662 353.853 296.931 353.853 313.2 353.853C313.708 353.853 313.708 353.052 313.2 353.052Z" fill="#E8E8E8"/>
<path d="M264.313 361.326C267.198 358.924 270.163 356.628 273.209 354.413C273.609 354.119 273.235 353.425 272.808 353.719C269.709 355.961 266.69 358.31 263.752 360.739C263.351 361.085 263.912 361.646 264.313 361.326Z" fill="#E8E8E8"/>
<path d="M21.1043 346.753C39.9647 346.753 58.8252 346.753 77.6856 346.753C83.0285 346.753 88.3714 346.753 93.7143 346.753C94.2218 346.753 94.2218 345.952 93.7143 345.952C74.8538 345.952 55.9934 345.952 37.133 345.952C31.7901 345.952 26.4472 345.952 21.1043 345.952C20.5967 345.952 20.5967 346.753 21.1043 346.753Z" fill="#E8E8E8"/>
<path d="M30.9615 353.719C33.4993 351.557 36.0639 349.395 38.6018 347.233C39.0025 346.886 38.4148 346.326 38.0408 346.673C35.5029 348.835 32.9383 350.997 30.4005 353.158C29.9998 353.479 30.5875 354.066 30.9615 353.719Z" fill="#E8E8E8"/>
<path d="M21.7723 354.493C39.297 354.493 56.8217 354.493 74.3464 354.493C74.854 354.493 74.854 353.692 74.3464 353.692C56.8217 353.692 39.297 353.692 21.7723 353.692C21.2647 353.692 21.2647 354.493 21.7723 354.493Z" fill="#E8E8E8"/>
<path d="M68.2287 354.332C66.2251 356.574 64.1681 358.763 62.0844 360.951C61.7371 361.325 62.2981 361.886 62.6454 361.512C64.7291 359.323 66.7594 357.135 68.7897 354.893C69.1637 354.519 68.576 353.959 68.2287 354.332Z" fill="#E8E8E8"/>
<path d="M54.5506 362.234C69.9649 362.234 85.3524 362.234 100.767 362.234C101.274 362.234 101.274 361.432 100.767 361.432C85.3524 361.432 69.9649 361.432 54.5506 361.432C54.043 361.432 54.043 362.234 54.5506 362.234Z" fill="#E8E8E8"/>
<path d="M43.6248 333.328C50.1432 333.328 56.6615 333.328 63.2065 333.328C63.7141 333.328 63.7141 332.527 63.2065 332.527C56.6882 332.527 50.1699 332.527 43.6248 332.527C43.1172 332.527 43.1172 333.328 43.6248 333.328Z" fill="#E8E8E8"/>
<path d="M68.1483 335.944C70.1519 335.944 72.1822 335.944 74.1857 335.944C74.6933 335.944 74.6933 335.142 74.1857 335.142C72.1822 335.142 70.1519 335.142 68.1483 335.142C67.614 335.142 67.614 335.944 68.1483 335.944Z" fill="#E8E8E8"/>
<path d="M53.6426 193.229C53.6426 197.58 53.6426 201.957 53.6426 206.308C53.6426 206.815 54.444 206.815 54.444 206.308C54.444 201.957 54.444 197.58 54.444 193.229C54.444 192.722 53.6426 192.722 53.6426 193.229Z" fill="#E8E8E8"/>
<path d="M40.2054 206.949C50.9446 206.949 61.6838 206.949 72.423 206.949C72.9306 206.949 72.9306 206.147 72.423 206.147C61.6838 206.147 50.9446 206.147 40.2054 206.147C39.6978 206.147 39.6978 206.949 40.2054 206.949Z" fill="#E8E8E8"/>
<path d="M62.6987 207.322C62.6987 210.685 62.6987 214.022 62.6987 217.385C62.6987 217.892 63.5002 217.892 63.5002 217.385C63.5002 214.022 63.5002 210.685 63.5002 207.322C63.5002 206.789 62.6987 206.789 62.6987 207.322Z" fill="#E8E8E8"/>
<path d="M53.8031 218.773C62.3517 218.773 70.927 218.773 79.4757 218.773C79.9832 218.773 79.9832 217.971 79.4757 217.971C70.927 217.971 62.3517 217.971 53.8031 217.971C53.2688 217.971 53.2688 218.773 53.8031 218.773Z" fill="#E8E8E8"/>
<path d="M269.389 183.861C269.389 184.929 269.389 185.97 269.389 187.037C269.389 187.544 270.19 187.544 270.19 187.037C270.19 185.97 270.19 184.929 270.19 183.861C270.19 183.354 269.389 183.354 269.389 183.861Z" fill="#E8E8E8"/>
<path d="M270.03 184.502C288.409 184.502 306.789 184.502 325.168 184.502C325.676 184.502 325.676 183.701 325.168 183.701C306.789 183.701 288.409 183.701 270.03 183.701C269.522 183.701 269.522 184.502 270.03 184.502Z" fill="#E8E8E8"/>
<path d="M270.511 187.438C288.73 187.438 306.949 187.438 325.142 187.438C325.649 187.438 325.649 186.637 325.142 186.637C306.922 186.637 288.703 186.637 270.511 186.637C270.003 186.637 270.003 187.438 270.511 187.438Z" fill="#E8E8E8"/>
<path d="M325.035 183.861C324.928 184.955 324.982 186.05 325.169 187.144C325.249 187.651 326.023 187.438 325.943 186.93C325.756 185.916 325.73 184.875 325.836 183.861C325.89 183.354 325.088 183.354 325.035 183.861Z" fill="#E8E8E8"/>
<path d="M273.797 183.888C273.797 176.441 273.797 168.994 273.797 161.548C273.797 161.041 272.995 161.041 272.995 161.548C272.995 168.994 272.995 176.441 272.995 183.888C272.995 184.421 273.797 184.421 273.797 183.888Z" fill="#E8E8E8"/>
<path d="M273.797 161.681C276.068 160.774 278.472 160.907 280.583 162.162C281.037 162.429 281.438 161.735 280.983 161.468C278.713 160.133 276.015 159.92 273.584 160.907C273.103 161.094 273.316 161.868 273.797 161.681Z" fill="#E8E8E8"/>
<path d="M280.448 161.975C280.448 169.128 280.448 176.308 280.448 183.461C280.448 183.968 281.25 183.968 281.25 183.461C281.25 176.308 281.25 169.128 281.25 161.975C281.25 161.468 280.448 161.468 280.448 161.975Z" fill="#E8E8E8"/>
<path d="M281.357 167.954C282.987 167.286 284.697 167.393 286.219 168.327C286.674 168.594 287.074 167.9 286.62 167.633C284.937 166.619 282.96 166.432 281.144 167.18C280.663 167.366 280.876 168.14 281.357 167.954Z" fill="#E8E8E8"/>
<path d="M286.059 168.301C286.059 173.319 286.059 178.31 286.059 183.328C286.059 183.835 286.86 183.835 286.86 183.328C286.86 178.31 286.86 173.319 286.86 168.301C286.86 167.794 286.059 167.794 286.059 168.301Z" fill="#E8E8E8"/>
<path d="M273.904 167.82C276.174 167.313 278.418 167.473 280.609 168.247C281.09 168.407 281.304 167.633 280.823 167.473C278.499 166.646 276.094 166.539 273.69 167.046C273.209 167.153 273.423 167.927 273.904 167.82Z" fill="#E8E8E8"/>
<path d="M280.796 177.081C282.506 176.628 284.216 176.574 285.952 176.948C286.46 177.055 286.673 176.281 286.166 176.174C284.296 175.774 282.452 175.8 280.582 176.307C280.102 176.441 280.289 177.215 280.796 177.081Z" fill="#E8E8E8"/>
<path d="M296.156 183.621C296.156 182.126 296.156 180.631 296.156 179.137C296.156 178.63 295.355 178.63 295.355 179.137C295.355 180.631 295.355 182.126 295.355 183.621C295.355 184.128 296.156 184.128 296.156 183.621Z" fill="#E8E8E8"/>
<path d="M295.756 179.378C304.438 179.378 313.093 179.378 321.776 179.378C322.283 179.378 322.283 178.577 321.776 178.577C313.093 178.577 304.438 178.577 295.756 178.577C295.221 178.577 295.221 179.378 295.756 179.378Z" fill="#E8E8E8"/>
<path d="M322.043 179.804C322.55 179.804 322.55 179.003 322.043 179.003C321.509 179.003 321.509 179.804 322.043 179.804Z" fill="#E8E8E8"/>
<path d="M321.642 179.404C321.642 180.765 321.642 182.126 321.642 183.487C321.642 183.995 322.444 183.995 322.444 183.487C322.444 182.126 322.444 180.765 322.444 179.404C322.444 178.897 321.642 178.897 321.642 179.404Z" fill="#E8E8E8"/>
<path d="M301.206 178.843C301.206 177.429 301.206 176.041 301.206 174.626C301.206 174.119 300.404 174.119 300.404 174.626C300.404 176.041 300.404 177.429 300.404 178.843C300.404 179.35 301.206 179.35 301.206 178.843Z" fill="#E8E8E8"/>
<path d="M300.805 174.894C309.327 174.894 317.849 174.894 326.397 174.894C326.905 174.894 326.905 174.092 326.397 174.092C317.876 174.092 309.354 174.092 300.805 174.092C300.297 174.092 300.297 174.894 300.805 174.894Z" fill="#E8E8E8"/>
<path d="M326.13 174.493C326.13 175.667 326.13 176.841 326.13 178.016C326.13 178.523 326.932 178.523 326.932 178.016C326.932 176.841 326.932 175.667 326.932 174.493C326.932 173.959 326.13 173.959 326.13 174.493Z" fill="#E8E8E8"/>
<path d="M321.482 179.511C323.031 179.511 324.581 179.511 326.13 179.511C326.638 179.511 326.638 178.71 326.13 178.71C324.581 178.71 323.031 178.71 321.482 178.71C320.947 178.71 320.947 179.511 321.482 179.511Z" fill="#E8E8E8"/>
<path d="M326.077 178.042C326.024 178.336 326.024 178.603 326.104 178.87C326.157 179.083 326.398 179.217 326.585 179.137C326.799 179.083 326.932 178.843 326.852 178.656C326.825 178.523 326.799 178.363 326.825 178.256C326.852 178.042 326.772 177.802 326.558 177.775C326.371 177.722 326.104 177.829 326.077 178.042Z" fill="#E8E8E8"/>
<path d="M306.896 174.679C307.243 176.041 307.323 177.429 307.136 178.843C307.083 179.35 307.884 179.35 307.938 178.843C308.125 177.375 308.018 175.907 307.671 174.466C307.537 173.985 306.762 174.199 306.896 174.679Z" fill="#E8E8E8"/>
<path d="M312.934 179.324C313.121 180.658 313.014 181.966 312.694 183.247C312.56 183.754 313.335 183.968 313.468 183.461C313.842 182.02 313.922 180.578 313.709 179.11C313.655 178.603 312.881 178.817 312.934 179.324Z" fill="#E8E8E8"/>
<path d="M307.697 211.806C307.697 213.914 307.697 215.996 307.697 218.105C307.697 218.612 308.499 218.612 308.499 218.105C308.499 215.996 308.499 213.914 308.499 211.806C308.499 211.272 307.697 211.272 307.697 211.806Z" fill="#E8E8E8"/>
<path d="M301.499 218.212C306.842 218.212 312.185 218.212 317.528 218.212C318.036 218.212 318.036 217.411 317.528 217.411C312.185 217.411 306.842 217.411 301.499 217.411C300.992 217.411 300.992 218.212 301.499 218.212Z" fill="#E8E8E8"/>
<path d="M292.39 128.426C292.39 133.23 292.39 138.061 292.39 142.865C292.39 143.372 293.191 143.372 293.191 142.865C293.191 138.061 293.191 133.23 293.191 128.426C293.191 127.918 292.39 127.918 292.39 128.426Z" fill="#E8E8E8"/>
<path d="M293.405 128.399C299.496 128.399 305.56 128.399 311.651 128.399C312.159 128.399 312.159 127.598 311.651 127.598C305.56 127.598 299.496 127.598 293.405 127.598C292.898 127.598 292.898 128.399 293.405 128.399Z" fill="#E8E8E8"/>
<path d="M311.678 128.292C311.678 132.936 311.678 137.58 311.678 142.198C311.678 142.705 312.479 142.705 312.479 142.198C312.479 137.554 312.479 132.909 312.479 128.292C312.479 127.785 311.678 127.785 311.678 128.292Z" fill="#E8E8E8"/>
<path d="M292.683 143.319C299.148 143.319 305.613 143.319 312.078 143.319C312.586 143.319 312.586 142.518 312.078 142.518C305.613 142.518 299.148 142.518 292.683 142.518C292.176 142.518 292.176 143.319 292.683 143.319Z" fill="#E8E8E8"/>
<path d="M294.18 130.08C294.18 133.736 294.18 137.366 294.18 141.023C294.18 141.53 294.981 141.53 294.981 141.023C294.981 137.366 294.981 133.736 294.981 130.08C294.981 129.573 294.18 129.573 294.18 130.08Z" fill="#E8E8E8"/>
<path d="M294.767 130.401C299.763 130.401 304.785 130.401 309.781 130.401C310.288 130.401 310.288 129.599 309.781 129.599C304.785 129.599 299.763 129.599 294.767 129.599C294.26 129.599 294.26 130.401 294.767 130.401Z" fill="#E8E8E8"/>
<path d="M309.487 130.08C309.487 133.469 309.487 136.832 309.487 140.222C309.487 140.729 310.289 140.729 310.289 140.222C310.289 136.832 310.289 133.469 310.289 130.08C310.289 129.573 309.487 129.573 309.487 130.08Z" fill="#E8E8E8"/>
<path d="M294.767 141.424C299.736 141.424 304.705 141.424 309.701 141.424C310.208 141.424 310.208 140.623 309.701 140.623C304.732 140.623 299.763 140.623 294.767 140.623C294.26 140.623 294.26 141.424 294.767 141.424Z" fill="#E8E8E8"/>
<path d="M304.223 136.619C302.113 135.017 305.265 131.681 306.735 133.683C308.097 135.498 305.88 137.686 303.983 136.672C303.529 136.432 303.128 137.126 303.582 137.366C304.811 138.033 306.441 137.846 307.322 136.699C308.231 135.551 308.124 133.736 306.975 132.775C305.773 131.788 304.063 132.455 303.235 133.576C302.353 134.804 302.621 136.405 303.823 137.313C304.25 137.606 304.624 136.912 304.223 136.619Z" fill="#E8E8E8"/>
<path d="M301.686 140.569C301.579 138.461 304.171 137.66 305.8 137.66C307.804 137.66 308.445 139.448 309.273 140.97C309.514 141.423 310.208 141.023 309.968 140.569C309.407 139.555 308.872 138.22 307.937 137.473C307.083 136.806 306.014 136.833 304.999 136.939C303.129 137.153 300.751 138.3 300.885 140.569C300.911 141.076 301.713 141.076 301.686 140.569Z" fill="#E8E8E8"/>
<path d="M295.115 138.647C295.702 137.553 297.866 137.98 298.668 138.407C299.496 138.861 299.977 139.608 300.191 140.516C300.297 141.023 301.072 140.809 300.965 140.302C300.645 138.914 299.683 137.82 298.294 137.366C297.118 136.993 295.115 136.966 294.447 138.22C294.18 138.701 294.874 139.101 295.115 138.647Z" fill="#E8E8E8"/>
<path d="M296.664 136.672C295.782 136.646 295.996 135.338 296.37 134.884C296.851 134.297 297.812 134.217 298.373 134.777C298.828 135.204 298.961 136.005 298.587 136.512C298.32 136.886 297.919 136.966 297.492 136.966C297.332 136.966 296.664 136.993 296.557 136.859C296.263 136.432 295.568 136.833 295.862 137.26C296.183 137.74 296.851 137.767 297.385 137.767C298.026 137.793 298.641 137.633 299.095 137.153C299.95 136.219 299.656 134.644 298.641 133.95C297.545 133.229 296.023 133.63 295.462 134.804C294.981 135.845 295.328 137.42 296.664 137.446C297.198 137.5 297.198 136.699 296.664 136.672Z" fill="#E8E8E8"/>
<path d="M133.17 199.369C134.426 200.383 135.975 199.956 137.15 198.969C138.807 197.607 139.635 195.285 139.955 193.23C140.784 187.999 138.673 183.034 137.845 177.963C136.349 168.542 140.463 158.453 148.103 152.794C151.817 150.018 157.934 147.056 156.492 141.371C156.358 140.864 155.583 141.077 155.717 141.584C157.079 147.002 150.775 149.752 147.329 152.367C144.23 154.743 141.719 157.812 139.929 161.255C138.166 164.591 137.097 168.301 136.803 172.065C136.456 176.629 137.658 180.873 138.646 185.276C139.234 187.946 139.608 190.748 139.101 193.47C138.86 194.725 138.433 195.953 137.765 197.047C137.017 198.221 135.227 200.036 133.731 198.835C133.357 198.488 132.769 199.049 133.17 199.369Z" fill="#E8E8E8"/>
<path d="M156.2 141.05C153.181 141.183 150.536 138.835 150.697 135.739C150.857 132.509 154.677 129.52 157.91 130.374C160.795 131.148 163.012 134.324 162.291 137.287C161.569 140.249 158.23 140.89 155.666 141.317C155.158 141.397 155.372 142.171 155.879 142.091C159.192 141.557 163.039 140.383 163.253 136.379C163.413 133.123 160.501 129.6 157.162 129.466C153.635 129.306 150.082 132.189 149.895 135.765C149.735 139.288 152.754 142.011 156.2 141.877C156.707 141.824 156.707 141.023 156.2 141.05Z" fill="#E8E8E8"/>
<path d="M152.245 138.969C153.527 135.739 160.366 135.205 161.167 139.049C161.274 139.556 162.049 139.342 161.942 138.835C160.953 134.138 153.019 134.832 151.47 138.755C151.283 139.236 152.058 139.423 152.245 138.969Z" fill="#E8E8E8"/>
<path d="M156.251 135.365C155.69 134.964 155.477 134.19 155.851 133.603C156.278 132.883 157.187 132.802 157.881 133.176C158.415 133.47 158.522 134.137 158.202 134.644C157.801 135.258 156.946 135.338 156.278 135.178C155.771 135.071 155.557 135.845 156.064 135.952C157.133 136.192 158.415 135.952 158.95 134.911C159.431 133.977 159.083 132.856 158.122 132.402C157.053 131.922 155.771 132.135 155.156 133.176C154.542 134.164 154.942 135.391 155.851 136.032C156.278 136.379 156.679 135.685 156.251 135.365Z" fill="#E8E8E8"/>
<path d="M167.578 127.145C170.383 119.725 178.451 115.935 185.958 115.428C190.926 115.081 195.895 115.855 200.757 116.789C205.352 117.696 210.134 119.137 214.836 118.977C218.71 118.844 222.69 117.242 224.507 113.639C224.747 113.186 224.052 112.785 223.812 113.239C221.702 117.403 216.839 118.47 212.538 118.123C207.516 117.723 202.574 116.228 197.632 115.401C189.617 114.066 181.069 113.879 173.936 118.39C170.704 120.445 168.139 123.328 166.777 126.931C166.616 127.412 167.391 127.625 167.578 127.145Z" fill="#E8E8E8"/>
<path d="M227.741 113.186C234.793 113.186 241.872 113.186 248.925 113.186C249.433 113.186 249.433 112.384 248.925 112.384C241.872 112.384 234.793 112.384 227.741 112.384C227.206 112.384 227.206 113.186 227.741 113.186Z" fill="#E8E8E8"/>
<path d="M227.446 112.331C226.19 111.103 227.553 109.022 228.541 108.087C229.744 106.913 231.4 106.459 233.003 107.1C233.136 107.153 233.403 107.073 233.457 106.913C234.419 104.671 236.689 103.043 239.174 103.15C241.765 103.257 243.956 105.205 244.597 107.66C244.65 107.901 244.971 108.034 245.184 107.901C246.36 107.18 247.562 108.034 248.043 109.128C248.47 110.143 248.363 111.29 248.257 112.385C248.203 112.892 249.005 112.892 249.058 112.385C249.218 110.783 249.325 108.888 248.043 107.66C247.135 106.806 245.879 106.539 244.81 107.207C244.997 107.287 245.211 107.367 245.398 107.447C244.677 104.778 242.379 102.643 239.574 102.376C236.689 102.082 233.911 103.87 232.789 106.513C232.949 106.459 233.083 106.379 233.243 106.326C231.106 105.472 228.862 106.379 227.473 108.141C226.431 109.449 225.523 111.557 226.938 112.918C227.259 113.265 227.82 112.705 227.446 112.331Z" fill="#E8E8E8"/>
<path d="M242.647 116.255C245.933 115.881 247.857 119.324 248.364 122.1C248.898 124.956 248.391 127.812 248.097 130.668C247.643 134.965 247.937 140.143 252.024 142.652C252.452 142.919 252.879 142.225 252.425 141.958C246.841 138.541 249.166 130.935 249.379 125.703C249.54 121.726 247.963 114.867 242.647 115.454C242.14 115.507 242.14 116.308 242.647 116.255Z" fill="#E8E8E8"/>
<path d="M256.458 138.141C254.053 144.2 251.676 150.259 249.272 156.291C249.085 156.771 249.859 156.985 250.046 156.504C252.451 150.446 254.828 144.387 257.233 138.355C257.42 137.874 256.645 137.688 256.458 138.141Z" fill="#E8E8E8"/>
<path d="M256.833 138.648C261 138.434 265.141 138.541 269.282 139.022C269.148 138.862 269.015 138.675 268.908 138.515C266.931 144.84 265.328 151.246 264.046 157.732C263.939 158.239 264.714 158.452 264.821 157.945C266.103 151.459 267.732 145.054 269.683 138.728C269.763 138.461 269.549 138.248 269.309 138.221C265.168 137.741 261.027 137.634 256.86 137.847C256.325 137.874 256.325 138.675 256.833 138.648Z" fill="#E8E8E8"/>
<path d="M249.458 157.065C251.916 157.172 254.347 157.305 256.805 157.465C259.182 157.599 261.72 157.545 263.964 158.453C264.445 158.64 264.659 157.866 264.178 157.679C262.041 156.798 259.61 156.851 257.339 156.718C254.721 156.558 252.103 156.424 249.458 156.291C248.951 156.238 248.951 157.038 249.458 157.065Z" fill="#E8E8E8"/>
<path d="M257.206 141.317C259.77 141.37 262.335 141.557 264.873 141.904C265.381 141.984 265.594 141.21 265.087 141.13C262.469 140.756 259.851 140.543 257.206 140.489C256.672 140.489 256.672 141.29 257.206 141.317Z" fill="#E8E8E8"/>
<path d="M256.431 143.133C257.874 143.079 259.316 143.106 260.759 143.24C261.266 143.293 261.266 142.492 260.759 142.438C259.316 142.305 257.874 142.251 256.431 142.331C255.923 142.358 255.923 143.16 256.431 143.133Z" fill="#E8E8E8"/>
<path d="M254.668 146.735C257.74 146.549 260.652 146.282 263.671 147.029C264.178 147.162 264.392 146.388 263.884 146.255C260.785 145.508 257.82 145.748 254.668 145.935C254.134 145.961 254.134 146.762 254.668 146.735Z" fill="#E8E8E8"/>
<path d="M254.8 149.085C256.564 148.952 258.327 148.952 260.09 149.112C260.597 149.165 260.597 148.364 260.09 148.311C258.327 148.15 256.564 148.15 254.8 148.284C254.293 148.337 254.266 149.139 254.8 149.085Z" fill="#E8E8E8"/>
<path d="M253.412 152.18C255.817 152.02 258.168 152.1 260.545 152.421C261.053 152.501 261.053 151.7 260.545 151.62C258.168 151.3 255.79 151.219 253.412 151.38C252.905 151.406 252.905 152.207 253.412 152.18Z" fill="#E8E8E8"/>
<path d="M120.482 116.361C121.551 117.803 123.1 118.39 124.676 119.11C126.546 119.965 128.256 121.112 129.645 122.634C132.798 126.023 133.839 130.587 133.92 135.098C134.107 143.559 131.248 152.42 135.095 160.427C135.309 160.881 136.003 160.481 135.79 160.027C131.756 151.593 135.335 142.144 134.641 133.283C134.347 129.44 133.252 125.676 130.767 122.687C129.592 121.272 128.149 120.045 126.546 119.137C124.756 118.123 122.432 117.669 121.177 115.961C120.883 115.561 120.188 115.961 120.482 116.361Z" fill="#E8E8E8"/>
<path d="M111.344 105.072C110.65 104.192 110.703 103.578 111.505 103.231C111.852 103.044 112.199 102.91 112.6 102.83C113.107 102.724 113.668 102.697 114.203 102.724C115.806 102.804 117.435 103.231 117.355 105.179C117.275 107.475 116.847 109.743 116.286 111.958C115.699 114.227 114.977 116.442 114.203 118.658C114.042 119.138 113.909 119.699 113.668 120.152C113.188 120.98 112.44 120.953 111.638 120.953C110.65 120.953 109.394 121.087 108.432 120.82C107.364 120.526 107.123 119.458 108.165 118.765C108.646 118.444 109.314 118.391 109.875 118.391C110.596 118.391 111.237 118.551 111.852 118.071C113.027 117.163 113.214 114.708 113.481 113.4C113.882 111.505 114.55 109.183 114.416 107.261C114.31 105.793 112.867 105.74 111.825 105.126C111.371 104.859 110.97 105.553 111.424 105.82C112.253 106.3 113.455 106.354 113.615 107.448C113.802 108.729 113.268 110.464 113.027 111.745C112.787 112.973 112.52 114.2 112.199 115.402C111.959 116.309 111.852 117.403 110.65 117.644C110.169 117.75 109.581 117.59 109.074 117.67C107.791 117.857 106.536 118.765 106.723 120.206C106.963 122.021 109.127 121.7 110.463 121.754C112.119 121.807 113.775 122.047 114.523 120.286C115.458 118.097 116.126 115.695 116.767 113.426C117.435 111.078 117.943 108.649 118.13 106.22C118.29 104.325 118.37 102.804 116.26 102.297C114.416 101.843 111.879 101.629 110.436 103.124C109.474 104.112 109.715 106.06 111.371 105.926C111.852 105.82 111.852 105.019 111.344 105.072Z" fill="#E8E8E8"/>
<path d="M108.114 107.928C108.087 107.901 108.06 107.874 108.034 107.848C107.927 107.741 107.766 107.714 107.633 107.741C106.858 108.008 106.564 109.262 106.351 109.956C105.977 111.237 105.896 112.545 106.083 113.88C106.137 114.387 106.938 114.387 106.885 113.88C106.778 112.945 106.751 112.038 106.912 111.104C106.992 110.623 107.82 108.755 107.526 108.488C107.9 108.862 108.461 108.301 108.114 107.928Z" fill="#E8E8E8"/>
<path d="M105.414 104.991C102.956 108.114 101.38 111.878 102.422 115.881C102.555 116.388 103.33 116.175 103.197 115.668C102.235 111.984 103.731 108.435 105.975 105.552C106.296 105.152 105.735 104.591 105.414 104.991Z" fill="#E8E8E8"/>
<path d="M102.048 101.388C97.9609 106.753 96.0375 113.532 96.7321 120.258C96.7855 120.765 97.5869 120.765 97.5335 120.258C96.8656 113.666 98.7089 107.073 102.743 101.788C103.037 101.388 102.342 100.988 102.048 101.388Z" fill="#E8E8E8"/>
<path d="M96.3584 128.665C94.3014 129.653 92.378 131.014 90.8552 132.722C89.3058 134.484 88.8249 136.379 88.5845 138.674C88.0502 143.932 86.1001 149.697 80.8106 151.912C80.3297 152.099 80.5435 152.873 81.0243 152.686C85.2452 150.925 87.7029 146.921 88.7448 142.598C89.3592 140.009 89.0654 136.939 90.4278 134.617C91.817 132.242 94.3281 130.507 96.7591 129.332C97.24 129.146 96.8393 128.452 96.3584 128.665Z" fill="#E8E8E8"/>
<path d="M69.5094 166.086C67.7463 166.139 65.7427 165.392 65.1015 163.577C64.3535 161.442 65.9564 159.36 67.6661 158.265C70.9787 156.13 75.44 155.303 79.2869 155.249C81.2371 155.223 83.4544 155.249 85.1641 156.29C87.3547 157.625 87.7287 160.134 86.019 162.029C83.4277 164.911 78.9664 165.205 75.3866 165.472C74.879 165.499 74.879 166.299 75.3866 166.273C78.9664 166.006 82.9735 165.685 85.8587 163.283C88.5034 161.095 88.6904 157.465 85.5915 155.57C82.3858 153.621 77.4971 154.262 74.0242 155.009C70.6849 155.73 66.1167 157.038 64.6207 160.481C63.0712 164.004 66.0365 166.94 69.5629 166.833C70.0437 166.86 70.0437 166.059 69.5094 166.086Z" fill="#E8E8E8"/>
<path d="M69.378 166.406C68.7101 167.473 68.069 168.541 67.4011 169.582C67.1874 169.929 67.6148 170.302 67.9621 170.142C69.5917 169.261 71.3548 168.701 73.0111 167.927C73.9194 167.527 74.801 167.046 75.6559 166.512C75.9497 166.326 76.297 166.219 76.3772 165.845C76.4306 165.658 76.3237 165.391 76.11 165.365C76.0833 165.365 76.0566 165.365 76.0299 165.338C75.8429 165.311 75.5757 165.391 75.549 165.605C75.549 165.632 75.549 165.632 75.549 165.658C75.4422 166.165 76.2169 166.379 76.3237 165.872C76.3237 165.845 76.3237 165.845 76.3237 165.818C76.1635 165.898 76.0032 166.005 75.8429 166.085C75.8696 166.085 75.8963 166.085 75.923 166.112C75.8429 165.952 75.736 165.792 75.6559 165.632C75.5757 165.898 74.0797 166.512 73.7591 166.699C72.9577 167.126 72.1296 167.473 71.2747 167.82C70.0191 168.327 68.7903 168.808 67.6148 169.448C67.8018 169.635 67.9888 169.822 68.1758 170.009C68.8437 168.941 69.4848 167.874 70.1527 166.833C70.3397 166.379 69.6451 165.979 69.378 166.406Z" fill="#E8E8E8"/>
<path d="M70.2583 161.789C70.2316 161.735 70.2316 161.629 70.3118 161.629C70.5255 161.629 70.285 161.896 70.2583 161.922C70.1247 162.002 69.6706 162.109 69.6973 161.842C69.724 161.522 70.3385 161.175 70.4453 161.655C70.472 161.789 70.3652 161.949 70.2316 161.976C70.1515 162.002 70.098 162.002 70.0446 161.949C70.0179 161.922 69.9645 161.896 70.0179 161.896C70.5255 161.922 70.5255 161.122 70.0179 161.095C69.4836 161.042 69.0829 161.602 69.2165 162.109C69.35 162.616 69.9377 162.883 70.4186 162.75C70.8995 162.616 71.2735 162.189 71.2735 161.682C71.2735 161.175 70.8728 160.748 70.4186 160.641C69.4302 160.401 68.3883 161.842 69.2432 162.563C69.9377 163.15 71.3269 162.616 71.2468 161.629C71.1933 161.095 70.6056 160.668 70.0713 160.855C69.537 161.042 69.3233 161.709 69.5905 162.189C69.8042 162.643 70.4987 162.243 70.2583 161.789Z" fill="#E8E8E8"/>
<path d="M76.1628 161.067C76.1361 160.907 76.056 160.694 76.2163 160.56C76.2964 160.48 76.43 160.48 76.5368 160.48C76.804 160.534 76.7506 160.827 76.5636 160.961C76.4567 161.041 76.3498 161.041 76.2697 160.934C76.1896 160.827 76.2163 160.8 76.2964 160.747C76.3498 160.72 76.1896 160.747 76.3231 160.72C76.6437 160.667 76.1094 161.041 76.1896 160.774C76.0293 161.281 76.804 161.468 76.9643 160.987C77.0978 160.507 76.6437 160.026 76.1628 160.106C75.6018 160.213 75.4683 160.88 75.8156 161.281C76.1361 161.655 76.7238 161.574 76.9643 161.147C77.2047 160.72 77.0444 160.16 76.5636 160C76.0827 159.84 75.5484 160.133 75.4415 160.614C75.308 161.147 75.682 161.681 76.2163 161.815C77.178 162.028 77.9794 160.72 77.2849 160C76.9376 159.653 76.3766 159.626 75.9491 159.813C75.3614 160.106 75.3347 160.72 75.4415 161.281C75.4683 161.788 76.243 161.574 76.1628 161.067Z" fill="#E8E8E8"/>
<path d="M82.0925 159.279C82.1993 159.279 82.3062 159.306 82.4397 159.306V159.279C82.4665 159.253 82.4665 159.199 82.4932 159.173C82.5199 159.119 82.6 159.066 82.6535 159.039C82.787 158.986 82.9206 158.986 83.0008 159.119C83.1076 159.333 82.9206 159.733 82.6535 159.573C82.4932 159.466 82.4665 159.199 82.7069 159.253C82.7603 159.253 82.787 159.279 82.8137 159.306C82.8137 159.306 82.8137 159.359 82.8137 159.306C82.8137 159.253 82.8137 159.333 82.787 159.333C82.7069 159.386 82.6802 159.439 82.6 159.386C82.413 159.253 82.1459 159.359 82.039 159.519C81.9322 159.733 82.0123 159.947 82.1726 160.08C82.9473 160.64 83.9892 159.519 83.3748 158.772C82.8137 158.105 81.6116 158.532 81.665 159.413C81.6917 159.866 82.039 160.267 82.4665 160.374C82.8939 160.48 83.348 160.267 83.5885 159.893C84.1228 159.066 83.3748 157.918 82.3863 158.238C81.9322 158.398 81.5314 158.852 81.5849 159.359C81.6383 159.92 82.4397 160.213 82.7336 159.653C83.0008 159.226 82.3329 158.826 82.0925 159.279Z" fill="#E8E8E8"/>
<path d="M98.2274 136.006C101.513 134.191 104.372 131.789 106.749 128.879C107.07 128.479 106.509 127.919 106.188 128.319C103.864 131.175 101.059 133.524 97.8267 135.312C97.3726 135.552 97.7733 136.246 98.2274 136.006Z" fill="#E8E8E8"/>
<path d="M138.194 136.7C137.607 140.063 137.366 143.453 137.527 146.869C137.553 147.376 138.355 147.376 138.328 146.869C138.168 143.533 138.381 140.197 138.969 136.914C139.049 136.407 138.275 136.193 138.194 136.7Z" fill="#E8E8E8"/>
<path d="M134.106 214.716C134.106 210.632 136.029 206.762 139.315 204.306C139.716 204.013 139.315 203.319 138.915 203.612C135.388 206.228 133.331 210.312 133.331 214.716C133.305 215.223 134.106 215.223 134.106 214.716Z" fill="#E8E8E8"/>
<path d="M178.853 322.491C179.281 326.335 179.949 330.552 181.017 335.116C182.46 341.281 184.303 346.673 186.146 351.21C185.639 351.664 184.116 352.865 181.872 353.025C180.456 353.132 179.334 352.785 178.693 352.544C177.731 349.208 176.796 345.738 175.941 342.135C174.178 334.715 172.896 327.642 171.961 321.05C174.285 321.53 176.583 322.011 178.853 322.491Z" fill="#444762"/>
<path d="M238.828 319.982C238.48 323.799 237.893 328.043 236.904 332.607C235.515 339.066 233.672 344.671 231.802 349.395C232.069 349.635 233.592 351.077 235.942 350.97C237.973 350.89 239.282 349.689 239.602 349.395C240.217 346.166 240.805 342.909 241.392 339.653C242.675 332.527 243.823 325.507 244.919 318.568C242.888 319.021 240.858 319.502 238.828 319.982Z" fill="#444762"/>
<path d="M191.062 309.333C191.676 313.416 192.398 317.633 193.226 321.957C194.428 328.229 195.79 334.208 197.233 339.866C196.619 340.24 195.39 340.854 193.707 340.961C192.291 341.041 191.169 340.72 190.528 340.48C189.726 336.69 188.951 332.847 188.177 329.003C186.761 321.877 185.452 314.857 184.196 307.918C186.494 308.372 188.764 308.852 191.062 309.333Z" fill="#444762"/>
<path d="M228.756 308.532C228.035 312.562 227.394 316.779 226.833 321.157C226.058 327.189 225.524 332.954 225.203 338.452C225.657 338.746 226.726 339.359 228.249 339.439C229.878 339.493 231.08 338.852 231.534 338.585C231.267 335.436 231.16 331.939 231.321 328.203C231.641 319.902 233.164 312.749 234.847 307.117C232.817 307.571 230.786 308.052 228.756 308.532Z" fill="#444762"/>
<path d="M276.227 219.225C280.902 227.553 277.296 236.761 268.533 259.635C264.312 270.631 256.592 290.836 245.692 319.635C234.98 323.531 217.241 328.336 195.309 326.814C182.566 325.933 171.88 323.184 163.786 320.355C162.584 318.193 158.416 310.106 161.542 302.259C163.278 297.909 166.778 294.786 174.204 291.102C181.524 287.473 194.427 282.375 213.181 281.441C205.834 244.901 218.417 214.955 237.999 208.042C250.848 203.531 269.789 207.775 276.227 219.225Z" fill="white" stroke="#444762" stroke-width="0.534289" stroke-miterlimit="10"/>
<path d="M274.518 222.242C266.771 232.037 265.007 245.196 262.042 256.966C258.863 269.564 255.203 282.135 249.727 293.959C246.708 300.445 243.155 306.69 238.907 312.455C238.614 312.882 239.308 313.283 239.602 312.856C247.055 302.713 252.318 291.21 256.379 279.359C260.493 267.295 263.218 254.857 266.423 242.553C268.24 235.56 270.564 228.567 275.106 222.829C275.399 222.402 274.838 221.841 274.518 222.242Z" fill="#444762"/>
<path d="M163.946 314.564C181.765 321.103 201.186 323.025 219.94 320.115C225.309 319.288 230.626 318.06 235.835 316.459C236.316 316.299 236.129 315.525 235.621 315.685C217.455 321.29 197.954 322.144 179.361 318.194C174.205 317.099 169.102 315.605 164.16 313.79C163.679 313.603 163.465 314.377 163.946 314.564Z" fill="#444762"/>
<path d="M226.672 293.585C231.16 295.053 234.98 298.016 237.545 302.019C237.812 302.446 238.507 302.046 238.239 301.619C235.568 297.455 231.588 294.359 226.886 292.811C226.378 292.651 226.164 293.425 226.672 293.585Z" fill="#444762"/>
<path d="M146.316 328.149C148.453 331.352 150.59 334.582 152.7 337.785C139.023 350.062 137.26 353.559 138.275 354.413C140.305 356.094 154.864 348.621 156.36 347.847C161.783 345.071 165.871 342.375 168.596 340.454C167.634 337.838 166.352 334.902 164.588 331.806C162.264 327.722 159.7 324.279 157.269 321.477C153.609 323.665 149.949 325.907 146.316 328.149Z" fill="#202236"/>
<path d="M226.245 265.24C227.207 267.322 228.222 270.285 228.382 273.861C228.623 279.253 226.859 283.55 225.524 286.032C224.802 286.966 223.52 288.514 221.623 290.196C221.623 290.196 217.322 293.986 210.483 296.895C203.511 299.884 183.235 303.488 155.692 304.182C156.493 307.598 157.936 311.788 160.501 316.299C161.916 318.781 163.466 320.97 164.989 322.865C163.973 324.199 161.088 327.589 155.345 329.724C149.815 331.779 144.739 331.539 142.735 331.379C139.85 328.737 136.885 325.587 134.133 321.824C126.039 310.694 124.142 299.938 123.795 293.025C125.799 291.584 128.737 289.609 132.584 287.5C140.598 283.096 147.945 280.694 153.982 278.906C164.374 275.863 174.312 273.754 197.18 269.884C204.339 268.683 214.25 267.028 226.245 265.24Z" fill="white" stroke="#202236" stroke-width="0.534289" stroke-miterlimit="10"/>
<path opacity="0.19" d="M200.866 269.831C200.092 274.929 197.901 281.548 191.116 285.658C184.517 289.662 178.987 288.034 165.763 291.237C156.253 293.532 143.671 296.575 140.171 303.327C136.511 310.427 143.43 320.436 155.532 328.656C156.547 328.523 157.829 328.256 159.192 327.722C162.691 326.334 164.401 324.066 165.042 323.078C163.493 321.21 161.89 319.048 160.421 316.566C157.642 311.922 156.146 307.598 155.291 304.101C169.45 303.514 181.338 302.286 190.368 301.112C201.24 299.697 208.774 298.283 215.96 294.226C221.971 290.836 224.375 287.5 225.23 286.219C227.821 282.295 228.035 278.719 228.142 276.717C228.409 271.833 226.806 267.856 225.47 265.347C217.269 266.842 209.068 268.336 200.866 269.831Z" fill="#6C6D6D"/>
<path opacity="0.19" d="M225.737 265.908C225.203 270.872 223.306 278.719 215.746 284.912C211.098 288.728 206.102 290.436 186.494 295.721C177.838 298.043 167.366 300.792 155.452 303.782C170.599 303.621 182.914 302.367 191.757 301.166C200.92 299.912 205.408 298.817 210.056 296.815C214.464 294.92 223.36 291.077 226.993 282.99C230.493 275.143 226.966 268.097 225.737 265.908Z" fill="#6C6D6D"/>
<path opacity="0.22" d="M155.532 304.181C155.425 307.705 155.585 311.735 156.253 316.165C156.894 320.543 157.936 324.466 159.058 327.882C159.966 327.349 161.008 326.628 162.023 325.747C163.252 324.68 164.161 323.665 164.828 322.785C163.279 320.756 161.703 318.407 160.234 315.765C157.856 311.495 156.44 307.544 155.532 304.181Z" fill="#6C6D6D"/>
<path d="M154.302 343.47C156.359 347.5 158.39 351.53 160.447 355.587C147.303 371.014 145.593 375.391 146.582 376.459C148.532 378.594 162.53 369.173 163.973 368.212C169.182 364.715 173.136 361.326 175.754 358.924C174.819 355.641 173.59 351.957 171.88 348.034C169.663 342.909 167.179 338.585 164.855 335.036C161.328 337.865 157.802 340.667 154.302 343.47Z" fill="#444762"/>
<path d="M231.134 264.414C232.069 267.056 233.031 270.739 233.191 275.25C233.431 282.029 231.722 287.421 230.439 290.543C229.745 291.718 228.516 293.666 226.699 295.801C226.699 295.801 222.585 300.579 216.014 304.236C209.308 307.972 189.807 312.536 163.359 313.39C164.134 317.688 165.496 322.946 167.981 328.604C169.343 331.727 170.839 334.476 172.309 336.851C171.347 338.533 168.569 342.777 163.039 345.472C157.723 348.061 152.86 347.768 150.91 347.527C148.132 344.218 145.274 340.241 142.656 335.517C134.855 321.531 133.038 307.999 132.718 299.325C134.641 297.536 137.473 295.027 141.16 292.385C148.88 286.86 155.906 283.817 161.73 281.575C171.694 277.759 181.285 275.116 203.271 270.232C210.056 268.711 219.62 266.656 231.134 264.414Z" fill="white" stroke="#444762" stroke-width="0.534289" stroke-miterlimit="10"/>
<path opacity="0.19" d="M206.742 270.178C205.994 276.584 203.884 284.885 197.366 290.063C191.034 295.107 185.691 293.052 173.002 297.082C163.866 299.965 151.764 303.808 148.398 312.296C144.872 321.21 151.524 333.808 163.144 344.111C164.133 343.95 165.362 343.603 166.671 342.936C170.037 341.201 171.666 338.345 172.281 337.091C170.785 334.742 169.235 332.02 167.819 328.897C165.148 323.052 163.705 317.634 162.904 313.23C176.528 312.482 187.935 310.961 196.644 309.493C207.116 307.732 214.329 305.943 221.248 300.845C227.019 296.575 229.343 292.385 230.144 290.783C232.629 285.845 232.842 281.361 232.949 278.853C233.19 272.714 231.667 267.723 230.385 264.573C222.504 266.415 214.623 268.283 206.742 270.178Z" fill="#6C6D6D"/>
<path opacity="0.19" d="M230.626 265.241C230.118 271.46 228.302 281.336 221.035 289.129C216.547 293.933 211.766 296.069 192.932 302.715C184.597 305.65 174.552 309.094 163.092 312.857C177.651 312.643 189.512 311.095 198.008 309.574C206.823 307.999 211.151 306.638 215.586 304.129C219.833 301.727 228.355 296.923 231.882 286.727C235.221 276.852 231.828 268.017 230.626 265.241Z" fill="#6C6D6D"/>
<path opacity="0.22" d="M163.173 313.363C163.066 317.794 163.226 322.865 163.867 328.416C164.508 333.941 165.47 338.852 166.565 343.123C167.447 342.429 168.435 341.548 169.424 340.427C170.599 339.093 171.481 337.811 172.122 336.717C170.626 334.155 169.103 331.219 167.714 327.883C165.417 322.545 164.027 317.553 163.173 313.363Z" fill="#6C6D6D"/>
<path d="M152.78 222.935C152.272 222.695 151.257 222.242 151.284 221.734C151.337 220.907 154.089 220.347 156.146 220.373C157.535 220.373 160.1 220.667 163.092 222.749C160.287 223.629 156.146 224.43 152.78 222.935Z" fill="white" stroke="#202236" stroke-width="0.534289" stroke-miterlimit="10"/>
<path d="M217.028 188.319C211.953 187.651 207.385 195.258 206.957 195.952C205.408 198.595 205.221 200.356 204.152 205.187C201.561 216.958 200.172 222.936 196.325 226.539C192.852 229.769 188.791 230.543 187.723 230.703C183.154 231.424 179.014 229.716 170.946 226.273C164.134 223.363 163.306 222.296 159.592 221.869C157.696 221.655 152.166 221.041 148.506 224.591C146.155 226.86 145.113 230.49 145.968 231.237C147.063 232.198 151.551 228.808 151.605 228.888C151.631 228.942 150.269 229.582 149.147 230.97C148.586 231.637 147.624 233.079 147.972 233.452C148.586 234.2 152.353 229.662 156.493 230.463C159.325 230.997 159.859 233.559 163.145 234.039C165.069 234.333 166.752 233.746 167.82 233.239C169.69 235.267 172.736 238.15 177.144 240.498C179.762 241.886 189.005 246.664 200.305 243.888C212.3 240.952 218.337 231.584 220.234 228.648C221.303 226.966 229.157 214.422 225.363 200.356C224.696 198.087 222.264 189.013 217.028 188.319Z" fill="white" stroke="#202236" stroke-width="0.534289" stroke-miterlimit="10"/>
<path opacity="0.25" d="M216.495 188.398C214.759 189.306 218.125 195.605 217.697 204.626C217.297 213.301 213.583 219.706 211.927 222.642C209.683 226.566 206.718 231.69 200.814 235.026C192.88 239.51 183.049 238.843 176.05 235.801C173.966 234.893 171.855 231.957 167.261 230.169C165.257 229.395 163.681 229.075 161.838 228.701C157.323 227.82 153.316 227.019 149.602 228.888C147.839 229.795 146.37 231.183 146.477 231.37C146.584 231.557 148.641 230.516 150.457 229.528C148.267 232.438 147.919 233.265 148.08 233.425C148.267 233.585 148.934 232.971 150.644 232.01C152.487 230.996 153.823 230.276 155.453 230.409C156.281 230.489 156.922 230.756 157.296 230.916C158.765 231.557 159.113 232.304 160.582 233.051C161.49 233.505 162.238 233.692 162.639 233.772C163.494 233.959 165.257 234.199 167.581 233.372C169.611 235.507 178.935 244.955 192.586 244.768C199.612 244.662 204.768 242.046 206.798 241.005C217.938 235.213 222.373 224.938 223.495 222.108C226.967 213.354 228.196 200.382 221.838 192.242C220.315 190.267 217.697 187.784 216.495 188.398Z" fill="#6C6D6D"/>
<path d="M146.448 231.237C147.49 229.689 148.853 228.461 150.482 227.58C150.83 227.393 150.509 226.886 150.188 227.073C148.479 228.007 147.036 229.315 145.941 230.943C145.7 231.263 146.235 231.557 146.448 231.237Z" fill="#202236"/>
<path d="M146.769 227.794C147.811 226.166 149.494 225.311 151.177 224.484C151.524 224.324 151.23 223.79 150.883 223.977C149.093 224.831 147.33 225.765 146.234 227.5C146.047 227.82 146.555 228.114 146.769 227.794Z" fill="#202236"/>
<path opacity="0.29" d="M224.161 198.007C223.761 200.703 223.039 204.599 221.757 209.19C219.246 218.265 216.975 226.432 211.044 232.918C203.698 240.925 193.733 243.114 188.017 243.781C192.264 244.768 195.604 244.582 197.714 244.288C213.743 242.046 222.398 224.831 224.749 217.304C225.15 215.969 226.005 213.22 226.111 209.457C226.298 204.439 225.07 200.409 224.161 198.007Z" fill="#6C6D6D"/>
<path opacity="0.26" d="M157.026 230.142C158.549 230.889 160.633 231.717 163.197 232.197C165.228 232.571 167.044 232.651 168.487 232.598C164.827 234.546 162.93 234.306 161.862 233.665C161.194 233.265 160.446 232.464 158.389 231.05C157.828 230.649 157.347 230.329 157.026 230.142Z" fill="#6C6D6D"/>
<path d="M103.011 274.021C103.011 286.832 103.011 299.67 103.011 312.482C103.011 314.03 105.415 314.03 105.415 312.482C105.415 299.67 105.415 286.832 105.415 274.021C105.415 272.499 103.011 272.473 103.011 274.021Z" fill="#444762"/>
<path d="M146.716 273.514C146.716 275.569 146.716 277.624 146.716 279.68C146.716 281.228 149.12 281.228 149.12 279.68C149.12 277.624 149.12 275.569 149.12 273.514C149.12 271.966 146.716 271.966 146.716 273.514Z" fill="#444762"/>
<path d="M69.8315 272.446C82.7881 260.249 95.7446 248.025 108.728 235.827C129.699 236.201 150.643 236.574 171.614 236.948C168.194 248.799 164.775 260.623 161.355 272.473C130.847 272.446 100.339 272.446 69.8315 272.446Z" fill="white" stroke="#444762" stroke-width="0.534289" stroke-miterlimit="10"/>
<path d="M70.6064 273.834C94.035 273.834 117.437 273.834 140.865 273.834C147.437 273.834 153.982 273.834 160.554 273.834C162.104 273.834 162.104 271.432 160.554 271.432C137.125 271.432 113.724 271.432 90.295 271.432C83.7232 271.432 77.1782 271.432 70.6064 271.432C69.057 271.432 69.057 273.834 70.6064 273.834Z" fill="#444762"/>
<path d="M77.4717 273.434C77.4717 299.991 77.4717 326.548 77.4717 353.078C77.4717 360.525 77.4717 367.945 77.4717 375.391C77.4717 376.939 79.876 376.939 79.876 375.391C79.876 348.834 79.876 322.277 79.876 295.747C79.876 288.301 79.876 280.881 79.876 273.434C79.876 271.886 77.4717 271.886 77.4717 273.434Z" fill="#444762"/>
<path d="M150.75 273.434C150.75 299.991 150.75 326.548 150.75 353.078C150.75 360.525 150.75 367.945 150.75 375.391C150.75 376.939 153.154 376.939 153.154 375.391C153.154 348.834 153.154 322.277 153.154 295.747C153.154 288.301 153.154 280.881 153.154 273.434C153.154 271.886 150.75 271.886 150.75 273.434Z" fill="#444762"/>
<path d="M78.6738 322.997C97.5342 322.997 116.395 322.997 135.255 322.997C140.598 322.997 145.941 322.997 151.284 322.997C152.833 322.997 152.833 320.595 151.284 320.595C132.423 320.595 113.563 320.595 94.7025 320.595C89.3596 320.595 84.0167 320.595 78.6738 320.595C77.1244 320.595 77.1244 322.997 78.6738 322.997Z" fill="#444762"/>
<path d="M171.292 236.948C168.247 248.826 164.747 260.596 160.74 272.18C160.393 273.167 161.942 273.568 162.289 272.607C166.296 260.996 169.796 249.253 172.842 237.375C173.082 236.388 171.559 235.961 171.292 236.948Z" fill="#444762"/>
<path d="M43.3842 378.007C57.5696 378.007 71.7283 378.007 85.9137 378.007C87.4631 378.007 87.4631 375.605 85.9137 375.605C71.7283 375.605 57.5696 375.605 43.3842 375.605C41.8348 375.605 41.8348 378.007 43.3842 378.007Z" fill="#444762"/>
<path d="M91.8711 377.473C95.1302 377.473 98.4161 377.473 101.675 377.473C103.225 377.473 103.225 375.071 101.675 375.071C98.4161 375.071 95.1302 375.071 91.8711 375.071C90.3216 375.071 90.3216 377.473 91.8711 377.473Z" fill="#444762"/>
<path d="M134.4 377.82C147.17 377.82 159.939 377.82 172.736 377.82C174.285 377.82 174.285 375.418 172.736 375.418C159.966 375.418 147.197 375.418 134.4 375.418C132.851 375.418 132.851 377.82 134.4 377.82Z" fill="#444762"/>
<path d="M181.472 376.965C183.742 376.965 186.013 376.965 188.311 376.965C189.86 376.965 189.86 374.563 188.311 374.563C186.04 374.563 183.769 374.563 181.472 374.563C179.922 374.563 179.922 376.965 181.472 376.965Z" fill="#444762"/>
<path d="M30.5078 369.546C36.0377 369.546 41.5676 369.546 47.0708 369.546C48.6202 369.546 48.6202 367.144 47.0708 367.144C41.5409 367.144 36.011 367.144 30.5078 367.144C28.9583 367.144 28.9583 369.546 30.5078 369.546Z" fill="#444762"/>
<path d="M147.357 267.402C130.874 266.975 114.365 266.575 97.8818 266.148C107.659 256.806 117.41 247.438 127.188 238.096C138.461 238.683 149.761 239.271 161.035 239.858C156.467 249.066 151.925 258.221 147.357 267.402Z" fill="white" stroke="#202236" stroke-width="0.534289" stroke-miterlimit="10"/>
<path d="M126.626 237.909C117.036 247.171 107.445 256.459 97.8549 265.72C97.4275 250.881 96.9733 236.014 96.5459 221.174C106.27 215.035 115.994 208.897 125.718 202.758C125.985 214.475 126.306 226.192 126.626 237.909Z" fill="white" stroke="#202236" stroke-width="0.534289" stroke-miterlimit="10"/>
<path d="M97.428 222.589C98.2028 235.8 98.7103 249.039 98.9775 262.277C98.9775 262.544 99.3782 262.544 99.3782 262.277C99.1111 249.039 98.6035 235.8 97.8288 222.589C97.802 222.348 97.4013 222.348 97.428 222.589Z" fill="#202236"/>
<path d="M97.6413 222.642C106.591 216.824 115.54 211.005 124.489 205.187C124.703 205.053 124.516 204.706 124.276 204.84C115.326 210.658 106.377 216.477 97.4276 222.295C97.2138 222.455 97.4009 222.802 97.6413 222.642Z" fill="#202236"/>
<path d="M124.383 205.16C124.356 215.81 124.677 226.486 125.371 237.109C125.398 237.376 125.799 237.376 125.772 237.109C125.104 226.459 124.757 215.81 124.784 205.16C124.784 204.92 124.383 204.92 124.383 205.16Z" fill="#202236"/>
<path d="M99.2444 262.838C108.007 254.377 116.796 245.916 125.558 237.482C125.745 237.295 125.451 237.028 125.264 237.189C116.502 245.649 107.713 254.11 98.9505 262.544C98.7902 262.731 99.0574 263.025 99.2444 262.838Z" fill="#202236"/>
<path d="M139.824 258.3C141.453 255.711 143.083 253.096 144.659 250.453C144.793 250.24 144.445 250.026 144.312 250.24C142.735 252.882 141.106 255.498 139.476 258.087C139.316 258.3 139.663 258.514 139.824 258.3Z" fill="#202236"/>
<path d="M144.552 250.374C146.662 250.454 148.773 250.454 150.883 250.347C151.15 250.347 151.15 249.946 150.883 249.946C148.773 250.026 146.662 250.026 144.552 249.973C144.285 249.973 144.285 250.374 144.552 250.374Z" fill="#202236"/>
<path d="M150.615 250.24C149.413 252.856 148.184 255.471 146.955 258.087C146.848 258.327 147.196 258.514 147.303 258.3C148.531 255.685 149.76 253.069 150.962 250.453C151.069 250.187 150.722 250 150.615 250.24Z" fill="#202236"/>
<path d="M139.69 258.515C142.041 258.862 144.525 258.702 146.903 258.595C147.17 258.595 147.17 258.194 146.903 258.194C144.579 258.301 142.121 258.461 139.797 258.141C139.53 258.087 139.423 258.488 139.69 258.515Z" fill="#202236"/>
<path d="M148.452 250.267C147.384 252.936 146.155 255.525 144.766 258.034C144.632 258.247 144.98 258.461 145.113 258.247C146.502 255.685 147.758 253.069 148.853 250.374C148.933 250.133 148.559 250.027 148.452 250.267Z" fill="#202236"/>
<path d="M109.743 262.357C115.62 255.097 121.711 247.998 127.989 241.058C128.149 240.871 127.882 240.578 127.695 240.765C121.417 247.677 115.326 254.777 109.449 262.064C109.288 262.277 109.582 262.544 109.743 262.357Z" fill="#202236"/>
<path d="M116.848 262.811C122.111 255.471 127.667 248.371 133.491 241.485C133.651 241.298 133.384 241.005 133.197 241.192C127.347 248.104 121.79 255.231 116.501 262.597C116.34 262.811 116.688 263.024 116.848 262.811Z" fill="#202236"/>
<path d="M124.49 263.905C129.058 256.272 134.053 248.905 139.45 241.832C139.61 241.619 139.263 241.432 139.102 241.619C133.706 248.692 128.711 256.058 124.142 263.692C124.009 263.905 124.356 264.119 124.49 263.905Z" fill="#202236"/>
<path d="M130.901 264.572C135.389 256.218 140.705 248.345 146.796 241.085C146.956 240.898 146.689 240.604 146.502 240.791C140.385 248.078 135.042 255.978 130.527 264.359C130.42 264.599 130.767 264.813 130.901 264.572Z" fill="#202236"/>
<path d="M113.163 258.034C120.002 257.313 126.841 258.168 133.653 259.075C133.92 259.102 133.893 258.701 133.653 258.675C126.867 257.767 120.028 256.886 113.163 257.634C112.922 257.66 112.922 258.061 113.163 258.034Z" fill="#202236"/>
<path d="M116.609 254.136C123.073 253.896 129.538 254.377 135.896 255.604C136.137 255.658 136.244 255.257 136.003 255.231C129.618 254.003 123.1 253.523 116.609 253.763C116.368 253.736 116.368 254.136 116.609 254.136Z" fill="#202236"/>
<path d="M119.708 250.373C125.932 249.973 132.157 250.534 138.221 252.028C138.461 252.082 138.568 251.708 138.328 251.655C132.237 250.133 125.986 249.573 119.708 249.973C119.441 250 119.441 250.4 119.708 250.373Z" fill="#202236"/>
<path d="M122.913 246.61C128.897 246.637 134.828 247.251 140.678 248.452C140.919 248.505 141.026 248.105 140.785 248.078C134.908 246.877 128.924 246.263 122.913 246.236C122.673 246.21 122.673 246.61 122.913 246.61Z" fill="#202236"/>
<path d="M126.092 243.114C131.783 243.22 137.446 243.888 142.976 245.142C143.216 245.196 143.323 244.822 143.083 244.769C137.5 243.514 131.809 242.82 126.092 242.74C125.825 242.713 125.825 243.114 126.092 243.114Z" fill="#202236"/>
<path d="M144.418 247.171C141.8 251.014 139.209 254.857 136.591 258.701C136.458 258.914 136.805 259.128 136.938 258.914C139.556 255.071 142.148 251.228 144.766 247.384C144.926 247.144 144.579 246.957 144.418 247.171Z" fill="#202236"/>
<path d="M100.179 241.352C103.519 239.938 107.125 240.739 110.651 240.685C113.617 240.659 116.448 239.831 118.986 238.336C119.2 238.203 119.013 237.856 118.773 237.989C115.647 239.831 112.334 240.418 108.755 240.258C105.763 240.125 102.797 239.831 99.9656 241.032C99.7519 241.112 99.9389 241.459 100.179 241.352Z" fill="#202236"/>
<path d="M109.182 239.697C114.899 236.468 117.544 229.662 123.501 226.806C123.742 226.699 123.528 226.352 123.288 226.459C117.304 229.341 114.685 236.121 108.969 239.35C108.755 239.484 108.942 239.831 109.182 239.697Z" fill="#202236"/>
<path d="M116.448 220.667C115.459 219.893 115.62 218.638 116.181 217.651C116.448 217.17 116.849 216.663 117.303 216.37C118.131 215.836 118.906 216.263 119.547 216.823C119.734 216.983 120.028 216.717 119.841 216.53C118.505 215.409 117.249 215.516 116.154 216.957C115.272 218.131 114.818 219.893 116.154 220.96C116.368 221.121 116.662 220.827 116.448 220.667Z" fill="#202236"/>
<path d="M198.728 201.157C191.408 209.27 189.431 218.185 188.363 223.23C186.413 232.571 188.47 236.308 188.603 254.057C188.657 261.61 188.336 267.722 188.096 271.566C189.752 272.847 200.01 280.48 213.715 277.972C223.866 276.13 229.984 269.778 231.907 267.616C232.362 265.08 233.003 261.343 233.751 256.806C237.704 232.331 239.655 219.92 237.197 211.032C235.728 205.641 232.094 197.1 221.783 188.265C217.455 189.173 207.063 191.948 198.728 201.157Z" fill="#EC615B"/>
<path opacity="0.19" d="M206.183 196.246C208.72 203.826 210.083 210.312 210.884 215.063C212.995 227.634 216.174 246.477 207.224 264.733C204.366 270.552 201.027 274.822 198.676 277.465C201.775 278.185 207.919 279.173 215.239 277.278C223.948 275.036 229.397 269.991 231.641 267.696C233.378 257.767 234.767 249.253 235.836 242.607C237.679 230.917 238.106 227.367 237.919 222.376C237.706 215.97 237.412 209.244 233.565 201.984C229.878 195.045 224.696 190.881 221.517 188.746C218.925 189.2 215.265 190.16 211.392 192.402C209.255 193.684 207.518 195.045 206.183 196.246Z" fill="#6C6D6D"/>
<path opacity="0.18" d="M236.529 208.977C236.048 209.003 237.063 216.396 235.487 226.592C232.575 245.462 223.225 258.541 219.618 263.185C216.6 267.055 211.871 272.393 204.952 277.651C207.437 278.025 210.749 278.185 214.543 277.464C223.545 275.783 229.262 270.258 231.453 267.882C232.014 264.626 232.922 259.528 234.071 253.229C236.769 238.496 237.303 236.735 237.731 232.144C238.906 219.626 237.09 208.977 236.529 208.977Z" fill="#6C6D6D"/>
<path d="M151.658 228.809C151.15 228.462 150.135 227.821 150.242 227.288C150.456 226.433 153.528 226.3 155.745 226.674C157.241 226.914 159.966 227.688 162.825 230.384C159.619 230.837 154.997 230.971 151.658 228.809Z" fill="white" stroke="#202236" stroke-width="0.534289" stroke-miterlimit="10"/>
<path d="M227.073 203.239C221.704 201.664 215.426 208.897 214.865 209.591C212.728 212.127 212.22 213.942 210.216 218.853C205.354 230.863 202.816 236.922 198.008 240.072C193.707 242.901 189.192 243.007 187.99 243.007C182.941 242.981 178.773 240.472 170.652 235.454C163.813 231.21 163.119 229.929 159.165 228.862C157.161 228.328 151.284 226.726 146.716 229.849C143.804 231.824 142.014 235.507 142.816 236.442C143.831 237.643 149.281 234.814 149.307 234.92C149.334 234.974 147.731 235.427 146.289 236.709C145.567 237.322 144.285 238.657 144.579 239.137C145.113 240.045 149.975 235.881 154.303 237.429C157.242 238.47 157.402 241.273 160.848 242.367C162.878 243.007 164.802 242.66 166.031 242.314C167.687 244.796 170.492 248.346 174.82 251.575C177.411 253.497 186.547 260.116 199.237 259.128C212.701 258.088 220.875 249.2 223.413 246.451C224.883 244.876 235.542 232.945 233.912 217.411C233.672 214.876 232.63 204.894 227.073 203.239Z" fill="white" stroke="#202236" stroke-width="0.534289" stroke-miterlimit="10"/>
<path opacity="0.25" d="M226.485 203.239C224.455 203.906 226.993 211.139 224.936 220.614C222.986 229.716 217.857 235.855 215.532 238.657C212.407 242.42 208.32 247.331 201.347 249.84C191.997 253.203 181.498 250.828 174.472 246.424C172.389 245.089 170.625 241.646 165.95 238.951C163.92 237.776 162.291 237.189 160.34 236.468C155.639 234.76 151.418 233.212 147.117 234.573C145.06 235.214 143.216 236.442 143.323 236.655C143.43 236.895 145.808 236.121 147.945 235.401C145.086 238.097 144.552 238.924 144.686 239.137C144.846 239.351 145.701 238.79 147.704 238.096C149.895 237.322 151.418 236.815 153.181 237.242C154.062 237.456 154.704 237.856 155.104 238.096C156.574 239.004 156.814 239.885 158.257 240.926C159.138 241.566 159.94 241.887 160.367 242.047C161.249 242.394 163.119 242.954 165.763 242.474C167.58 245.089 175.995 256.673 190.768 258.808C198.382 259.903 204.393 258.034 206.77 257.26C219.807 253.043 226.405 242.954 228.115 240.152C233.404 231.504 237.011 217.999 231.561 208.283C230.279 205.855 227.875 202.785 226.485 203.239Z" fill="#6C6D6D"/>
<path d="M143.296 236.522C144.712 235.054 146.368 233.986 148.292 233.346C148.666 233.212 148.506 232.652 148.132 232.759C146.128 233.453 144.338 234.573 142.869 236.095C142.602 236.388 143.029 236.815 143.296 236.522Z" fill="#202236"/>
<path d="M144.258 232.945C145.674 231.371 147.651 230.757 149.628 230.196C150.002 230.09 149.841 229.502 149.467 229.609C147.41 230.223 145.327 230.89 143.857 232.518C143.564 232.812 143.991 233.212 144.258 232.945Z" fill="#202236"/>
<path opacity="0.29" d="M233.084 214.716C232.175 217.492 230.706 221.495 228.542 226.139C224.241 235.294 220.368 243.541 212.807 249.387C203.484 256.593 192.317 257.207 186.04 256.913C190.447 258.702 194.107 259.075 196.431 259.129C214.116 259.502 226.512 242.767 230.359 235.241C231.027 233.906 232.416 231.13 233.217 227.18C234.259 221.869 233.645 217.412 233.084 214.716Z" fill="#6C6D6D"/>
<path opacity="0.26" d="M154.944 237.162C156.44 238.203 158.55 239.431 161.248 240.392C163.386 241.139 165.336 241.513 166.885 241.7C162.584 243.114 160.581 242.554 159.539 241.7C158.898 241.166 158.23 240.178 156.226 238.337C155.719 237.83 155.264 237.429 154.944 237.162Z" fill="#6C6D6D"/>
<path d="M185.666 149.404C185.373 151.112 185.079 152.82 184.838 154.609C183.796 161.868 183.369 168.728 183.342 175.107C184.812 174.947 186.254 174.787 187.723 174.653C187.563 176.068 187.109 181.246 190.422 186.37C193.547 191.201 198.035 192.963 199.424 193.443C199.264 196.059 199.131 198.648 198.97 201.263C201.855 198.701 205.782 195.685 210.778 192.989C214.598 190.934 218.205 189.52 221.277 188.559C217.831 184.288 216.522 180.258 215.961 177.936C214.999 173.933 215.186 170.489 215.373 167.447C215.56 164.324 216.014 161.735 216.415 159.92C217.67 154.208 214.384 145.16 207.839 141.904C201.375 138.675 191.731 141.397 185.666 149.404Z" fill="white" stroke="#202236" stroke-width="0.534289" stroke-miterlimit="10"/>
<path d="M187.109 174.84C187.857 174.733 188.631 174.653 189.379 174.573C189.646 174.546 189.646 174.146 189.379 174.172C188.578 174.253 187.803 174.359 187.002 174.466C186.761 174.466 186.868 174.867 187.109 174.84Z" fill="#202236"/>
<path d="M211.206 153.541C207.973 154.368 207.386 157.171 203.298 163.016C199.157 168.941 196.539 172.651 191.864 174.813C188.846 176.201 187.35 175.827 186.014 177.616C183.716 180.712 185.266 185.81 186.628 188.425C188.205 191.441 190.609 193.256 192.586 194.751C194.482 196.166 196.219 197.1 197.448 197.66C196.139 195.658 196.059 195.045 196.219 194.858C196.646 194.431 198.463 196.726 200.6 196.432C201.214 196.352 202.31 196.005 204.741 192.189C206.397 189.6 207.519 187.811 208.267 185.249C209.897 179.751 207.599 178.256 208.267 171.023C208.374 169.929 209.122 161.361 212.167 160.801C213.263 160.587 214.385 161.495 214.919 162.189C216.041 163.657 215.907 166.005 214.518 168.034C214.972 167.714 219.327 164.778 219.273 160C219.273 159.253 219.247 156.504 217.163 154.715C214.785 152.687 211.473 153.488 211.206 153.541Z" fill="#202236" stroke="#202236" stroke-width="0.534289" stroke-miterlimit="10"/>
<path d="M189.673 165.685C190.293 165.685 190.795 164.789 190.795 163.683C190.795 162.578 190.293 161.682 189.673 161.682C189.054 161.682 188.551 162.578 188.551 163.683C188.551 164.789 189.054 165.685 189.673 165.685Z" fill="#202236"/>
<path d="M181.125 166.619C181.745 166.619 182.247 165.723 182.247 164.618C182.247 163.512 181.745 162.616 181.125 162.616C180.505 162.616 180.003 163.512 180.003 164.618C180.003 165.723 180.505 166.619 181.125 166.619Z" fill="#202236"/>
<path d="M179.442 161.335C180.163 160.507 181.285 160.427 182.086 161.228C182.46 161.602 183.021 161.014 182.647 160.668C181.552 159.6 179.869 159.627 178.854 160.774C178.56 161.175 179.121 161.735 179.442 161.335Z" fill="#202236"/>
<path d="M188.203 159.947C189.138 159.173 190.367 159.28 191.169 160.16C191.516 160.534 192.077 159.974 191.73 159.6C190.608 158.399 188.871 158.345 187.616 159.386C187.242 159.707 187.803 160.267 188.203 159.947Z" fill="#202236"/>
<path d="M184.758 152.58C185.052 150.658 185.8 147.509 187.857 144.253C188.578 143.105 190.127 140.676 192.585 139.021C197.287 135.899 204.527 136.139 209.789 139.982C214.945 143.746 217.51 150.472 216.388 157.144C205.836 155.65 195.31 154.128 184.758 152.58Z" fill="#5D34D0"/>
<path d="M167.5 152.821C183.716 154.902 199.959 156.984 216.174 159.039C217.697 159.226 217.697 156.824 216.174 156.637C199.959 154.555 183.716 152.474 167.5 150.418C165.978 150.205 165.978 152.607 167.5 152.821Z" fill="#202236"/>
<path d="M198.489 137.073C202.657 137.981 205.809 141.344 206.343 145.374C206.824 148.897 205.275 152.474 202.336 154.662C206.958 155.276 211.606 155.917 216.228 156.53C216.468 155.303 216.682 153.434 216.388 151.246C215.693 146.121 212.728 142.838 211.766 141.851C210.724 140.783 207.038 137.207 201.561 136.886C200.306 136.833 199.237 136.94 198.489 137.073Z" fill="#4527AD"/>
</svg>
