<svg width="375" height="422" viewBox="0 0 375 422" fill="none" xmlns="http://www.w3.org/2000/svg">
<path d="M375 200.523C375 200.523 306.42 249 179 249C51.5801 249 0 220.523 0 220.523L0 0L375 0L375 200.523Z" fill="#5964D1"/>
<path d="M35.234 215.81C39.8625 212.037 46.1293 211.491 51.85 212.531C57.9607 213.624 63.5254 216.565 69.1681 219.037C74.9928 221.614 80.9215 223.461 87.3183 223.773C93.689 224.112 100.06 223.201 106.249 221.64C119.172 218.387 131.03 212.141 143.433 207.431C149.648 205.063 156.071 203.007 162.675 202.07C166.264 201.55 169.878 201.42 173.493 201.81C176.925 202.174 180.279 202.981 183.634 203.814C191.045 205.661 198.43 207.275 206.023 208.186C213.85 209.122 221.755 209.435 229.633 209.174C230.128 209.148 230.128 208.368 229.633 208.394C215.332 208.914 201.03 207.379 187.144 203.918C180.514 202.252 173.935 200.535 167.044 200.873C160.361 201.211 153.756 202.981 147.464 205.141C134.852 209.487 122.995 215.862 110.201 219.74C103.7 221.692 96.9654 223.045 90.1526 223.071C83.2358 223.097 76.735 221.483 70.4162 218.725C64.1755 216.019 58.0647 212.662 51.2779 211.621C45.5052 210.736 39.3425 211.438 34.6879 215.238C34.2978 215.576 34.8439 216.149 35.234 215.81Z" fill="#E8E8E8"/>
<path d="M175.287 192.024C193.308 199.805 213.772 198.504 232.208 192.857C242.194 189.786 252.127 185.675 262.762 185.701C273.475 185.727 283.643 189.474 294.122 191.139C303.639 192.649 314.118 192.467 322.283 186.742C322.699 186.455 322.309 185.779 321.893 186.065C314.352 191.348 304.783 191.816 295.942 190.619C285.931 189.266 276.31 185.779 266.194 185.05C256.079 184.321 246.536 187.366 237.045 190.489C227.58 193.586 218.011 196.006 208.051 196.578C197.026 197.229 185.871 195.746 175.703 191.348C175.235 191.139 174.845 191.816 175.287 192.024Z" fill="#E8E8E8"/>
<path d="M25.3013 256.9C30.996 252.841 37.7308 250.343 44.6997 249.666C48.1841 249.328 51.6945 249.458 55.1269 250.056C58.6894 250.681 62.1218 251.878 65.5282 253.075C71.8469 255.261 78.1137 256.926 84.7705 255.391C90.5172 254.064 95.7178 251.071 100.814 248.235C106.821 244.878 113.062 241.443 120.031 240.818C120.525 240.766 120.525 239.985 120.031 240.037C107.601 241.156 98.2661 250.499 86.6687 254.064C83.7304 254.975 80.662 255.443 77.5936 255.261C73.8232 255.027 70.1567 253.856 66.6203 252.633C63.0579 251.41 59.4955 250.082 55.751 249.38C52.5266 248.781 49.2242 248.599 45.9738 248.807C38.4329 249.276 31.074 251.852 24.9113 256.25C24.4952 256.51 24.8853 257.187 25.3013 256.9Z" fill="#E8E8E8"/>
<path d="M94.2354 266.893C104.351 256.197 119.224 251.826 133.604 251.695C141.951 251.617 150.272 252.814 158.411 254.558C166.16 256.197 173.675 258.331 181.684 257.264C190.057 256.145 197.884 252.554 205.373 248.781C205.815 248.547 205.425 247.87 204.983 248.104C197.858 251.695 190.447 255.104 182.516 256.354C178.46 256.978 174.377 256.926 170.321 256.275C166.212 255.625 162.208 254.532 158.125 253.673C143.251 250.55 127.415 249.223 112.802 254.298C105.599 256.796 98.942 260.777 93.6894 266.32C93.3513 266.711 93.8974 267.257 94.2354 266.893Z" fill="#E8E8E8"/>
<path d="M214.76 274.674C218.999 276.157 223.341 274.778 227.216 272.93C231.558 270.849 235.641 268.272 240.087 266.425C244.534 264.577 249.318 263.328 254.155 263.926C258.576 264.473 262.658 266.451 266.533 268.559C270.199 270.562 273.813 272.748 277.714 274.284C282.056 275.975 286.737 276.782 291.392 276.678C300.935 276.47 309.048 271.707 317.759 268.48C325.898 265.462 336.741 264.109 343.268 271.187C343.606 271.551 344.152 271.005 343.814 270.64C338.691 265.097 330.526 264.473 323.505 265.956C314.352 267.882 306.447 273.477 297.242 275.273C292.328 276.235 287.179 276.105 282.316 274.934C277.792 273.841 273.735 271.707 269.679 269.443C266.012 267.388 262.294 265.254 258.264 264.031C254.077 262.755 249.708 262.729 245.47 263.77C240.295 265.045 235.537 267.57 230.882 270.12C226.072 272.722 220.507 275.897 214.916 273.945C214.5 273.763 214.292 274.518 214.76 274.674Z" fill="#E8E8E8"/>
<path d="M283.227 287.218C293.992 287.868 302.859 280.556 313.026 278.344C315.731 277.745 318.591 277.485 321.347 277.954C323.818 278.37 326.054 279.385 328.186 280.686C331.853 282.924 335.415 285.813 339.888 286.125C345.322 286.489 350.133 283.106 354.189 279.931C354.579 279.619 354.033 279.073 353.643 279.385C349.691 282.456 344.958 285.813 339.654 285.318C335.051 284.902 331.411 281.571 327.536 279.411C318.617 274.414 309.074 278.344 300.519 282.117C295.032 284.511 289.337 286.827 283.253 286.463C282.733 286.411 282.733 287.192 283.227 287.218Z" fill="#E8E8E8"/>
<path d="M37.7823 336.974C41.5528 333.383 47.1435 331.978 52.1621 333.357C57.4147 334.788 60.7951 339.316 65.0076 342.439C73.4066 348.659 84.848 347.67 94.0791 344C104.974 339.681 114.05 331.874 124.919 327.476C130.224 325.316 135.97 323.937 141.743 324.327C147.36 324.717 152.144 327.137 156.591 330.416C161.011 333.669 165.172 337.521 170.346 339.576C175.885 341.762 182.126 341.294 187.326 338.405C187.768 338.171 187.378 337.495 186.936 337.729C181.632 340.669 175.287 340.93 169.748 338.483C165.12 336.428 161.323 332.993 157.293 329.974C153.158 326.877 148.764 324.457 143.563 323.728C138.206 323 132.746 323.911 127.675 325.602C116.572 329.323 107.419 337 96.8875 341.919C87.1623 346.473 74.6548 348.606 65.4237 341.762C60.8211 338.353 57.2067 333.487 51.278 332.342C46.2594 331.379 40.9287 332.888 37.2363 336.428C36.8722 336.766 37.4183 337.338 37.7823 336.974Z" fill="#E8E8E8"/>
<path d="M137.687 351.494C141.978 348.71 147.074 347.383 152.197 347.799C156.878 348.189 161.298 349.933 165.589 351.676C169.749 353.368 173.962 355.137 178.434 355.866C183.115 356.621 187.847 356.048 192.346 354.669C197.729 353.004 202.721 350.349 207.636 347.669C208.078 347.435 207.688 346.758 207.246 346.992C198.249 351.859 188.367 356.985 177.81 354.955C168.995 353.264 161.246 347.799 152.171 347.018C146.918 346.576 141.666 347.955 137.271 350.818C136.881 351.104 137.271 351.78 137.687 351.494Z" fill="#E8E8E8"/>
<path d="M235.849 369.138C241.517 363.829 248.486 360.004 256.001 358.052C259.824 357.063 263.75 356.569 267.703 356.595C272.097 356.647 276.466 357.349 280.834 357.766C289.311 358.573 297.45 357.141 305.381 354.044C312.948 351.104 320.073 346.003 328.212 344.754C337.729 343.297 345.088 349.621 351.147 356.1C351.485 356.465 352.031 355.918 351.693 355.554C346.7 350.219 340.823 344.702 333.231 343.843C324.91 342.907 317.343 347.799 310.114 351.156C301.793 355.033 292.822 357.688 283.59 357.167C278.988 356.907 274.437 356.074 269.809 355.84C265.882 355.632 261.93 355.918 258.081 356.725C249.578 358.468 241.647 362.58 235.303 368.539C234.939 368.93 235.485 369.476 235.849 369.138Z" fill="#E8E8E8"/>
<path d="M83.6 204.698C90.8809 210.345 100.372 207.847 108.303 205.244C118.132 201.991 128.091 199.936 138.493 199.727C138.987 199.727 138.987 198.947 138.493 198.947C128.923 199.129 119.484 200.768 110.383 203.735C102.14 206.415 91.895 210.189 84.1461 204.151C83.756 203.839 83.21 204.386 83.6 204.698Z" fill="#E8E8E8"/>
<path d="M153.705 157.388C162.494 156.737 170.971 154.291 179.474 152.235C188.315 150.075 197.182 148.644 206.309 149.633C215.514 150.622 224.433 153.406 233.456 155.384C242.141 157.31 250.956 158.195 259.849 157.752C269.861 157.258 279.742 155.15 289.077 151.559C289.545 151.377 289.337 150.622 288.869 150.804C271.889 157.336 253.349 158.715 235.562 155.02C226.695 153.172 218.01 150.466 209.039 149.165C200.38 147.915 191.929 148.618 183.4 150.492C173.519 152.652 163.82 155.827 153.705 156.581C153.21 156.659 153.21 157.44 153.705 157.388Z" fill="#E8E8E8"/>
<path d="M294.434 222.602C302.027 219.791 309.906 223.799 317.499 224.527C321.581 224.918 325.638 224.527 329.616 223.59C333.517 222.654 337.313 221.274 341.292 220.676C345.556 220.025 350.107 220.286 353.799 222.706C354.215 222.992 354.605 222.315 354.189 222.029C347.636 217.761 339.627 220.051 332.711 221.977C328.368 223.2 324.026 224.085 319.501 223.903C315.185 223.747 311.05 222.55 306.837 221.665C302.651 220.806 298.334 220.338 294.252 221.847C293.758 222.003 293.966 222.758 294.434 222.602Z" fill="#E8E8E8"/>
<path d="M29.3842 301.556C35.989 295.675 45.2981 300.879 52.631 301.998C61.108 303.299 69.585 300.957 77.672 298.693C78.1661 298.563 77.9581 297.808 77.464 297.939C68.5189 300.437 59.2618 302.909 49.9787 300.697C43.1919 299.084 34.8968 295.649 28.8121 301.009C28.4481 301.322 28.9941 301.868 29.3842 301.556Z" fill="#444762"/>
<path d="M112.542 374.629C114.649 372.131 117.899 370.778 121.175 371.194C123.048 371.428 124.764 372.287 126.48 373.042C127.91 373.666 129.366 374.187 130.848 374.603C137.219 376.373 144.058 376.113 150.273 373.927C150.741 373.771 150.533 373.016 150.065 373.172C143.096 375.592 135.399 375.592 128.456 372.99C125.44 371.871 122.631 370.075 119.277 370.336C116.443 370.544 113.816 371.897 111.97 374.057C111.658 374.473 112.23 375.02 112.542 374.629Z" fill="#444762"/>
<path d="M156.8 372.496C161.532 371.116 166.395 370.44 171.335 370.466C171.829 370.466 171.829 369.685 171.335 369.685C166.343 369.659 161.402 370.362 156.592 371.741C156.124 371.897 156.306 372.652 156.8 372.496Z" fill="#444762"/>
<path d="M162.988 170.217C167.59 173.756 171.985 177.556 176.197 181.589C176.561 181.928 177.107 181.381 176.743 181.043C172.505 176.983 168.032 173.158 163.378 169.567C162.988 169.228 162.598 169.905 162.988 170.217Z" fill="#E8E8E8"/>
<path d="M117.898 183.932C118.34 181.486 118.809 179.04 119.251 176.568C119.355 176.073 118.601 175.865 118.496 176.359C118.054 178.806 117.586 181.252 117.144 183.724C117.066 184.218 117.82 184.427 117.898 183.932Z" fill="#E8E8E8"/>
<path d="M267.832 199.44C268.665 199.44 269.341 198.764 269.341 197.931C269.341 197.097 268.665 196.421 267.832 196.421C266.999 196.421 266.324 197.097 266.324 197.931C266.324 198.764 266.999 199.44 267.832 199.44Z" fill="#EC615B"/>
<path d="M70.7805 324.091C71.7715 324.091 72.5748 323.287 72.5748 322.295C72.5748 321.303 71.7715 320.5 70.7805 320.5C69.7896 320.5 68.9863 321.303 68.9863 322.295C68.9863 323.287 69.7896 324.091 70.7805 324.091Z" fill="#EC615B"/>
<path d="M62.0953 161.42C64.3644 161.42 66.2038 159.579 66.2038 157.308C66.2038 155.038 64.3644 153.197 62.0953 153.197C59.8263 153.197 57.9868 155.038 57.9868 157.308C57.9868 159.579 59.8263 161.42 62.0953 161.42Z" fill="#EC615B"/>
<path d="M70.3386 165.402C71.0998 165.402 71.7168 164.784 71.7168 164.023C71.7168 163.261 71.0998 162.643 70.3386 162.643C69.5775 162.643 68.9604 163.261 68.9604 164.023C68.9604 164.784 69.5775 165.402 70.3386 165.402Z" fill="#EC615B"/>
<path d="M149.076 396.878C150.77 396.878 152.144 395.503 152.144 393.807C152.144 392.111 150.77 390.736 149.076 390.736C147.381 390.736 146.007 392.111 146.007 393.807C146.007 395.503 147.381 396.878 149.076 396.878Z" fill="#EC615B"/>
<path d="M291.677 166.781C293.171 166.781 294.381 165.569 294.381 164.075C294.381 162.58 293.171 161.368 291.677 161.368C290.183 161.368 288.973 162.58 288.973 164.075C288.973 165.569 290.183 166.781 291.677 166.781Z" fill="#EC615B"/>
<path d="M295.136 160.822C296.055 160.822 296.8 160.076 296.8 159.156C296.8 158.236 296.055 157.491 295.136 157.491C294.217 157.491 293.472 158.236 293.472 159.156C293.472 160.076 294.217 160.822 295.136 160.822Z" fill="#EC615B"/>
<path d="M66.2296 147.101C68.4986 147.101 70.3381 145.26 70.3381 142.989C70.3381 140.718 68.4986 138.877 66.2296 138.877C63.9605 138.877 62.1211 140.718 62.1211 142.989C62.1211 145.26 63.9605 147.101 66.2296 147.101Z" fill="#E8E8E8"/>
<path d="M64.1758 326.511C65.3104 326.511 66.2301 325.591 66.2301 324.455C66.2301 323.32 65.3104 322.399 64.1758 322.399C63.0413 322.399 62.1216 323.32 62.1216 324.455C62.1216 325.591 63.0413 326.511 64.1758 326.511Z" fill="#5222D0"/>
<path d="M136.386 390.918C137.391 390.918 138.206 390.103 138.206 389.097C138.206 388.09 137.391 387.275 136.386 387.275C135.381 387.275 134.566 388.09 134.566 389.097C134.566 390.103 135.381 390.918 136.386 390.918Z" fill="#5222D0"/>
<path d="M281.692 147.491C284.075 147.491 286.008 145.557 286.008 143.171C286.008 140.785 284.075 138.851 281.692 138.851C279.308 138.851 277.375 140.785 277.375 143.171C277.375 145.557 279.308 147.491 281.692 147.491Z" fill="#E8E8E8"/>
<path d="M210.626 222.913C211.143 222.913 211.562 222.494 211.562 221.976C211.562 221.459 211.143 221.039 210.626 221.039C210.109 221.039 209.689 221.459 209.689 221.976C209.689 222.494 210.109 222.913 210.626 222.913Z" fill="#5222D0"/>
<path d="M201.03 167.146C200.484 168.421 199.964 169.722 199.418 170.997C199.236 171.466 199.99 171.674 200.172 171.205C200.718 169.93 201.238 168.629 201.784 167.354C201.966 166.886 201.212 166.677 201.03 167.146Z" fill="#5222D0"/>
<path d="M200.9 167.772C201.862 168.787 202.616 169.932 203.11 171.233C203.292 171.701 204.046 171.493 203.864 171.025C203.292 169.593 202.486 168.344 201.446 167.225C201.108 166.861 200.536 167.408 200.9 167.772Z" fill="#5222D0"/>
<path d="M199.626 171.674C200.38 173.079 201.238 174.406 202.2 175.655C202.512 176.046 203.189 175.655 202.877 175.265C201.914 173.99 201.056 172.663 200.302 171.283C200.042 170.841 199.392 171.231 199.626 171.674Z" fill="#5222D0"/>
<path d="M203.162 171.284C202.85 172.741 202.564 174.198 202.252 175.655C202.148 176.15 202.902 176.358 203.006 175.864C203.318 174.406 203.604 172.949 203.916 171.492C204.02 171.023 203.266 170.815 203.162 171.284Z" fill="#5222D0"/>
<path d="M274.281 278.552C273.656 279.697 273.24 280.92 273.058 282.221C272.98 282.716 273.734 282.924 273.812 282.43C273.995 281.207 274.359 280.062 274.957 278.969C275.191 278.5 274.515 278.11 274.281 278.552Z" fill="#5222D0"/>
<path d="M274.229 278.785C274.749 280.164 275.347 281.492 276.024 282.767C276.258 283.209 276.934 282.819 276.7 282.376C276.05 281.153 275.477 279.878 274.983 278.577C274.801 278.109 274.047 278.317 274.229 278.785Z" fill="#5222D0"/>
<path d="M272.903 282.766C273.579 283.729 274.229 284.692 274.905 285.655C275.191 286.071 275.867 285.681 275.581 285.265C274.905 284.302 274.255 283.339 273.579 282.376C273.293 281.96 272.617 282.35 272.903 282.766Z" fill="#5222D0"/>
<path d="M275.737 282.636C275.191 283.391 274.931 284.249 274.931 285.16C274.931 285.655 275.711 285.655 275.711 285.16C275.711 284.38 275.945 283.651 276.413 283.026C276.699 282.61 276.023 282.22 275.737 282.636Z" fill="#5222D0"/>
<path d="M56.7652 352.222C56.0631 353.758 55.361 355.267 54.6589 356.803C54.4509 357.245 55.127 357.661 55.335 357.193C56.0371 355.657 56.7392 354.148 57.4412 352.613C57.6493 352.17 56.9992 351.78 56.7652 352.222Z" fill="#5222D0"/>
<path d="M56.8948 352.43C57.5709 354.044 58.247 355.657 58.9231 357.271C59.1051 357.739 59.8592 357.531 59.6772 357.063C59.0011 355.449 58.325 353.836 57.6489 352.222C57.4669 351.754 56.7128 351.962 56.8948 352.43Z" fill="#5222D0"/>
<path d="M54.4763 357.506C55.1784 358.885 55.8545 360.291 56.5566 361.67C56.6866 361.904 56.9986 361.904 57.1807 361.748C57.7267 361.306 57.9868 360.551 58.2728 359.952C58.6888 359.12 59.1049 358.287 59.5209 357.454C59.755 357.012 59.0789 356.621 58.8449 357.064C58.4808 357.792 58.0908 358.521 57.7267 359.25C57.4147 359.874 57.1287 360.733 56.5826 361.175C56.7906 361.201 56.9986 361.227 57.2067 361.253C56.5046 359.874 55.8285 358.469 55.1264 357.09C54.9184 356.673 54.2423 357.064 54.4763 357.506Z" fill="#5222D0"/>
<path d="M318.487 231.267C317.681 232.802 317.187 234.416 316.953 236.133C316.875 236.628 317.655 236.628 317.733 236.133C317.941 234.546 318.409 233.062 319.137 231.657C319.397 231.215 318.721 230.824 318.487 231.267Z" fill="#5222D0"/>
<path d="M318.383 232.178C319.189 233.739 319.969 235.301 320.775 236.862C321.009 237.304 321.685 236.914 321.451 236.472C320.645 234.91 319.865 233.349 319.059 231.787C318.825 231.345 318.148 231.735 318.383 232.178Z" fill="#5222D0"/>
<path d="M317.004 236.237C317.654 237.798 318.434 239.256 319.37 240.635C319.656 241.051 320.332 240.661 320.046 240.245C319.136 238.917 318.356 237.512 317.758 236.029C317.576 235.586 316.822 235.795 317.004 236.237Z" fill="#5222D0"/>
<path d="M320.541 236.577C320.073 238.034 319.683 239.517 319.423 241.053C319.345 241.547 320.099 241.755 320.177 241.261C320.437 239.751 320.801 238.268 321.295 236.785C321.451 236.316 320.697 236.108 320.541 236.577Z" fill="#5222D0"/>
<path d="M315.47 357.609C315.158 358.65 314.872 359.665 314.56 360.706C314.43 361.201 315.158 361.383 315.314 360.914C315.626 359.873 315.913 358.858 316.225 357.818C316.381 357.323 315.627 357.115 315.47 357.609Z" fill="#5222D0"/>
<path d="M315.417 358.183C315.885 359.224 316.379 360.265 316.847 361.28C317.055 361.748 317.731 361.332 317.523 360.89C317.055 359.849 316.561 358.808 316.093 357.793C315.885 357.325 315.209 357.715 315.417 358.183Z" fill="#5222D0"/>
<path d="M314.768 361.2C315.002 362.424 315.574 363.517 316.38 364.453C316.718 364.844 317.264 364.271 316.926 363.907C316.198 363.074 315.73 362.085 315.522 361.018C315.418 360.498 314.664 360.706 314.768 361.2Z" fill="#5222D0"/>
<path d="M316.821 361.096C316.483 362.189 316.327 363.308 316.353 364.427C316.379 364.922 317.159 364.922 317.133 364.427C317.107 363.36 317.238 362.319 317.576 361.304C317.732 360.836 316.977 360.628 316.821 361.096Z" fill="#5222D0"/>
<path d="M46.9619 220.311C46.3898 221.56 45.8438 222.809 45.2717 224.058C45.0637 224.5 45.7397 224.917 45.9478 224.448C46.5198 223.199 47.0659 221.95 47.638 220.701C47.846 220.259 47.1699 219.842 46.9619 220.311Z" fill="#5222D0"/>
<path d="M45.3748 224.71C45.9729 226.245 46.5449 227.755 47.143 229.29C47.325 229.759 48.0791 229.55 47.8971 229.082C47.299 227.547 46.727 226.037 46.1289 224.502C45.9469 224.033 45.1928 224.242 45.3748 224.71Z" fill="#5222D0"/>
<path d="M46.9613 220.363C47.7674 221.768 48.5735 223.2 49.3796 224.605C49.6396 225.047 50.2897 224.657 50.0557 224.214C49.2496 222.809 48.4435 221.378 47.6374 219.973C47.3774 219.53 46.7013 219.921 46.9613 220.363Z" fill="#5222D0"/>
<path d="M49.562 224.267C48.7299 225.828 48.0018 227.441 47.3777 229.081C47.1957 229.549 47.9498 229.758 48.1318 229.289C48.7299 227.702 49.432 226.14 50.2381 224.657C50.4721 224.215 49.796 223.824 49.562 224.267Z" fill="#5222D0"/>
<path d="M242.973 244.306C243.493 243.317 244.481 242.64 245.625 242.692C246.562 242.718 247.264 243.369 248.096 243.681C249.552 244.202 249.994 243.265 251.086 242.562C252.568 241.573 253.998 243.785 255.585 243.759C256.495 243.733 257.249 243.291 257.275 242.328C257.067 242.432 256.885 242.562 256.677 242.666C257.483 243.083 258.289 243.499 259.069 243.941C259.511 244.175 259.901 243.499 259.459 243.265C258.653 242.848 257.847 242.432 257.067 241.99C256.807 241.859 256.495 242.016 256.469 242.328C256.391 244.175 252.802 241.547 252.126 241.469C250.592 241.261 249.994 243.161 248.668 242.952C247.264 242.718 246.38 241.703 244.871 241.964C243.727 242.172 242.791 242.874 242.271 243.915C242.089 244.358 242.739 244.748 242.973 244.306Z" fill="#5222D0"/>
<path d="M252.933 239.022C254.103 237.72 255.949 239.36 257.275 239.516C258.809 239.698 260.006 238.059 261.488 238.891C262.71 239.594 264.946 241.26 265.83 239.126C266.012 238.657 265.258 238.449 265.076 238.917C264.452 240.427 262.216 238.319 261.462 238.007C260.448 237.564 259.772 237.929 258.861 238.371C257.769 238.891 256.989 238.709 255.949 238.241C255.481 238.033 255.013 237.85 254.493 237.772C253.687 237.668 252.959 237.824 252.387 238.449C252.049 238.839 252.595 239.386 252.933 239.022Z" fill="#5222D0"/>
<path d="M231.817 177.633C232.181 176.956 232.597 176.774 233.065 177.086C233.273 177.165 233.481 177.269 233.689 177.399C233.923 177.503 234.157 177.659 234.391 177.737C234.808 177.867 235.224 177.919 235.64 177.815C236.758 177.503 237.33 176.098 238.526 176.124C239.644 176.15 240.45 177.217 241.62 176.67C242.114 176.436 242.452 176.02 242.921 175.759C243.961 175.187 245.235 175.395 246.119 176.124C246.509 176.436 247.055 175.889 246.665 175.577C245.495 174.614 243.883 174.328 242.53 175.083C241.932 175.421 241.438 176.15 240.658 176.046C240.216 175.993 239.826 175.681 239.41 175.525C238.786 175.291 238.214 175.213 237.59 175.499C236.81 175.863 236.29 176.878 235.432 177.06C234.339 177.295 233.611 176.176 232.597 176.15C231.635 176.124 230.517 177.06 231.167 178.023C231.427 178.44 232.103 178.049 231.817 177.633Z" fill="#EC615B"/>
<path d="M240.451 173.027C240.763 171.336 243.702 172.975 244.742 172.793C245.418 172.689 245.912 172.221 246.536 171.986C247.524 171.596 248.486 171.752 249.396 172.299C249.838 172.559 250.228 171.882 249.786 171.622C249.006 171.154 248.174 170.919 247.29 170.997C246.9 171.023 246.536 171.128 246.198 171.258C245.158 171.7 244.742 172.195 243.441 171.882C242.193 171.57 240.061 170.945 239.723 172.819C239.593 173.314 240.347 173.522 240.451 173.027Z" fill="#EC615B"/>
<path d="M43.581 267.075C43.919 265.435 46.1813 267.673 46.6234 267.96C47.1174 268.298 47.6635 268.532 48.2616 268.402C49.0417 268.272 49.6397 267.621 50.4458 267.439C51.746 267.153 53.0461 267.569 53.9823 268.506C54.3463 268.87 54.8924 268.298 54.5283 267.96C53.7222 267.153 52.7341 266.658 51.59 266.58C51.0179 266.528 50.4458 266.606 49.8998 266.789C49.0417 267.075 48.3656 267.908 47.3255 267.491C46.2333 267.049 45.8173 265.93 44.5691 265.8C43.763 265.722 43.0089 266.034 42.8529 266.867C42.7229 267.361 43.477 267.569 43.581 267.075Z" fill="#EC615B"/>
<path d="M52.2398 265.201C52.8119 264.42 55.4382 265.981 56.1923 266.164C57.4144 266.45 58.6626 266.45 59.9107 266.294C60.4048 266.216 60.1968 265.461 59.7027 265.539C57.5445 265.825 55.8803 265.253 53.93 264.472C53.0459 264.134 52.1618 264.004 51.5637 264.81C51.2777 265.201 51.9538 265.591 52.2398 265.201Z" fill="#EC615B"/>
<path d="M115.636 319.746C116.052 319.096 116.702 318.679 117.508 318.679C118.184 318.679 118.6 319.096 119.198 319.278C119.796 319.486 120.29 319.356 120.811 319.018C121.825 318.341 122.319 317.508 123.697 317.56C124.945 317.586 126.141 318.185 127.233 318.731C127.675 318.965 128.065 318.289 127.623 318.055C125.569 317.014 123.073 316.025 121.097 317.716C120.655 318.081 120.603 318.185 119.926 318.315C119.172 318.471 119.25 318.367 118.678 318.133C118.184 317.925 117.716 317.846 117.17 317.899C116.208 318.003 115.454 318.549 114.96 319.33C114.7 319.772 115.376 320.163 115.636 319.746Z" fill="#EC615B"/>
<path d="M124.295 321.255C125.517 320.188 127.831 322.426 129.339 322.218C130.249 322.088 130.665 321.411 131.263 320.787C132.408 319.564 134.124 319.382 135.528 320.292C135.944 320.553 136.334 319.902 135.918 319.616C134.904 318.965 133.708 318.757 132.538 319.095C132.017 319.251 131.549 319.486 131.133 319.824C130.509 320.344 130.119 321.281 129.235 321.437C127.337 321.776 125.543 319.121 123.748 320.709C123.384 321.047 123.93 321.594 124.295 321.255Z" fill="#EC615B"/>
<path d="M88.8262 154.342C89.0343 153.483 89.5283 152.807 90.3604 152.443C91.0885 152.13 91.6866 152.338 92.4407 152.312C93.2728 152.26 93.8968 151.844 94.3909 151.219C95.145 150.283 95.6391 149.32 96.7052 148.695C97.9273 147.993 99.3315 147.862 100.684 148.279C101.178 148.435 101.36 147.68 100.892 147.524C98.3954 146.77 95.9251 147.732 94.4169 149.84C93.8188 150.673 93.3768 151.506 92.2326 151.532C91.5306 151.558 90.9325 151.402 90.2564 151.636C89.1123 152.026 88.3322 152.989 88.0721 154.134C87.9421 154.628 88.6962 154.837 88.8262 154.342Z" fill="#EC615B"/>
<path d="M92.4931 157.335C91.375 154.369 96.7316 154.525 98.3438 153.952C100.346 153.25 102.062 152.001 103.752 150.752C104.143 150.465 103.752 149.789 103.362 150.075C102.218 150.934 101.048 151.767 99.8 152.443C98.2398 153.276 96.7576 153.536 95.0674 153.796C93.2732 154.083 90.9329 155.332 91.765 157.518C91.921 157.986 92.6751 157.804 92.4931 157.335Z" fill="#EC615B"/>
<path d="M196.194 306.527C198.17 301.348 201.525 297.965 204.983 294.452C209.534 289.846 217.985 281.284 226.592 282.638C233.924 283.783 233.118 290.835 243.182 295.961C252.673 300.828 256.313 296.014 265.778 301.244C267.182 302.025 277.09 307.672 279.352 318.341C280.288 322.765 280.054 328.829 278.104 329.401C275.894 330.052 275.139 317.3 266.298 312.304C259.538 308.479 250.228 310.326 249.474 313.059C248.668 315.947 258.003 317.847 263.282 327.892C265.596 332.264 266.09 336.245 266.792 341.71C267.442 346.863 268.171 357.428 265.778 358.053C263.802 358.573 262.736 351.521 255.481 345.744C251.659 342.699 247.576 341.45 239.411 338.952C232.052 336.714 228.334 335.621 226.332 337.442C223.367 340.149 225.655 347.019 226.072 348.242C228.984 356.986 236.421 360.629 235.875 361.566C235.147 362.737 221.573 359.354 210.496 348.502C201.03 339.212 190.447 321.542 196.194 306.527Z" fill="#EC615B"/>
<path d="M281.094 336.687C280.99 337.416 280.443 341.475 282.836 344.078C285.488 346.94 288.712 344.754 291.963 347.591C294.953 350.193 294.563 354.096 295.473 354.018C296.513 353.94 298.1 348.658 295.863 345.457C295.161 344.442 293.445 343.531 290.039 341.762C286.554 339.94 286.086 340.018 285.176 339.029C282.914 336.583 283.252 333.382 282.446 333.382C281.822 333.382 281.276 335.308 281.094 336.687Z" fill="#EC615B"/>
<path d="M258.732 367.238C257.276 369.424 257.432 371.766 257.562 374.239C257.718 376.763 257.822 378.819 259.304 380.666C260.995 382.774 263.803 383.659 264.167 383.191C264.453 382.826 263.179 381.837 262.035 379.678C261.905 379.417 260.215 376.216 260.293 372.469C260.371 367.785 263.127 365 262.425 364.506C261.905 364.116 259.903 365.469 258.732 367.238Z" fill="#EC615B"/>
<path d="M269.158 324.092C273.527 326.98 271.135 333.668 273.995 337.572C274.281 337.962 274.957 337.572 274.671 337.181C271.707 333.122 274.229 326.512 269.548 323.415C269.132 323.129 268.742 323.805 269.158 324.092Z" fill="#EC615B"/>
<path d="M267.599 305.252C272.28 308.844 275.53 313.97 276.83 319.721C276.934 320.216 277.688 320.008 277.584 319.513C276.232 313.554 272.852 308.297 268.015 304.602C267.573 304.264 267.183 304.94 267.599 305.252Z" fill="#5222D0"/>
<path d="M252.517 319.668C256.261 322.739 259.199 326.668 261.02 331.17C261.202 331.639 261.956 331.43 261.774 330.962C259.875 326.33 256.937 322.296 253.063 319.122C252.699 318.809 252.126 319.356 252.517 319.668Z" fill="#5222D0"/>
<path d="M262.84 335.465C263.543 337.338 264.011 339.238 264.193 341.216C264.245 341.71 265.025 341.71 264.973 341.216C264.765 339.16 264.297 337.182 263.569 335.256C263.439 334.788 262.684 334.996 262.84 335.465Z" fill="#5222D0"/>
<path d="M222.821 339.783C222.171 343.713 222.925 347.642 225.057 351.025C225.317 351.442 225.993 351.051 225.733 350.635C223.731 347.46 222.951 343.713 223.575 339.992C223.653 339.497 222.899 339.289 222.821 339.783Z" fill="#5222D0"/>
<path d="M226.097 353.16C227.033 354.878 228.23 356.413 229.66 357.74C230.024 358.079 230.57 357.532 230.206 357.194C228.828 355.893 227.684 354.409 226.773 352.77C226.539 352.327 225.863 352.718 226.097 353.16Z" fill="#5222D0"/>
<path d="M196.247 313.502C196.039 315.974 196.273 318.42 196.975 320.814C197.105 321.309 197.859 321.101 197.729 320.606C197.053 318.264 196.819 315.922 197.027 313.502C197.079 313.007 196.299 313.007 196.247 313.502Z" fill="#5222D0"/>
<path d="M197.754 323.468C198.17 325.498 198.924 327.372 200.016 329.141C200.276 329.557 200.952 329.167 200.692 328.751C199.652 327.033 198.924 325.238 198.508 323.26C198.404 322.791 197.65 323 197.754 323.468Z" fill="#5222D0"/>
<path d="M129.859 160.797C129.131 162.775 128.247 165.481 127.389 168.76C126.504 172.169 124.424 181.147 124.632 192.962C124.84 204.36 127.076 212.739 129.131 220.208C132.329 231.866 136.23 240.246 138.544 245.112C138.544 245.112 145.903 260.7 158.098 277.407C160.257 280.347 163.013 284.069 163.013 284.069C165.015 286.749 166.731 288.987 167.927 290.601C168.89 291.693 170.112 292.917 171.698 294.088C174.662 296.3 177.601 297.419 179.655 297.991C183.035 295.103 186.416 292.188 189.796 289.299C191.33 290.757 192.89 292.188 194.425 293.645C196.557 291.459 198.455 289.716 199.937 288.441C206.386 282.846 211.717 279.983 212.965 279.306C214.031 278.734 214.941 278.292 215.565 278.005C214.603 276.08 213.641 274.154 212.679 272.202C214.239 270.849 216.033 269.418 218.035 268.012C220.74 266.113 223.34 264.577 225.706 263.38C225.68 261.194 225.394 257.889 223.964 254.246C222.898 251.514 221.624 249.666 221.078 248.885C215.071 240.22 232.779 264.109 209.636 231.06C200.665 218.256 196.193 211.828 194.139 209.174C187.716 200.769 182.671 195.018 179.083 190.932C172.218 183.099 169.124 180.184 166.627 178.05C163.221 175.084 159.45 171.883 153.756 168.916C150.167 167.069 147.203 166.054 142.886 164.57C137.556 162.749 133.057 161.552 129.859 160.797Z" fill="white"/>
<path d="M129.053 161.265C123.41 178.675 123.41 197.464 127.467 215.211C128.481 219.661 129.755 224.059 131.263 228.353C132.017 230.539 132.927 232.673 133.733 234.833C134.019 235.587 134.071 236.342 134.41 237.097C134.904 238.268 135.424 239.439 135.944 240.61C136.906 242.796 137.92 244.956 138.986 247.116C140.052 249.25 141.352 251.279 142.314 253.439C142.679 254.246 142.991 255.105 143.407 255.885C143.953 256.874 144.759 257.629 145.331 258.592C146.527 260.596 147.671 262.651 148.919 264.629C154.614 273.815 161.089 282.481 167.72 290.991C168.032 291.381 168.578 290.835 168.266 290.444C162.415 282.924 156.694 275.299 151.546 267.31C150.271 265.332 149.049 263.354 147.853 261.324C147.281 260.361 146.709 259.373 146.163 258.384C145.617 257.421 144.889 256.744 144.317 255.807C143.849 255.027 143.511 254.194 143.173 253.361C142.705 252.242 142.08 251.227 141.508 250.16C140.416 248.157 139.402 246.127 138.44 244.071C137.426 241.911 136.464 239.725 135.502 237.539C135.086 236.576 134.93 235.561 134.54 234.573C134.123 233.506 133.681 232.439 133.265 231.346C131.679 227.156 130.301 222.888 129.157 218.542C126.869 209.746 125.542 200.716 125.412 191.608C125.282 181.381 126.687 171.154 129.859 161.395C129.937 161.005 129.183 160.797 129.053 161.265Z" fill="#202236"/>
<path d="M129.418 161.266C133.76 161.604 138.181 163.113 142.263 164.545C146.294 165.976 150.272 167.537 153.965 169.671C161.324 173.939 167.824 179.534 173.753 185.623C179.864 191.895 185.428 198.791 190.811 205.687C196.168 212.557 201.29 219.662 206.231 226.844C211.692 234.833 216.944 242.978 222.093 251.202C222.353 251.618 223.029 251.228 222.769 250.811C213.33 235.796 203.579 220.963 192.735 206.91C182.256 193.3 171.023 179.404 156.305 170.166C152.3 167.641 148.01 165.82 143.589 164.18C139.117 162.541 134.228 160.849 129.444 160.459C128.924 160.459 128.924 161.24 129.418 161.266Z" fill="#202236"/>
<path d="M168.838 290.757C180.955 278.396 194.581 267.544 209.325 258.488C213.485 255.938 217.698 253.543 222.014 251.305C222.456 251.071 222.066 250.395 221.624 250.629C206.309 258.644 191.955 268.507 179.031 279.983C175.339 283.262 171.75 286.671 168.292 290.21C167.928 290.574 168.474 291.121 168.838 290.757Z" fill="#202236"/>
<path d="M168.084 291.355C171.178 294.816 175.209 297.262 179.707 298.355C180.201 298.485 180.409 297.731 179.915 297.601C175.521 296.508 171.646 294.165 168.63 290.782C168.292 290.418 167.746 290.991 168.084 291.355Z" fill="#202236"/>
<path d="M221.884 251.514C223.913 255.08 225.083 259.009 225.343 263.095C225.369 263.589 226.149 263.589 226.123 263.095C225.863 258.853 224.641 254.819 222.561 251.124C222.327 250.682 221.65 251.072 221.884 251.514Z" fill="#202236"/>
<path d="M180.175 298.147C194.243 285.292 209.48 273.79 225.732 263.823C226.148 263.563 225.758 262.886 225.342 263.146C209.064 273.139 193.749 284.693 179.629 297.601C179.265 297.939 179.811 298.486 180.175 298.147Z" fill="#202236"/>
<path d="M189.978 289.768C191.409 291.173 192.839 292.578 194.269 294.01C194.425 294.166 194.685 294.166 194.815 294.01C199.028 289.534 203.76 285.578 208.935 282.273C210.183 281.466 211.457 280.712 212.757 279.983C213.589 279.515 215.176 279.072 215.67 278.188C216.19 277.303 215.41 276.106 214.993 275.351C214.265 274.024 213.407 272.801 212.471 271.656C212.159 271.265 211.613 271.812 211.925 272.202C212.835 273.321 213.641 274.492 214.317 275.741C214.473 276.002 214.811 276.444 214.837 276.756C214.733 277.225 214.629 277.667 214.525 278.136C214.395 278.214 214.265 278.266 214.135 278.344C213.615 278.734 212.939 278.968 212.367 279.307C210.105 280.582 207.895 281.961 205.762 283.444C201.602 286.385 197.753 289.742 194.269 293.437C194.451 293.437 194.633 293.437 194.815 293.437C193.385 292.032 191.955 290.627 190.525 289.195C190.16 288.857 189.614 289.404 189.978 289.768Z" fill="#202236"/>
<path d="M130.9 225.621C137.297 218.075 144.786 211.543 152.457 205.323C160.154 199.104 168.214 193.274 177.238 189.137C177.706 188.929 177.29 188.252 176.848 188.46C167.902 192.546 159.919 198.323 152.275 204.464C144.474 210.762 136.855 217.398 130.354 225.049C130.016 225.465 130.562 226.012 130.9 225.621Z" fill="#202236"/>
<path d="M177.393 192.78C176.535 192.832 176.171 191.401 177.133 191.323C177.471 191.297 177.861 191.453 177.991 191.791C178.173 192.285 177.705 192.806 177.211 192.806C176.847 192.806 176.821 193.404 177.211 193.404C178.017 193.404 178.719 192.65 178.589 191.843C178.485 191.166 177.783 190.75 177.133 190.776C176.431 190.828 175.885 191.401 175.963 192.103C176.041 192.806 176.665 193.456 177.393 193.404C177.783 193.352 177.783 192.754 177.393 192.78Z" fill="#202236"/>
<path d="M217.1 250.343C217.126 250.343 217.126 250.343 217.152 250.317C217.074 250.317 216.996 250.291 216.918 250.291C217.204 250.422 217.048 249.875 217.022 249.797C217.022 249.719 217.048 249.615 217.074 249.537C217.152 249.381 217.282 249.224 217.438 249.146C217.776 248.99 218.14 249.25 218.244 249.589C218.452 250.265 217.464 250.604 217.204 250.005C217.048 249.667 216.554 249.953 216.71 250.291C217.022 251.02 218.088 251.072 218.608 250.526C219.206 249.875 218.764 248.782 217.958 248.548C217.1 248.314 216.268 249.224 216.476 250.057C216.554 250.396 216.996 250.812 217.334 250.474C217.594 250.213 217.334 249.641 216.944 249.797C216.606 249.927 216.762 250.474 217.1 250.343Z" fill="#202236"/>
<path opacity="0.15" d="M129.859 160.953C133.968 163.607 139.533 167.511 145.617 172.742C149.388 175.994 159.165 184.712 171.386 201.627C184.648 219.974 191.279 229.134 192.605 239.361C193.281 244.696 194.217 259.893 180.826 278.578C186.364 274.362 191.929 270.12 197.468 265.904C199.886 269.886 202.278 273.868 204.696 277.849C202.096 279.775 199.496 281.674 196.895 283.6C198.17 285.136 199.444 286.645 200.718 288.18C202.278 286.671 204.15 285.057 206.309 283.47C209.637 281.024 212.835 279.28 215.592 278.005C214.552 276.001 213.537 273.972 212.497 271.968C216.97 269.027 221.442 266.061 225.915 263.12C225.681 260.908 225.135 257.707 223.705 254.116C222.041 249.9 219.934 247.09 219.128 245.997C213.303 238.112 216.138 240.011 203.942 222.862C195.179 210.527 190.343 203.631 182.594 194.705C177.627 188.98 174.325 185.207 169.046 180.549C163.429 175.578 156.617 169.671 146.215 165.351C139.585 162.645 133.76 161.5 129.859 160.953Z" fill="#494949"/>
<path opacity="0.11" d="M213.356 236.551C213.122 238.216 212.654 240.766 211.484 243.655C208.779 250.343 204.619 253.257 195.934 262.053C191.825 266.217 185.714 272.384 186.286 273.061C186.833 273.712 193.515 268.559 205.191 260.856C212.03 256.328 217.776 252.815 221.547 250.525C218.816 245.867 216.086 241.209 213.356 236.551Z" fill="#494949"/>
<path opacity="0.08" d="M222.093 251.306C221.728 251.384 222.613 254.22 221.546 257.759C220.766 260.362 219.44 261.611 216.19 265.54C214.786 267.232 212.731 269.782 210.287 273.061C215.384 269.574 220.48 266.087 225.577 262.6C223.263 253.387 222.405 251.254 222.093 251.306Z" fill="#494949"/>
<path d="M178.173 336.479C178.251 337.233 178.537 337.832 178.979 338.56C180.851 341.579 183.946 343.427 186.182 344.494C185.298 347.278 184.232 351.286 183.452 356.178C182.724 360.888 181.866 366.379 182.984 366.743C183.374 366.874 184.518 366.509 195.153 345.431C196.635 342.49 197.857 340.044 198.664 338.378C192.995 335.828 187.352 333.252 181.683 330.701C181.137 331.118 177.887 333.486 178.173 336.479Z" fill="#444762" stroke="#444762" stroke-width="0.520063" stroke-miterlimit="10"/>
<path d="M166.315 278.915C161.53 282.246 158.436 285.473 155.679 288.388C154.561 289.559 149.205 295.258 143.562 304.21C141.066 308.165 139.219 311.652 137.945 314.281C138.101 315.348 138.465 316.883 139.427 318.419C140.494 320.136 141.69 320.891 143.562 322.556C145.85 324.586 146.682 325.783 148.009 327.136C150.583 329.791 154.197 331.794 161.322 335.724C170.267 340.642 175.078 342.438 176.56 342.984C178.38 343.635 179.914 344.129 181.007 344.468C181.527 342.048 182.151 339.471 182.931 336.765C183.633 334.345 184.387 332.081 185.141 329.973C179.602 325.913 173.908 321.359 168.135 316.207C166.133 314.437 164.208 312.641 162.362 310.872C164.234 308.608 166.861 305.641 170.189 302.44C171.151 301.503 173.18 299.578 175.65 297.548C178.77 295.024 183.477 291.641 189.978 288.518C191.096 281.049 189.77 274.075 185.687 271.811C180.59 269.001 172.842 274.387 166.315 278.915Z" fill="white"/>
<path d="M161.063 282.792C151.857 290.599 144.239 300.254 138.83 311.054C138.284 312.173 137.504 313.422 137.4 314.671C137.296 315.998 138.102 317.013 138.83 318.028C140.572 320.396 142.548 322.608 144.655 324.664C149.127 328.958 154.276 332.497 159.684 335.489C166.341 339.185 173.388 342.125 180.409 345.04C180.877 345.222 181.085 344.467 180.617 344.285C169.124 339.497 157.396 334.605 147.801 326.459C145.643 324.612 143.588 322.634 141.742 320.474C140.78 319.329 139.818 318.158 138.986 316.935C138.466 316.18 138.076 315.478 138.206 314.515C138.336 313.578 138.882 312.693 139.298 311.834C141.794 306.76 144.785 301.945 148.217 297.443C152.144 292.265 156.642 287.555 161.609 283.365C161.999 283.027 161.453 282.48 161.063 282.792Z" fill="#444762"/>
<path d="M183.114 291.771C174.195 297.548 166.394 304.86 160.075 313.396C159.789 313.812 160.465 314.203 160.751 313.786C166.992 305.355 174.715 298.12 183.504 292.421C183.92 292.187 183.53 291.511 183.114 291.771Z" fill="#444762"/>
<path d="M161.921 311.262C169.228 317.872 176.743 324.222 184.492 330.285C184.882 330.597 185.428 330.051 185.038 329.739C177.289 323.675 169.748 317.326 162.467 310.716C162.103 310.378 161.557 310.924 161.921 311.262Z" fill="#444762"/>
<path d="M184.517 330.18C182.879 334.812 181.605 339.549 180.669 344.363C180.565 344.857 181.319 345.066 181.423 344.571C182.359 339.757 183.659 335.021 185.272 330.388C185.428 329.92 184.673 329.712 184.517 330.18Z" fill="#444762"/>
<path opacity="0.11" d="M176.378 288.856C172.789 289.168 170.085 291.796 161.738 303.403C158.54 307.853 155.861 311.73 153.807 314.801C156.771 316.883 159.112 318.6 160.594 319.719C168.889 325.939 172.373 329.426 179.42 333.225C180.954 334.058 182.229 334.656 182.983 334.995C183.581 333.355 184.179 331.716 184.751 330.076C182.775 328.359 180.798 326.667 178.796 324.95C173.283 320.266 167.823 315.738 162.388 311.34C164.65 308.165 166.783 305.771 168.343 304.131C172.945 299.317 177.522 296.064 181.084 293.566C182.307 292.707 183.347 292.031 184.023 291.588C180.668 289.012 178.042 288.7 176.378 288.856Z" fill="#494949"/>
<path opacity="0.08" d="M177.418 295.648C175.182 296.169 172.191 297.184 169.149 299.213C161.712 304.184 159.216 311.783 158.488 314.385C162.492 317.508 166.627 320.656 170.917 323.805C175.078 326.876 179.212 329.791 183.243 332.601C183.841 331.742 184.439 330.857 185.011 329.999C179.472 325.965 173.726 321.307 167.979 315.972C166.159 314.307 164.417 312.615 162.752 310.95C163.662 309.753 164.651 308.53 165.691 307.281C169.591 302.648 173.596 298.823 177.418 295.648Z" fill="#494949"/>
<path d="M226.643 327.97C229.399 330.572 232.181 333.2 234.938 335.803C234.209 352.405 235.588 356.309 237.044 356.595C239.306 357.037 243.181 349.205 244.871 343.037C246.145 338.353 246.275 334.241 246.145 331.457C241.828 327.605 237.512 323.754 233.195 319.876C231.011 322.583 228.827 325.289 226.643 327.97Z" fill="#444762" stroke="#444762" stroke-width="0.520063" stroke-miterlimit="10"/>
<path d="M172.53 281.154C172.764 285.474 175.78 288.102 175.78 288.102C177.653 289.741 179.759 290.184 180.799 290.314C181.631 290.652 182.463 291.017 183.321 291.355C184.622 293.229 186.546 295.883 189.094 298.902C192.475 302.961 197.025 307.801 208.154 316.962C213.641 321.464 220.714 327.007 229.269 333.096C230.491 332.497 231.947 331.613 233.403 330.312C236.602 327.475 238.084 324.17 238.76 322.296C237.252 320.839 235.016 318.653 232.415 315.947C220.87 304.002 213.173 293.775 207.296 285.916C203.422 280.737 198.455 273.841 192.969 265.514C180.409 268.949 172.218 275.611 172.53 281.154Z" fill="white"/>
<path d="M176.56 289.091C178.64 289.819 180.694 290.522 182.774 291.25C183.243 291.407 183.451 290.652 182.983 290.496C180.902 289.767 178.848 289.064 176.768 288.336C176.3 288.18 176.092 288.934 176.56 289.091Z" fill="#444762"/>
<path d="M181.917 290.47C191.694 303.924 204.357 314.802 217.489 324.873C221.259 327.762 225.082 330.624 228.904 333.461C229.32 333.773 229.684 333.07 229.294 332.784C216.137 323.025 202.901 313.137 191.72 301.114C188.469 297.627 185.427 293.932 182.619 290.08C182.307 289.69 181.631 290.08 181.917 290.47Z" fill="#444762"/>
<path d="M197.259 272.333C206.464 286.463 216.839 299.787 228.28 312.174C231.583 315.765 234.989 319.252 238.448 322.661C238.812 323.026 239.358 322.453 238.994 322.115C226.954 310.3 215.929 297.471 206.048 283.809C203.239 279.931 200.535 275.976 197.909 271.942C197.649 271.526 196.973 271.916 197.259 272.333Z" fill="#444762"/>
<path d="M238.006 322.166C236.498 326.642 233.586 330.806 229.191 332.783C228.723 332.992 229.139 333.668 229.581 333.46C234.158 331.404 237.174 327.032 238.734 322.374C238.917 321.906 238.162 321.697 238.006 322.166Z" fill="#444762"/>
<path opacity="0.09" d="M197.285 271.916C195.803 269.912 194.554 268.273 193.722 267.206C192.89 268.741 191.746 271.317 191.642 274.518C191.408 281.753 196.713 284.849 211.925 301.712C218.555 309.051 222.066 313.475 230.621 322.218C232.623 324.248 234.313 325.94 235.535 327.137C236.472 325.497 237.408 323.858 238.37 322.218C230.127 313.943 223.6 306.474 218.711 300.567C214.005 294.868 209.792 289.768 205.45 283.418C204.332 281.831 201.497 277.589 197.285 271.916Z" fill="#494949"/>
<path opacity="0.09" d="M201.888 279.228C202.252 281.024 203.006 284.069 204.488 287.608C208.779 297.705 215.123 301.973 226.539 314.594C228.723 317.014 232.103 320.839 236.056 325.784C236.966 324.483 237.876 323.207 238.786 321.906C237.954 321.126 236.628 319.902 235.016 318.341C232.051 315.479 224.016 307.489 208.675 287.998C207.01 285.916 204.67 282.898 201.888 279.228Z" fill="#494949"/>
<path d="M117.482 256.224C116.961 256.433 116.181 256.875 113.867 260.596C111.371 264.604 109.681 267.336 108.432 271.656C107.34 275.508 107.08 279.021 107.158 281.883C107.34 282.716 107.47 283.939 107.054 285.292C106.508 287.01 105.52 287.426 103.648 289.768C102.894 290.705 101.646 292.293 100.658 294.452C99.5654 296.873 100.111 297.185 99.0713 299.553C97.8232 302.39 95.9769 304.341 95.6649 304.654C93.9487 306.449 93.1166 306.501 92.3625 308.063C91.5044 309.832 91.7644 311.498 91.8424 311.992C91.8944 312.356 92.4405 315.531 94.2867 315.922C94.7808 316.026 95.5609 315.974 95.8729 315.505C96.367 314.777 95.2229 313.762 95.0148 311.992C94.8328 310.379 95.5349 309.077 95.9769 308.271C97.3031 305.799 98.8373 306.163 100.241 304.107C101.594 302.077 100.319 301.453 101.62 297.627C102.348 295.493 103.076 293.359 105.026 291.772C105.91 291.043 106.768 290.653 107.574 289.43C108.276 288.363 108.536 287.296 108.64 286.567C110.071 288.857 111.579 290.341 112.671 291.252C114.127 292.449 115.791 293.854 117.196 293.333C117.95 293.047 118.626 292.188 118.496 291.59C118.418 291.252 118.106 291.148 117.3 290.419C117.3 290.419 116.987 290.133 116.285 289.378C115.817 288.884 115.141 287.973 114.543 286.255C114.777 285.995 115.375 285.422 116.181 285.37C117.066 285.344 117.742 285.969 118.418 286.646C119.692 287.895 119.64 288.649 120.446 289.404C121.07 290.003 122.214 290.627 124.476 290.471C124.372 290.185 124.19 289.716 123.956 289.196C123.15 287.452 122.734 287.27 122.682 286.541C122.656 285.969 122.89 285.813 123.956 283.991C124.866 282.43 125.308 281.649 125.334 281.233C125.465 279.697 124.138 279.177 123.852 277.407C123.592 275.924 124.242 274.727 124.71 273.79C127.415 268.299 129.131 264.812 128.637 262.184C127.883 258.072 121.33 254.611 117.482 256.224Z" fill="#444762"/>
<path d="M116.286 257.16C112.515 261.011 110.097 265.904 108.485 271.004C106.925 275.975 105.754 281.648 108.225 286.514C108.459 286.956 109.135 286.566 108.901 286.124C106.457 281.335 107.783 275.662 109.369 270.796C110.929 265.956 113.243 261.376 116.832 257.706C117.17 257.342 116.624 256.796 116.286 257.16Z" fill="#444762"/>
<path d="M112.385 279.645C112.697 279.489 113.009 279.359 113.321 279.203C113.555 279.333 113.789 279.489 114.023 279.619C114.309 279.879 114.569 280.218 114.751 280.556C115.115 281.18 115.297 281.935 115.245 282.664C115.141 284.069 114.127 285.162 113.867 286.515C113.711 287.348 114.257 287.946 114.725 288.571C115.531 289.638 116.467 290.627 117.481 291.512C117.845 291.85 118.417 291.303 118.027 290.965C117.377 290.367 116.727 289.768 116.155 289.091C115.219 288.024 114.387 287.114 115.037 285.63C115.609 284.329 116.207 283.106 115.947 281.623C115.739 280.478 115.089 279.307 114.075 278.682C113.217 278.162 112.177 278.266 111.709 279.229C111.475 279.697 112.151 280.087 112.385 279.645Z" fill="#444762"/>
<path d="M108.277 286.619C109.785 289.039 111.865 291.043 114.388 292.37C115.142 292.76 116.572 293.671 117.482 293.281C118.34 292.916 118.184 291.875 117.95 291.173C117.794 290.704 117.04 290.913 117.196 291.381C117.794 293.281 115.272 291.953 114.778 291.693C113.972 291.277 113.217 290.782 112.489 290.21C111.059 289.091 109.889 287.738 108.927 286.202C108.693 285.812 108.017 286.202 108.277 286.619Z" fill="#444762"/>
<path d="M126.193 262.73C124.659 267.883 123.696 273.191 123.254 278.552C123.228 278.708 123.384 278.89 123.54 278.916C125.179 279.359 124.945 281.389 124.347 282.534C123.748 283.627 122.812 284.537 122.344 285.708C121.512 287.816 123.982 288.493 123.93 290.341C124.06 290.21 124.19 290.08 124.321 289.95C121.98 289.82 120.004 288.571 118.834 286.541C118.002 285.084 117.04 284.772 115.375 284.876C114.881 284.902 114.881 285.682 115.375 285.656C116 285.63 116.754 285.552 117.326 285.865C117.82 286.151 117.976 286.645 118.236 287.088C118.678 287.842 119.25 288.519 119.926 289.065C121.2 290.106 122.682 290.627 124.295 290.731C124.503 290.731 124.685 290.549 124.685 290.341C124.711 289.248 123.982 288.597 123.384 287.764C122.136 286.021 124.19 284.407 124.997 282.924C125.881 281.311 125.855 278.708 123.722 278.162C123.826 278.292 123.904 278.422 124.008 278.526C124.425 273.217 125.413 268.013 126.921 262.912C127.077 262.47 126.323 262.262 126.193 262.73Z" fill="#444762"/>
<path d="M106.899 282.117C107.081 283.679 106.873 285.214 106.119 286.619C105.416 287.946 104.272 288.909 103.154 289.924C101.178 291.772 100.268 293.802 99.6438 296.404C98.9677 299.162 98.1616 301.374 96.1594 303.456C94.6512 304.992 92.883 306.423 91.9469 308.427C91.0368 310.378 91.1668 312.642 92.3369 314.464C93.013 315.531 95.3273 317.665 96.2114 315.635C96.5754 314.802 96.1594 313.761 95.8733 312.955C95.6133 312.252 95.2753 311.549 95.2753 310.769C95.2753 309.676 95.8993 308.739 96.6274 307.984C98.3956 306.137 100.658 305.096 101.438 302.467C101.88 300.984 101.568 299.501 101.672 297.991C101.802 296.118 102.686 294.53 104.038 293.255C106.093 291.303 108.823 289.69 108.823 286.515C108.823 286.021 108.043 286.021 108.043 286.515C108.017 289.56 105.052 291.069 103.18 292.995C101.724 294.478 100.892 296.352 100.866 298.434C100.84 299.813 101.074 301.114 100.606 302.441C100.086 303.951 98.9937 304.965 97.7976 305.954C96.2634 307.177 94.4952 308.609 94.4952 310.769C94.4952 311.81 95.0152 312.746 95.3273 313.735C95.4053 313.996 95.6913 314.698 95.5613 314.906C95.3013 314.932 95.0152 314.984 94.7552 315.01C94.2871 315.297 93.9231 315.245 93.6631 314.854C93.091 314.49 92.5969 313.397 92.3889 312.772C91.5568 310.326 92.701 308.14 94.3392 306.371C95.7173 304.861 97.3295 303.586 98.4737 301.869C99.6958 300.047 100.06 297.887 100.58 295.805C100.97 294.296 101.49 292.839 102.53 291.642C103.44 290.575 104.584 289.768 105.521 288.727C107.185 286.905 107.939 284.537 107.653 282.117C107.627 281.623 106.847 281.623 106.899 282.117Z" fill="#444762"/>
<path d="M90.0217 250.419C89.4756 250.732 88.4615 251.278 88.2535 252.423C87.9935 253.698 88.9036 254.739 89.0336 254.869C88.8776 255.052 88.4095 255.598 88.3575 256.431C88.3055 257.81 89.5277 258.617 89.5797 258.669C89.5277 258.721 88.7736 259.502 89.0336 260.568C89.2416 261.479 90.0477 261.87 90.1517 261.896C90.0997 262.052 89.9177 262.728 90.2558 263.353C90.7758 264.29 92.024 264.238 92.154 264.238C93.0381 264.186 93.8702 263.587 94.2602 262.676C94.7543 262.963 96.0544 263.639 97.8227 263.457C99.0188 263.327 99.9029 262.858 100.371 262.572C101.307 264.212 102.763 266.424 104.922 268.688C106.82 270.665 110.356 274.387 115.609 275.922C122.162 277.848 127.96 275.35 131.289 273.918C140.234 270.067 144.68 262.989 146.319 260.334C149.075 255.806 150.037 251.929 150.869 248.416C152.221 242.847 151.753 240.661 151.311 239.386C151.051 238.605 149.517 234.129 145.98 233.608C143.094 233.166 140.702 235.638 140.416 235.951C139.428 236.992 138.908 238.371 137.868 241.077C137.347 242.456 137.009 243.497 136.853 243.966C135.163 249.457 134.305 252.189 134.071 252.762C133.447 254.323 131.965 257.888 128.402 260.673C124.996 263.327 121.434 263.899 119.847 264.134C117.455 264.472 114.517 264.888 111.396 263.353C107.912 261.635 106.352 258.513 105.936 257.68C104.687 255.104 104.453 252.241 104.271 250.211C104.037 247.609 104.219 245.579 102.711 243.966C102.425 243.679 101.749 242.951 101.047 243.081C100.033 243.289 99.4609 245.241 98.9408 247.088C98.4987 248.65 98.6288 248.832 98.2647 249.196C97.5106 249.951 96.5485 249.561 93.2461 249.743C91.3219 249.873 90.6458 250.081 90.0217 250.419Z" fill="white"/>
<path d="M95.4046 249.3C92.5963 248.78 87.6557 249.508 88.0457 253.36C88.3838 256.821 92.4922 257.419 94.9625 255.91C95.3786 255.65 94.9885 254.973 94.5725 255.233C92.5182 256.482 88.7998 256.144 88.7998 253.021C88.7998 250.003 93.0383 249.664 95.1966 250.055C95.6906 250.159 95.8987 249.404 95.4046 249.3Z" fill="#444762"/>
<path d="M88.7219 254.636C85.9136 258.071 92.6744 262.39 94.6767 258.071C94.8847 257.628 94.2086 257.212 94.0006 257.68C92.4404 261.011 87.2398 257.68 89.294 255.182C89.606 254.818 89.06 254.245 88.7219 254.636Z" fill="#444762"/>
<path d="M88.8782 258.122C88.2801 259.476 88.6962 261.193 90.0743 261.896C91.4265 262.598 93.1167 261.948 93.8188 260.647C94.0528 260.204 93.3767 259.814 93.1427 260.256C92.6226 261.167 91.4525 261.687 90.4644 261.219C89.4763 260.751 89.1122 259.476 89.5543 258.513C89.7623 258.07 89.0862 257.68 88.8782 258.122Z" fill="#444762"/>
<path d="M89.5021 261.609C89.3981 262.988 90.2042 264.237 91.6084 264.523C92.9086 264.784 94.1047 263.925 94.5468 262.754C94.7288 262.285 93.9747 262.077 93.7927 262.546C93.4546 263.43 92.5185 264.003 91.5824 263.717C90.6203 263.43 90.2302 262.546 90.2822 261.609C90.3082 261.114 89.5281 261.114 89.5021 261.609Z" fill="#444762"/>
<path d="M91.972 253.1C92.6481 253.022 93.3502 253.048 93.9222 253.438C94.4683 253.803 94.7803 254.531 94.4683 255.13C94.2343 255.572 94.9104 255.963 95.1444 255.52C95.5604 254.714 95.3784 253.777 94.7543 253.126C94.0523 252.372 92.9341 252.215 91.946 252.319C91.4779 252.398 91.4779 253.178 91.972 253.1Z" fill="#444762"/>
<path d="M94.3895 263.275C95.7416 262.781 97.0418 263.9 98.4459 263.744C99.5121 263.614 100.448 263.041 101.332 262.521C101.748 262.261 101.358 261.584 100.942 261.844C99.6161 262.651 98.472 263.223 96.8858 262.755C95.9236 262.469 95.1695 262.156 94.1814 262.521C93.7134 262.703 93.8954 263.458 94.3895 263.275Z" fill="#444762"/>
<path d="M95.1973 249.978C96.5494 250.446 98.3696 250.524 99.1237 249.041C99.5398 248.208 99.2798 247.193 99.4618 246.308C99.6698 245.111 100.346 244.122 101.282 243.368C101.672 243.055 101.126 242.509 100.736 242.821C99.7218 243.654 98.9937 244.799 98.7337 246.1C98.6037 246.829 98.7857 247.688 98.5777 248.39C98.1096 249.795 96.5494 249.613 95.4573 249.223C94.9372 249.067 94.7292 249.821 95.1973 249.978Z" fill="#444762"/>
<path d="M100.71 243.419C102.92 243.705 103.206 247.427 103.57 249.118C104.012 251.33 104.246 253.568 104.662 255.78C105.338 259.319 107.392 262.13 110.669 263.717C114.101 265.357 118.002 265.278 121.59 264.29C125.283 263.249 129.105 261.375 131.497 258.278C131.809 257.888 131.263 257.341 130.951 257.732C128.455 260.959 124.398 262.858 120.498 263.769C116.572 264.68 112.281 264.342 109.005 261.791C105.468 259.059 105.39 254.947 104.688 250.862C104.35 248.936 104.064 246.854 103.362 245.032C102.92 243.887 102.218 242.847 100.944 242.664C100.424 242.586 100.216 243.341 100.71 243.419Z" fill="#444762"/>
<path d="M100.137 263.041C103.283 266.893 106.326 271.291 110.486 274.127C114.569 276.886 119.613 277.172 124.346 276.391C133.967 274.778 142.132 268.246 146.813 259.814C149.491 255.026 151.077 249.717 151.779 244.279C151.831 243.784 151.051 243.784 150.999 244.279C149.803 253.569 145.747 262.677 138.518 268.818C134.955 271.837 130.717 274.101 126.166 275.194C121.46 276.339 116.025 276.495 111.735 273.971C107.158 271.291 103.96 266.502 100.683 262.469C100.371 262.104 99.8251 262.651 100.137 263.041Z" fill="#444762"/>
<path d="M146.344 233.504C144.186 232.645 141.898 233.764 140.39 235.352C138.621 237.173 137.737 239.594 137.087 241.988C136.333 244.772 135.657 247.531 134.591 250.211C133.447 253.1 131.991 255.832 130.326 258.434C130.04 258.851 130.716 259.241 131.003 258.825C133.681 254.687 135.735 250.185 137.009 245.423C137.685 242.925 138.127 240.322 139.376 238.058C140.624 235.768 143.276 233.114 146.136 234.259C146.604 234.441 146.812 233.686 146.344 233.504Z" fill="#444762"/>
<path d="M93.142 261.193C93.8701 261.245 93.7141 262.468 93.5841 262.911C93.4281 263.379 94.1822 263.587 94.3382 263.119C94.6762 262.13 94.4422 260.517 93.142 260.413C92.648 260.386 92.648 261.167 93.142 261.193Z" fill="#444762"/>
<path d="M93.5844 258.8C93.7404 259.425 93.5064 260.075 93.0123 260.44C92.5963 260.726 92.9863 261.403 93.4024 261.116C94.2085 260.544 94.5985 259.555 94.3385 258.592C94.2345 258.098 93.4804 258.306 93.5844 258.8Z" fill="#444762"/>
<path d="M94.027 256.092C94.7291 256.43 94.261 257.549 93.923 257.992C93.6109 258.382 94.287 258.773 94.599 258.382C95.1971 257.601 95.5091 255.936 94.417 255.416C93.975 255.207 93.5849 255.884 94.027 256.092Z" fill="#444762"/>
<path opacity="0.11" d="M88.6694 256.195C89.0855 255.961 89.7616 257.418 91.5038 258.147C92.1539 258.407 92.96 258.59 96.6524 258.147C97.8486 257.991 99.4087 257.783 101.281 257.445C101.645 258.928 102.399 261.166 103.933 263.482C104.583 264.445 107.21 268.192 112.28 270.404C117.715 272.798 122.63 271.991 124.528 271.653C126.14 271.367 130.639 270.508 134.643 267.021C137.321 264.705 139.038 261.894 141.56 254.582C143.276 249.612 145.356 242.715 146.89 234.154C147.931 235.221 149.543 237.146 150.453 240.009C150.895 241.388 151.311 243.418 150.973 246.593C150.271 253.437 146.838 259.136 144.758 262.051C142.6 265.095 138.752 270.352 131.627 273.605C130.665 274.047 125.23 276.415 118.313 276.103C116.727 276.025 115.271 275.947 113.476 275.296C111.526 274.594 109.576 272.772 105.702 269.181C104.089 267.698 102.503 266.136 100.891 263.872C100.579 263.43 100.319 263.039 100.137 262.779C99.5908 263.144 98.7847 263.56 97.8746 263.456C96.6524 263.352 96.2364 262.467 95.2222 262.623C94.3381 262.753 94.3381 263.482 93.272 263.872C92.4399 264.158 91.2698 264.132 90.4897 263.534C89.9176 263.092 89.8396 262.597 89.1895 259.787C88.5654 257.028 88.3834 256.352 88.6694 256.195Z" fill="#494949"/>
<path d="M118.391 249.431C117.897 249.535 117.715 250.524 117.403 252.059C117.221 252.996 117.143 253.803 117.117 254.375C116.077 255.599 115.973 256.718 115.947 257.16C115.921 258.071 116.233 258.773 116.831 260.075C117.247 261.011 117.689 261.74 118.001 262.234C116.883 262.495 116.103 263.223 116.051 264.004C115.999 264.759 116.675 265.357 116.935 265.565C118.105 266.58 118.963 265.826 120.445 266.632C121.642 267.283 121.537 268.012 123.28 268.974C124.372 269.573 124.71 269.443 124.84 269.365C125.282 269.079 125.126 268.142 125.048 267.517C124.944 266.763 124.632 265.617 123.774 264.29C124.788 263.926 125.802 263.562 126.79 263.223C126.062 263.301 125.906 263.327 125.906 263.327C125.906 263.301 127.7 262.573 129.234 263.223C130.509 263.77 130.613 264.915 131.679 264.993C132.277 265.045 132.953 264.707 133.239 264.212C133.837 263.197 132.719 261.714 132.459 261.376C131.393 259.97 129.832 259.554 129.13 259.424C129.364 258.904 129.624 258.071 129.676 257.03C129.728 255.26 129 253.959 128.662 253.413C128.194 251.877 127.752 250.342 127.284 248.781C126.556 250.472 125.75 250.992 125.126 251.123C124.424 251.279 124.034 250.94 122.89 251.123C121.798 251.305 121.746 251.643 121.121 251.617C119.665 251.461 119.171 249.275 118.391 249.431Z" fill="#444762"/>
<path d="M119.042 257.656C119.485 258.176 120.187 258.514 120.889 258.332C121.513 258.176 121.929 257.656 122.007 257.031C122.033 256.771 121.643 256.771 121.617 257.031C121.565 257.578 121.097 257.968 120.551 257.994C120.057 258.02 119.641 257.734 119.329 257.369C119.146 257.187 118.886 257.474 119.042 257.656Z" fill="white"/>
<path d="M124.606 256.797C125.256 257.734 127.362 257.812 127.284 256.328C127.258 256.068 126.868 256.068 126.894 256.328C126.972 257.395 125.386 257.239 124.944 256.589C124.788 256.381 124.45 256.589 124.606 256.797Z" fill="white"/>
<path d="M123.592 259.685C123.592 259.711 123.618 259.737 123.618 259.763C123.696 259.789 123.8 259.815 123.879 259.841C123.827 259.737 123.748 259.685 123.618 259.685C123.722 259.659 123.8 259.607 123.905 259.581C123.879 259.555 123.853 259.503 123.826 259.477C123.696 259.529 123.592 259.581 123.462 259.633C123.644 259.919 123.566 260.439 123.462 260.726C123.332 261.116 122.786 261.636 122.448 261.116C122.318 260.908 121.98 261.09 122.11 261.324C122.448 261.845 123.15 261.819 123.54 261.376C123.931 260.934 124.139 259.971 123.801 259.451C123.696 259.268 123.384 259.372 123.436 259.607C123.488 259.763 123.566 259.867 123.696 259.945C123.8 260.023 123.957 259.945 123.983 259.841C124.035 259.607 123.957 259.06 123.592 259.216C123.254 259.346 123.384 259.867 123.54 260.075C123.592 260.153 123.722 260.205 123.801 260.153C124.087 259.945 124.087 259.555 123.774 259.398C123.566 259.242 123.384 259.581 123.592 259.685Z" fill="white"/>
<path d="M123.618 259.762C123.722 260.361 123.93 261.089 124.632 261.193C125.334 261.298 125.542 260.621 125.542 260.075C125.542 259.814 125.152 259.814 125.152 260.075C125.152 260.465 125.022 261.011 124.502 260.751C124.112 260.569 124.06 260.048 124.008 259.658C123.956 259.424 123.566 259.528 123.618 259.762Z" fill="white"/>
<path d="M116.44 257.784C116.934 255.078 118.885 252.762 121.537 251.981C124.189 251.201 127.258 252.268 128.48 254.818C128.688 255.26 129.364 254.87 129.156 254.427C127.83 251.695 124.579 250.472 121.693 251.149C118.625 251.877 116.258 254.506 115.686 257.576C115.608 258.071 116.362 258.279 116.44 257.784Z" fill="#444762"/>
<path d="M117.819 253.855C117.793 252.554 118.027 251.253 118.573 250.082C118.625 249.978 118.677 249.899 118.703 249.795C118.885 249.483 118.911 249.431 118.755 249.639C118.599 249.769 118.625 249.873 118.859 250.03C118.911 250.108 118.989 250.212 119.041 250.29C119.431 250.914 119.769 251.565 120.055 252.242C120.238 252.71 120.992 252.502 120.81 252.033C120.55 251.409 119.353 248.234 118.339 248.937C117.845 249.275 117.533 250.42 117.377 250.966C117.091 251.903 116.987 252.892 117.013 253.881C117.065 254.349 117.845 254.349 117.819 253.855Z" fill="#444762"/>
<path d="M125.749 251.747C126.009 251.305 126.269 250.863 126.555 250.42C126.685 250.238 126.867 250.056 126.945 249.848C127.127 249.744 127.153 249.64 127.049 249.509C126.945 249.327 126.971 249.379 127.101 249.666C127.543 250.785 127.855 251.878 127.985 253.101C128.037 253.595 128.818 253.595 128.766 253.101C128.688 252.242 128.532 251.409 128.298 250.576C128.142 250.108 127.907 249.041 127.465 248.755C127.127 248.547 126.841 248.703 126.607 248.989C126.009 249.692 125.541 250.55 125.073 251.357C124.813 251.773 125.489 252.164 125.749 251.747Z" fill="#444762"/>
<path d="M115.739 257.369C115.557 261.741 119.509 265.489 123.904 264.578C125.932 264.161 127.804 262.834 128.767 260.987C129.781 259.035 130.353 255.938 129.027 254.012C128.741 253.596 128.064 253.986 128.35 254.403C129.521 256.146 128.949 259.009 128.012 260.752C127.154 262.34 125.464 263.459 123.696 263.823C119.769 264.604 116.363 261.221 116.519 257.369C116.519 256.849 115.739 256.849 115.739 257.369Z" fill="#444762"/>
<path d="M116.285 264.239C116.909 261.923 120.029 262.053 121.668 263.068C123.41 264.109 124.294 266.138 124.476 268.09C124.528 268.637 124.736 269.183 123.826 268.845C123.488 268.715 123.046 268.22 122.786 267.96C122.318 267.492 121.902 266.997 121.382 266.607C120.809 266.164 120.211 265.904 119.509 265.774C118.417 265.566 116.441 265.696 116.337 264.135C116.311 263.64 115.531 263.64 115.557 264.135C115.635 265.15 116.285 265.826 117.221 266.164C117.949 266.425 118.755 266.373 119.509 266.555C120.445 266.789 121.069 267.283 121.72 267.96C122.37 268.611 123.488 270.068 124.606 269.86C125.542 269.678 125.334 268.611 125.256 267.908C124.97 265.41 123.644 262.938 121.199 261.975C119.145 261.168 116.181 261.636 115.557 264.057C115.401 264.525 116.155 264.733 116.285 264.239Z" fill="#444762"/>
<path d="M126.66 260.855C127.726 259.424 130.144 259.997 131.262 260.96C131.913 261.506 132.355 262.261 132.563 263.093C132.615 263.354 132.745 263.9 132.667 264.186C132.407 264.941 131.861 264.707 131.393 264.343C130.742 263.848 130.248 263.146 129.442 262.833C129.052 262.677 128.662 262.651 128.246 262.677C127.856 262.677 127.492 262.781 127.102 262.729C126.374 262.625 125.36 261.948 126.582 261.012C126.972 260.699 126.426 260.153 126.036 260.465C125.438 260.934 125.126 261.636 125.386 262.391C125.75 263.38 126.686 263.588 127.648 263.536C128.61 263.484 129.234 263.51 130.014 264.16C130.378 264.473 130.69 264.837 131.106 265.123C131.653 265.514 132.459 265.878 133.057 265.331C134.435 264.056 132.849 261.22 131.757 260.335C130.196 259.06 127.336 258.696 126.036 260.491C125.698 260.855 126.374 261.246 126.66 260.855Z" fill="#444762"/>
<path d="M117.793 262.078C119.483 261.532 122.057 262.599 123.097 263.978C123.175 264.082 123.332 263.978 123.253 263.874C122.161 262.391 119.561 261.298 117.741 261.896C117.611 261.922 117.663 262.104 117.793 262.078Z" fill="white"/>
<path d="M126.842 260.96C127.596 260.075 128.688 259.685 129.832 259.919C129.962 259.945 130.014 259.763 129.884 259.737C128.688 259.502 127.492 259.893 126.712 260.83C126.634 260.934 126.764 261.064 126.842 260.96Z" fill="white"/>
<path d="M118.755 249.873C119.015 250.549 119.197 251.226 119.275 251.928C119.327 251.902 119.379 251.876 119.431 251.85C119.301 251.72 119.171 251.642 119.015 251.564C118.937 251.538 118.859 251.564 118.859 251.642C118.859 251.876 118.833 252.085 118.833 252.319C118.885 252.293 118.937 252.267 118.989 252.241C118.625 251.824 118.339 252.761 118.235 252.943C118.183 253.047 118.339 253.151 118.391 253.047C118.417 252.995 118.755 252.267 118.833 252.371C118.885 252.449 118.989 252.371 118.989 252.293C118.989 252.059 119.015 251.85 119.015 251.616C118.963 251.642 118.911 251.668 118.859 251.694C119.015 251.746 119.119 251.824 119.223 251.954C119.275 252.006 119.405 251.98 119.379 251.876C119.275 251.148 119.119 250.445 118.833 249.768C118.885 249.716 118.703 249.768 118.755 249.873Z" fill="white"/>
<path d="M126.79 249.534C126.504 250.081 126.348 250.627 126.296 251.252C126.296 251.304 126.374 251.356 126.426 251.356C126.79 251.252 126.842 251.538 126.868 251.85C126.868 251.928 126.972 251.98 127.024 251.928C127.154 252.137 127.259 252.319 127.389 252.527C127.363 252.657 127.571 252.709 127.571 252.579C127.623 252.215 127.389 251.278 126.894 251.798C126.946 251.824 126.998 251.85 127.05 251.876C127.024 251.642 126.972 251.434 126.92 251.2C126.92 251.148 126.868 251.122 126.816 251.122C126.634 251.122 126.504 251.148 126.348 251.2C126.4 251.226 126.426 251.252 126.478 251.304C126.504 250.731 126.66 250.211 126.946 249.69C127.024 249.508 126.842 249.404 126.79 249.534Z" fill="white"/>
<path d="M143.094 234.105C143.458 236.603 144.16 240.558 145.617 245.243C148.685 255.027 152.299 259.217 157.084 270.563C158.28 273.4 159.97 277.667 161.634 283.054C164.729 284.069 170.476 285.448 177.496 284.225C189.042 282.221 195.829 274.571 197.727 272.255C193.774 264.968 189.796 257.083 185.921 248.626C182.073 240.246 178.719 232.179 175.806 224.502C173.362 223.591 166.965 221.562 159.112 223.487C149.725 225.751 144.55 232.179 143.094 234.105Z" fill="#EC615B"/>
<path opacity="0.13" d="M165.925 222.602C166.913 224.683 168.161 227.52 169.487 230.955C173.648 241.885 175.156 250.863 175.702 254.064C176.872 260.673 177.886 270.927 176.222 284.094C179.836 283.99 182.515 283.157 184.205 282.507C189.042 280.581 192.552 277.224 195.932 273.971C196.713 273.243 197.311 272.592 197.701 272.202C196.583 270.276 194.892 267.257 192.916 263.484C187.195 252.606 183.451 243.576 180.305 235.925C179.186 233.245 177.652 229.394 175.858 224.735C174.428 224.137 172.634 223.538 170.527 223.148C168.811 222.81 167.251 222.654 165.925 222.602Z" fill="#494949"/>
<path opacity="0.1" d="M183.139 243.238C183.581 247.896 183.945 251.799 184.205 254.61C185.193 265.618 185.375 268.662 185.453 270.614C185.661 275.22 185.661 278.994 185.635 281.466C187.247 280.893 189.327 279.956 191.486 278.447C194.19 276.547 196.01 274.466 197.18 272.93C192.5 263.015 187.819 253.127 183.139 243.238Z" fill="#494949"/>
<path d="M164.677 218.021C163.429 218.385 162.753 220.181 162.337 222.029C161.505 225.802 161.947 229.029 162.103 230.148C162.857 235.118 164.209 238.84 164.651 240.063C165.796 243.081 167.356 247.115 170.762 251.409C172.712 253.855 174.377 255.963 177.445 257.524C179.239 258.461 182.958 260.361 186.78 258.851C186.962 258.773 190.707 257.238 191.669 253.959C191.877 253.23 191.929 252.502 192.007 251.07C192.059 250.212 192.085 248.702 191.903 246.829C191.643 244.356 191.097 242.431 190.681 241.052C188.834 234.936 187.924 231.891 186 229.237C184.414 227.051 182.62 224.553 179.655 224.215C179.395 224.189 176.405 223.902 174.637 225.984C173.415 227.441 173.493 229.237 173.519 230.434C173.597 232.724 174.481 234.364 175.859 236.888C177.237 239.386 177.783 239.698 179.421 242.665C181.657 246.725 181.423 247.115 181.319 247.219C180.877 247.609 179.109 246.386 178.719 246.1C178.355 245.84 177.835 245.475 177.185 244.773C175.157 242.509 173.961 239.1 173.961 239.1C172.894 236.992 171.49 233.999 170.06 230.2C170.502 228.508 171.178 227.311 171.724 226.531C172.608 225.281 173.597 224.423 173.831 222.861C173.935 222.263 173.883 221.742 173.831 221.404C174.273 220.988 174.403 220.363 174.169 219.843C173.883 219.244 173.18 218.958 172.504 219.166C172.504 219.088 172.426 218.411 171.828 218.047C171.334 217.735 170.658 217.787 170.164 218.151C169.384 217.553 168.734 217.396 168.266 217.37C167.72 217.344 167.46 217.475 166.16 217.709C165.067 217.995 164.989 217.943 164.677 218.021Z" fill="white"/>
<path d="M171.205 229.002C171.907 227.259 172.791 225.672 173.753 224.058C174.247 223.225 174.819 222.184 174.143 221.274C172.609 219.296 170.529 221.82 169.879 223.121C169.645 223.564 170.321 223.954 170.555 223.512C170.945 222.731 171.387 221.768 172.297 221.508C172.557 221.378 172.817 221.378 173.103 221.456C173.181 222.054 173.259 222.653 173.363 223.251C173.285 223.59 172.817 224.136 172.635 224.448C171.803 225.828 171.127 227.285 170.503 228.768C170.269 229.263 171.023 229.445 171.205 229.002Z" fill="#202236"/>
<path d="M162.701 232.359C162.311 229.575 162.259 226.738 162.571 223.954C162.857 221.404 163.404 217.526 166.94 218.255C167.434 218.359 167.642 217.604 167.148 217.5C164.366 216.928 162.623 218.905 162.155 221.43C161.453 225.099 161.427 228.846 161.947 232.567C162.025 233.062 162.779 232.854 162.701 232.359Z" fill="#202236"/>
<path d="M165.952 220.363C166.238 219.687 166.55 218.984 167.096 218.464C168.032 217.553 169.229 218.047 170.243 218.542C170.685 218.776 171.075 218.099 170.633 217.865C169.567 217.318 168.37 216.798 167.226 217.397C166.238 217.917 165.718 218.984 165.302 219.947C165.094 220.441 165.77 220.832 165.952 220.363Z" fill="#202236"/>
<path d="M168.266 220.596C169.228 219.347 170.502 218.046 172.167 219.035C172.609 219.295 172.999 218.619 172.557 218.358C170.58 217.187 168.916 218.463 167.72 220.024C167.408 220.44 167.954 220.987 168.266 220.596Z" fill="#202236"/>
<path d="M170.009 221.169C170.503 220.649 171.023 220.102 171.699 219.842C172.505 219.504 173.987 219.712 173.675 220.935C173.571 221.43 174.299 221.638 174.429 221.143C174.689 220.076 173.987 219.087 172.921 218.905C171.491 218.645 170.373 219.686 169.463 220.623C169.125 220.987 169.671 221.534 170.009 221.169Z" fill="#202236"/>
<path d="M170.321 228.614C169.411 230.566 170.529 232.543 171.309 234.339C172.401 236.863 173.545 239.387 174.949 241.73C176.77 244.8 180.722 250.317 184.857 247.168C185.247 246.856 184.857 246.179 184.466 246.492C180.488 249.536 176.796 243.395 175.183 240.558C174.247 238.893 173.415 237.175 172.635 235.432C171.855 233.688 170.113 230.956 171.023 229.004C171.205 228.562 170.529 228.145 170.321 228.614Z" fill="#202236"/>
<path d="M173.674 226.635C171.386 234.415 178.407 240.453 180.981 247.115C181.163 247.583 181.917 247.375 181.735 246.907C179.239 240.453 172.218 234.363 174.428 226.843C174.558 226.348 173.804 226.14 173.674 226.635Z" fill="#202236"/>
<path d="M161.922 232.152C163.248 239.438 166.342 246.334 170.893 252.189C173.103 255 175.625 257.732 179.11 258.877C182.074 259.84 186.157 260.335 188.913 258.539C191.929 256.613 192.319 252.684 192.449 249.431C192.475 248.936 191.695 248.936 191.669 249.431C191.513 253.621 190.577 258.253 185.611 258.851C181.034 259.398 176.769 257.576 173.675 254.271C167.928 248.156 164.158 240.167 162.65 231.943C162.598 231.449 161.844 231.657 161.922 232.152Z" fill="#202236"/>
<path d="M174.195 227.676C175.027 224.345 179.032 224.111 181.528 225.568C184.076 227.052 185.819 229.732 187.093 232.308C188.419 235.015 189.381 237.929 190.317 240.792C191.383 244.071 192.189 247.506 191.643 250.967C191.565 251.461 192.319 251.669 192.397 251.175C193.021 247.22 192.033 243.394 190.759 239.647C189.589 236.238 188.445 232.725 186.495 229.654C184.856 227.052 182.412 224.345 179.188 223.903C176.691 223.565 174.039 224.918 173.415 227.468C173.311 227.962 174.065 228.171 174.195 227.676Z" fill="#202236"/>
<path opacity="0.1" d="M165.639 217.682C167.719 216.849 169.748 217.76 170.242 217.994C168.785 219.92 165.691 224.578 165.431 231.162C165.041 240.53 170.632 246.75 172.608 248.962C175.156 251.798 178.485 255.494 182.775 254.973C185.193 254.687 187.482 253.073 188.652 251.018C189.822 248.962 189.744 246.724 188.34 240.947C186.182 232.203 183.815 227.076 184.153 226.92C184.491 226.764 187.3 231.162 189.406 236.679C189.614 237.251 191.356 241.883 191.98 248.259C192.37 252.189 192.032 253.802 191.226 255.233C189.978 257.445 187.95 258.434 187.17 258.772C184.023 260.1 181.007 259.163 179.577 258.668C174.454 256.951 171.724 252.787 168.967 248.597C164.729 242.118 163.559 236.575 162.441 231.24C161.661 227.545 161.14 223.251 163.091 220.102C163.429 219.452 164.183 218.28 165.639 217.682Z" fill="#494949"/>
<path d="M128.091 205.009C128.013 206.232 128.455 207.612 129.391 210.37C130.431 213.467 131.549 216.772 134.358 220.025C136.152 222.106 138.336 224.657 142.055 225.385C144.993 225.958 147.463 225.125 148.711 224.605C148.997 225.385 149.387 226.218 149.881 227.077C151.182 229.367 152.794 230.98 154.068 232.047C155.03 231.943 156.902 231.553 158.514 230.096C159.763 228.951 160.361 227.597 160.725 226.713C161.167 225.672 161.401 224.761 161.505 224.11C160.725 223.642 159.867 223.017 159.035 222.159C156.434 219.504 155.732 216.355 155.524 214.846C155.862 211.853 156.226 208.835 156.564 205.842C156.954 205.894 157.786 205.946 158.514 205.452C159.321 204.905 159.477 203.994 159.685 202.979C159.893 201.965 160.127 200.663 159.555 199.18C159.295 198.53 158.462 196.448 156.694 196.318C155.498 196.213 154.276 197.02 153.574 198.269C152.066 196.812 148.841 194.236 144.317 193.819C136.49 193.091 128.533 199.206 128.091 205.009Z" fill="white"/>
<path d="M139.636 216.902C139.428 217.449 140.026 218.229 140.468 218.62C141.691 219.687 143.849 219.635 145.409 218.906C147.593 217.891 148.295 215.705 148.607 214.716C148.971 213.623 149.44 212.192 148.685 210.917C148.035 209.798 146.891 209.407 146.449 209.277C146.007 210.188 145.669 210.865 145.409 211.307C145.097 211.854 144.993 212.036 144.811 212.452C144.551 212.999 144.525 213.207 144.161 213.701C142.679 215.627 140.65 216.33 140.65 216.33C140.182 216.434 139.766 216.538 139.636 216.902Z" fill="#202236"/>
<path d="M128.507 208.132C130.561 214.56 133.135 222.055 139.766 225.073C142.47 226.297 145.695 226.531 148.451 225.334C151.545 224.007 153.366 220.936 154.614 217.969C156.252 214.092 156.954 209.876 156.694 205.686C156.668 205.192 155.888 205.192 155.914 205.686C156.174 210.058 155.394 214.456 153.548 218.438C151.754 222.315 148.919 225.412 144.369 225.36C135.216 225.256 131.497 215.159 129.209 207.95C129.105 207.43 128.377 207.638 128.507 208.132Z" fill="#202236"/>
<path d="M153.86 198.998C153.886 197.436 155.498 196.5 156.928 196.942C158.254 197.384 159.086 198.686 159.372 199.987C159.632 201.236 159.528 202.693 159.138 203.89C158.826 204.879 158.436 205.4 157.24 205.4C156.824 205.4 156.408 205.243 155.966 205.243C155.472 205.243 155.472 206.024 155.966 206.024C156.85 206.024 157.708 206.44 158.566 205.998C159.19 205.686 159.554 205.061 159.814 204.411C160.49 202.641 160.569 200.247 159.71 198.503C159.008 197.072 157.5 195.849 155.836 196.031C154.302 196.187 153.106 197.436 153.08 198.972C153.08 199.492 153.86 199.492 153.86 198.998Z" fill="#202236"/>
<path d="M155.394 213.26C155.316 217.554 157.214 221.666 160.595 224.346C160.985 224.658 161.531 224.112 161.141 223.8C157.916 221.249 156.096 217.398 156.174 213.26C156.174 212.766 155.394 212.766 155.394 213.26Z" fill="#202236"/>
<path d="M148.684 224.918C149.673 227.65 151.285 230.044 153.443 231.97C153.807 232.308 154.379 231.762 153.989 231.424C151.909 229.576 150.375 227.312 149.412 224.71C149.256 224.241 148.502 224.449 148.684 224.918Z" fill="#202236"/>
<path d="M153.625 232.231C155.862 233.037 158.098 231.138 159.476 229.55C160.932 227.885 162.206 225.725 161.582 223.461C161.452 222.967 160.698 223.175 160.828 223.669C161.348 225.647 160.178 227.573 158.904 229.004C157.708 230.357 155.758 232.179 153.807 231.476C153.365 231.294 153.157 232.049 153.625 232.231Z" fill="#202236"/>
<path d="M131.419 205.401C131.081 204.438 131.861 203.397 132.433 202.721C133.291 201.654 134.617 201.368 135.605 202.461C136.75 203.71 137.062 205.948 137.218 207.561C137.322 208.68 136.932 210.111 137.582 211.1C138.284 212.167 139.584 212.792 140.806 213.026C141.3 213.13 141.508 212.375 141.014 212.271C140.364 212.141 139.792 211.933 139.22 211.569C138.284 210.944 138.076 210.268 138.05 209.149C138.024 208.186 137.998 207.249 137.842 206.286C137.582 204.699 137.14 202.669 135.839 201.602C134.747 200.691 133.395 200.717 132.329 201.628C131.315 202.513 130.145 204.204 130.639 205.583C130.847 206.078 131.601 205.87 131.419 205.401Z" fill="#202236"/>
<path d="M138.622 199.779C138.804 196.631 142.73 195.485 144.55 198.062C144.836 198.478 145.512 198.088 145.226 197.671C142.964 194.445 138.075 195.824 137.841 199.779C137.815 200.274 138.596 200.274 138.622 199.779Z" fill="#202236"/>
<path d="M135.085 207.481C134.721 206.987 134.513 206.441 134.487 205.842C134.279 205.946 134.097 206.076 133.889 206.18C134.487 206.571 134.799 207.195 134.773 207.898C134.929 207.768 135.111 207.638 135.267 207.533C134.617 207.299 134.201 206.571 134.331 205.894C134.149 205.972 133.941 206.05 133.759 206.128C134.071 206.31 134.331 206.571 134.513 206.909C134.591 207.065 134.643 207.221 134.669 207.403C134.669 207.533 134.669 207.377 134.643 207.325C134.591 207.221 134.539 207.143 134.487 207.039C134.279 206.571 133.603 206.987 133.811 207.429C133.967 207.794 134.227 208.184 134.695 208.21C135.085 208.236 135.423 207.976 135.475 207.586C135.553 206.727 134.877 205.868 134.175 205.478C133.967 205.348 133.655 205.452 133.603 205.712C133.395 206.831 134.019 207.924 135.085 208.314C135.345 208.392 135.579 208.184 135.579 207.95C135.605 206.961 135.137 206.076 134.305 205.556C134.071 205.4 133.707 205.608 133.707 205.894C133.733 206.623 133.967 207.325 134.409 207.924C134.721 208.288 135.397 207.898 135.085 207.481Z" fill="#202236"/>
<path d="M142.366 202.461C142.236 202.305 142.132 202.123 142.08 201.915C142.08 201.862 142.028 201.55 142.08 201.524C142.132 201.498 142.262 201.915 142.288 201.941C142.34 202.149 142.314 202.383 142.21 202.565C142.392 202.513 142.574 202.461 142.756 202.435C142.106 202.071 141.794 201.394 141.898 200.665C141.69 200.77 141.508 200.9 141.3 201.004C142.028 201.316 142.444 202.071 142.262 202.851C142.418 202.773 142.574 202.669 142.73 202.591C142.34 202.461 142.028 202.123 141.95 201.706C141.95 201.68 141.95 201.446 141.924 201.446C141.872 201.472 141.82 201.498 141.742 201.524C141.768 201.576 141.82 201.654 141.846 201.706C141.95 201.993 141.95 202.279 141.924 202.591C142.158 202.487 142.366 202.409 142.6 202.305C142.366 202.123 142.184 201.915 142.054 201.628C141.82 201.186 141.144 201.576 141.378 202.019C141.534 202.331 141.768 202.617 142.054 202.851C142.34 203.086 142.678 202.929 142.73 202.565C142.782 202.045 142.73 201.342 142.34 200.952C142.028 200.639 141.456 200.613 141.248 201.082C140.832 201.993 141.716 203.06 142.522 203.346C142.73 203.424 142.964 203.268 142.99 203.086C143.276 201.993 142.73 200.796 141.664 200.353C141.378 200.223 141.118 200.379 141.066 200.691C140.936 201.68 141.456 202.643 142.314 203.138C142.47 203.242 142.756 203.19 142.86 203.008C143.068 202.513 143.12 202.019 142.938 201.524C142.782 201.134 142.444 200.717 142.002 200.77C140.858 200.9 141.352 202.539 141.82 203.06C142.158 203.398 142.704 202.825 142.366 202.461Z" fill="#202236"/>
<path d="M149.153 224.84C149.153 224.866 149.153 224.866 149.127 224.892C149.283 224.814 149.439 224.71 149.595 224.632C149.569 224.632 149.543 224.606 149.517 224.606C149.595 224.788 149.673 224.997 149.751 225.179C149.803 225.075 150.505 224.736 150.713 224.554C151.181 224.164 151.571 223.643 151.935 223.149C152.741 222.082 153.34 220.911 153.834 219.688C153.574 219.61 153.34 219.558 153.079 219.48C152.299 221.718 151.753 224.84 149.569 226.168C149.751 226.35 149.933 226.532 150.115 226.714C150.635 225.933 151.155 225.127 151.675 224.346C151.909 223.982 151.363 223.539 151.051 223.878C150.635 224.32 150.193 224.788 149.777 225.231C149.959 225.413 150.141 225.595 150.323 225.777C150.713 225.309 151.077 224.814 151.415 224.32C151.675 223.956 151.103 223.513 150.791 223.851C150.427 224.242 150.063 224.528 149.595 224.762C149.803 224.866 149.985 224.997 150.193 225.101C150.193 225.023 150.167 224.944 150.167 224.866C150.115 224.372 149.335 224.372 149.387 224.866C149.387 224.944 149.413 225.023 149.413 225.101C149.439 225.387 149.725 225.595 150.011 225.439C150.531 225.153 150.947 224.84 151.363 224.398C151.155 224.242 150.947 224.086 150.739 223.93C150.427 224.372 150.115 224.814 149.777 225.231C149.465 225.621 149.985 226.168 150.323 225.777C150.739 225.335 151.181 224.866 151.597 224.424C151.389 224.268 151.181 224.112 150.973 223.956C150.453 224.736 149.933 225.543 149.413 226.324C149.205 226.662 149.621 227.052 149.959 226.87C152.351 225.413 152.975 222.186 153.834 219.714C153.99 219.219 153.262 219.063 153.079 219.506C152.533 220.833 151.831 222.134 150.895 223.227C150.453 223.747 149.751 224.034 149.335 224.502C149.231 224.606 149.127 224.632 149.075 224.762C148.945 224.997 149.049 225.231 149.309 225.335C149.335 225.335 149.361 225.361 149.387 225.361C149.595 225.439 149.803 225.283 149.855 225.101C149.855 225.075 149.855 225.075 149.881 225.049C150.089 224.58 149.335 224.372 149.153 224.84Z" fill="#202236"/>
<path d="M152.039 224.059C152.274 223.799 152.43 223.539 152.508 223.227C152.638 222.758 152.039 222.602 151.805 222.914C151.259 223.643 150.713 224.372 150.167 225.1C149.855 225.491 150.531 225.881 150.843 225.491C151.389 224.762 151.935 224.033 152.482 223.305C152.248 223.201 152.013 223.097 151.779 222.992C151.727 223.175 151.649 223.331 151.519 223.487C151.155 223.903 151.727 224.45 152.039 224.059Z" fill="#202236"/>
<path d="M140.026 217.605C139.298 216.147 140.078 215.601 141.534 215.211C141.716 215.158 141.898 215.132 142.054 215.054C142.679 214.768 143.043 214.144 143.303 213.545C143.719 212.66 143.953 211.697 144.499 210.891C145.643 209.147 147.671 209.225 148.321 211.307C148.971 213.389 148.165 215.705 146.787 217.292C146.111 218.073 145.279 218.802 144.291 219.14C143.433 219.452 142.679 219.348 141.846 218.984C141.248 218.724 140.156 218.203 140 217.527C139.896 217.032 139.142 217.24 139.246 217.735C139.532 219.088 141.56 219.921 142.783 220.103C144.109 220.311 145.357 219.66 146.371 218.828C148.633 216.954 150.037 213.649 148.945 210.787C147.775 207.69 144.603 208.835 143.433 211.281C143.069 212.036 142.887 213.311 142.288 213.857C141.534 214.56 140.572 214.3 139.792 214.846C138.7 215.627 138.804 217.006 139.35 218.073C139.584 218.463 140.26 218.073 140.026 217.605Z" fill="#202236"/>
<path d="M139.506 216.798C143.536 216.694 145.487 212.946 146.371 209.511C146.501 209.017 145.747 208.809 145.617 209.303C144.836 212.374 143.146 215.913 139.506 216.017C139.012 216.043 139.012 216.824 139.506 216.798Z" fill="#202236"/>
<path d="M128.819 207.716C128.351 207.977 125.517 204.88 124.321 200.742C123.437 197.724 123.697 195.043 124.009 193.352C124.451 191.998 125.075 190.541 125.933 189.058C129.625 182.708 135.45 179.716 138.466 178.44C137.842 179.039 137.114 179.82 136.438 180.809C135.502 182.11 134.904 183.333 134.514 184.348C135.398 183.593 136.412 182.838 137.504 182.11C139.949 180.47 142.315 179.299 144.369 178.466C144.057 179.794 143.719 181.121 143.407 182.422C144.135 182.006 145.149 181.407 146.397 180.809C147.775 180.158 150.61 178.805 151.052 179.403C151.182 179.585 151.026 179.794 150.792 180.548C150.48 181.537 150.376 182.37 150.324 182.916C151.13 182.786 152.04 182.682 153.028 182.656C154.12 182.604 155.108 182.656 155.992 182.734C155.68 183.931 155.368 185.102 155.056 186.299C155.68 186.534 156.565 186.976 157.475 187.705C159.919 189.708 160.621 192.415 160.803 193.482C161.193 196.032 160.569 198.166 160.101 199.337C158.853 196.683 156.382 195.642 154.978 196.292C154.12 196.683 153.132 197.932 153.236 199.207C153.262 199.493 153.34 199.753 153.418 199.936C152.508 199.103 151.13 197.984 149.336 196.943C147.541 195.902 145.539 194.731 142.887 194.393C137.894 193.742 133.994 196.474 132.954 197.229C131.341 198.374 128.715 200.222 128.247 203.162C127.779 205.635 129.183 207.534 128.819 207.716Z" fill="#202236"/>
<path opacity="0.11" d="M148.607 196.292C149.413 198.114 150.505 200.95 151.103 204.515C151.728 208.054 152.508 212.609 150.609 217.657C149.959 219.375 148.425 222.679 144.785 225.776C145.643 225.75 147.125 225.594 148.685 224.761C151.233 223.434 152.352 221.222 152.69 220.441C153.912 221.639 155.55 223.512 156.798 226.167C157.5 227.65 157.942 229.029 158.202 230.174C158.904 229.55 160.205 228.196 160.803 226.062C161.037 225.23 161.115 224.475 161.115 223.85C159.607 223.018 158.644 222.003 158.098 221.352C157.864 221.066 155.55 218.151 155.68 214.118C155.732 212.661 156.044 212.635 156.278 210.397C156.486 208.393 156.382 206.701 156.278 205.582C157.604 206.129 158.28 205.869 158.592 205.686C159.19 205.322 159.346 204.671 159.893 201.367C160.179 199.597 160.335 198.712 160.387 198.244C160.699 195.719 160.855 194.444 160.699 193.429C160.257 190.541 158.41 188.615 157.786 188.017C156.746 187.002 155.68 186.429 154.978 186.117C155.29 185.024 155.576 183.905 155.888 182.812C154.406 184.556 153.028 185.753 152.092 186.533C149.751 188.407 148.399 188.849 146.787 190.645C145.513 192.05 144.785 193.481 144.369 194.444C145.799 195.095 147.203 195.693 148.607 196.292Z" fill="#494949"/>
<path opacity="0.17" d="M137.893 178.726C137.009 179.116 134.929 180.209 133.473 182.525C133.109 183.098 132.303 184.529 132.069 186.533C131.809 188.745 132.355 190.489 132.667 191.347C132.771 189.187 133.291 185.7 135.371 182.109C136.177 180.756 137.061 179.637 137.893 178.726Z" fill="#494949"/>
<path opacity="0.08" d="M156.278 205.713C156.2 205.687 156.044 205.973 155.472 207.951C154.692 210.631 154.276 212.609 154.042 213.598C153.704 215.029 153.132 217.059 152.065 219.505C153.912 219.869 155.758 220.234 157.604 220.572C156.928 219.089 156.122 216.955 155.81 214.3C155.316 209.746 156.538 205.765 156.278 205.713Z" fill="#494949"/>
</svg>
