<svg width="267" height="257" viewBox="0 0 267 257" fill="none" xmlns="http://www.w3.org/2000/svg">
<path opacity="0.07" d="M234.671 129.851C234.671 177.371 206.906 199.816 172.675 180.038C138.444 160.261 110.714 105.675 110.714 58.1886C110.714 10.6678 138.479 -11.7764 172.71 8.00083C206.94 27.7781 234.671 82.3299 234.671 129.851Z" fill="url(#paint0_linear_889_15078)"/>
<path opacity="0.4" d="M144.564 29.9257C136.404 25.2151 128.348 22.7906 120.845 22.756C113.342 22.7214 106.496 25.1112 100.721 29.7871C94.9471 34.463 90.383 41.2863 87.2712 49.9107C84.1593 58.5351 82.5342 68.822 82.5342 80.1134L144.53 115.927L144.564 29.9257Z" fill="url(#paint1_linear_889_15078)"/>
<path opacity="0.2" d="M96.3652 68.1985C96.3652 85.2048 99.9958 103.943 106.807 122.023C113.619 140.103 123.3 156.728 134.607 169.786C145.913 182.844 158.396 191.746 170.428 195.382C182.461 199.019 193.491 197.218 202.169 190.187C210.848 183.156 216.726 171.241 219.146 155.966C221.532 140.657 220.322 122.646 215.62 104.22C210.917 85.7936 202.999 67.7482 192.799 52.4044C182.599 37.0606 170.636 25.0765 158.361 18.0107V104.047L96.3652 68.1985Z" fill="url(#paint2_linear_889_15078)"/>
<path opacity="0.3" d="M113.826 59.4702L10.9609 0L10.9955 53.7206L104.802 107.961L113.895 121.434L113.826 59.4702Z" fill="url(#paint3_linear_889_15078)"/>
<path d="M0 20.9202V6.33838L38.8294 28.7826V43.3644L0 20.9202Z" fill="#F2994A"/>
<path opacity="0.15" d="M87.3749 57.2534L64.8311 44.2302V48.9407L87.3749 61.9639V57.2534Z" fill="white"/>
<path opacity="0.15" d="M87.409 66.7091L43.9463 41.5979V46.3084L87.409 71.4196V66.7091Z" fill="white"/>
<path opacity="0.15" d="M87.4091 76.1302L34.749 45.7197V50.4302L87.4091 80.8754V76.1302Z" fill="white"/>
<path d="M92.9414 65.393C92.9414 69.8264 95.5692 74.9179 98.7848 76.7883C102 78.6586 104.628 76.5805 104.628 72.1471C104.628 67.7136 102 62.6221 98.7848 60.7518C95.5347 58.8814 92.9414 60.9596 92.9414 65.393Z" fill="#F2994A"/>
<path opacity="0.3" d="M155.214 142.562L258.114 202.067L258.148 255.788L164.342 201.548L155.283 204.526L155.214 142.562Z" fill="url(#paint4_linear_889_15078)"/>
<path d="M228.171 211.523V196.941L267 219.385V233.967L228.171 211.523Z" fill="#F2994A"/>
<path opacity="0.15" d="M181.699 170.964L204.243 183.987V188.698L181.699 175.674V170.964Z" fill="white"/>
<path opacity="0.15" d="M181.699 180.385L222.396 203.903V208.613L181.699 185.13V180.385Z" fill="white"/>
<path opacity="0.15" d="M181.699 189.841L234.359 220.286V224.996L181.699 194.551V189.841Z" fill="white"/>
<path d="M176.132 172.661C176.132 177.094 173.504 179.173 170.289 177.302C167.073 175.432 164.445 170.34 164.445 165.907C164.445 161.473 167.073 159.395 170.289 161.266C173.504 163.136 176.132 168.228 176.132 172.661Z" fill="#F2994A"/>
<path opacity="0.3" d="M82.8447 115.962L140.795 149.455V257L82.8447 223.507V115.962Z" fill="url(#paint5_linear_889_15078)"/>
<path opacity="0.15" d="M88.5508 179.796L135.091 206.708V211.419L88.5508 184.507V179.796Z" fill="white"/>
<path opacity="0.15" d="M91.8008 190.88L131.806 214.017V218.727L91.8008 195.59V190.88Z" fill="white"/>
<path d="M108.709 210.103L68.3926 186.792V198.811L108.709 222.121V210.103Z" fill="#F2C94C"/>
<path d="M118.424 158.252C118.424 163.448 115.416 165.907 111.717 163.759C108.017 161.612 105.009 155.62 105.009 150.39C105.009 145.195 108.017 142.735 111.717 144.883C115.416 147.065 118.424 153.057 118.424 158.252Z" fill="#F2C94C"/>
<path d="M111.717 167.95C105.735 164.452 100.791 167.743 99.9263 175.259C99.788 176.575 100.756 178.307 101.966 178.999L121.467 190.429C122.678 191.122 123.646 190.568 123.507 189.078C122.643 180.489 117.699 171.449 111.717 167.95Z" fill="#F2C94C"/>
<path opacity="0.2" d="M50.5859 107.164L35.7871 98.6089V93.6213L50.5859 102.176C51.796 102.869 53.5594 104.289 55.0462 106.471C56.6713 108.792 57.8123 111.736 57.8123 114.923C57.8123 118.455 56.9134 120.464 55.2191 121.019C53.6286 121.538 51.7269 120.638 50.5859 119.979L44.5004 116.447L44.4658 116.412C43.9472 116.1 43.1173 115.788 42.4604 115.996C41.9072 116.169 41.3194 116.689 41.3194 118.663C41.3194 120.638 41.9417 121.815 42.4258 122.542C43.0482 123.443 43.878 124.066 44.3967 124.344L44.4658 124.378L63.068 135.15V140.138L44.6041 129.435C43.3248 128.777 41.4922 127.357 39.9017 125.14C38.1729 122.681 36.9973 119.598 36.9973 116.169C36.9973 112.74 38.1729 111.009 39.8671 110.524C41.4577 110.073 43.2902 110.732 44.5695 111.494L50.5859 114.992C51.4503 115.511 52.1072 115.719 52.5567 115.581C52.9025 115.477 53.5249 114.992 53.5249 112.463C53.5249 110.801 53.0062 109.727 52.4876 109.034C51.8652 108.099 51.0699 107.441 50.5859 107.164Z" fill="white"/>
<path d="M38.4837 97.5354C38.4837 102.003 35.8559 104.116 32.6403 102.281C29.4247 100.41 26.7969 95.284 26.7969 90.7813C26.7969 86.3133 29.4247 84.2005 32.6403 86.0362C35.8559 87.9065 38.4837 93.0673 38.4837 97.5354Z" fill="#F2994A"/>
<path d="M70.64 141.87C70.64 146.338 68.0122 148.45 64.7966 146.615C61.5809 144.744 58.9531 139.618 58.9531 135.116C58.9531 130.647 61.5809 128.535 64.7966 130.37C68.0122 132.241 70.64 137.402 70.64 141.87Z" fill="#F2C94C"/>
<defs>
<linearGradient id="paint0_linear_889_15078" x1="247.128" y1="57.026" x2="132.278" y2="113.901" gradientUnits="userSpaceOnUse">
<stop stop-color="white"/>
<stop offset="1" stop-color="white" stop-opacity="0"/>
</linearGradient>
<linearGradient id="paint1_linear_889_15078" x1="170.909" y1="49.5753" x2="101.422" y2="82.2396" gradientUnits="userSpaceOnUse">
<stop stop-color="white"/>
<stop offset="1" stop-color="white" stop-opacity="0"/>
</linearGradient>
<linearGradient id="paint2_linear_889_15078" x1="203.278" y1="73.5293" x2="152.386" y2="125.985" gradientUnits="userSpaceOnUse">
<stop stop-color="white"/>
<stop offset="1" stop-color="white" stop-opacity="0"/>
</linearGradient>
<linearGradient id="paint3_linear_889_15078" x1="91.4007" y1="37.9621" x2="38.2043" y2="79.5418" gradientUnits="userSpaceOnUse">
<stop stop-color="white"/>
<stop offset="1" stop-color="white" stop-opacity="0"/>
</linearGradient>
<linearGradient id="paint4_linear_889_15078" x1="199.423" y1="144.313" x2="212.77" y2="252.382" gradientUnits="userSpaceOnUse">
<stop stop-color="white"/>
<stop offset="1" stop-color="white" stop-opacity="0"/>
</linearGradient>
<linearGradient id="paint5_linear_889_15078" x1="147.002" y1="125.44" x2="95.4301" y2="214.634" gradientUnits="userSpaceOnUse">
<stop stop-color="white"/>
<stop offset="1" stop-color="white" stop-opacity="0"/>
</linearGradient>
</defs>
</svg>
